<?xml version="1.0" encoding="utf-8"?>
<!-- Generator: Adobe Illustrator 26.2.1, SVG Export Plug-In . SVG Version: 6.00 Build 0)  -->
<svg version="1.1" id="Layer_1" xmlns="http://www.w3.org/2000/svg" xmlns:xlink="http://www.w3.org/1999/xlink" x="0px" y="0px"
	 viewBox="0 0 500 164.8" style="enable-background:new 0 0 500 164.8;" xml:space="preserve">
<style type="text/css">
	.st0{fill:url(#SVGID_1_);}
	.st1{fill:url(#SVGID_00000026882954171785207710000012982518182014628739_);}
	.st2{fill:url(#SVGID_00000169547627702588941520000008719961949049986734_);}
	.st3{fill:url(#SVGID_00000090293963143907216980000009154023624835255487_);}
	.st4{fill:#FFFFFF;}
</style>
<g>
	<linearGradient id="SVGID_1_" gradientUnits="userSpaceOnUse" x1="82.1764" y1="117.8777" x2="82.1764" y2="34.6759">
		<stop  offset="0" style="stop-color:#00BEFE"/>
		<stop  offset="1" style="stop-color:#02519B"/>
	</linearGradient>
	<path class="st0" d="M82.2,53.6h16V47h-16v0H79c-2.3,0-4.5,0.6-6.4,1.7c-1.9,1.1-3.6,2.7-4.7,4.7c-1.1,1.9-1.7,4.1-1.7,6.4v19.2
		l6.4,3.2l-6.4,3.2v19.3c0,2.3,0.6,4.5,1.7,6.4c1.1,1.9,2.7,3.6,4.7,4.7c1.9,1.1,4.1,1.7,6.4,1.7h19.2V75.9H85.4v3.2H79V57.8
		C79,55.8,80.3,54.1,82.2,53.6z M85.4,85.5v25.1c-0.6,0.3-1.3,0.5-2.1,0.5c-0.4,0-0.8-0.1-1.1-0.2c-1.8-0.5-3.2-2.2-3.2-4.2V85.5
		H85.4z"/>
	
		<linearGradient id="SVGID_00000012469952173962546900000012286292678612463239_" gradientUnits="userSpaceOnUse" x1="91.8011" y1="117.8777" x2="91.8011" y2="34.6759">
		<stop  offset="0" style="stop-color:#00BEFE"/>
		<stop  offset="1" style="stop-color:#02519B"/>
	</linearGradient>
	
		<rect x="85.4" y="56.6" style="fill:url(#SVGID_00000012469952173962546900000012286292678612463239_);" width="12.8" height="16"/>
	
		<linearGradient id="SVGID_00000181045800848536204290000011004918535277718448_" gradientUnits="userSpaceOnUse" x1="120.6721" y1="46.6291" x2="120.6721" y2="123.8756">
		<stop  offset="0" style="stop-color:#00BEFE"/>
		<stop  offset="1" style="stop-color:#02519B"/>
	</linearGradient>
	<path style="fill:url(#SVGID_00000181045800848536204290000011004918535277718448_);" d="M136.7,59.9c0-2.3-0.6-4.5-1.7-6.4
		c-1.1-2-2.8-3.6-4.7-4.7c-1.9-1.1-4.1-1.7-6.4-1.7h-19.3v41.7h12.8v-3.2h6.4V108h12.4c0.3-1,0.4-2.1,0.4-3.2V85.5l-6.4-3.2l6.4-3.2
		V59.9z M123.9,79.1h-6.4V53.4h2.1c0.4,0,0.8,0.1,1.1,0.2c1.9,0.5,3.2,2.2,3.2,4.2V79.1z"/>
	
		<linearGradient id="SVGID_00000081629567629991431140000000138628033244531097_" gradientUnits="userSpaceOnUse" x1="119.8125" y1="46.6291" x2="119.8125" y2="123.8756">
		<stop  offset="0" style="stop-color:#00BEFE"/>
		<stop  offset="1" style="stop-color:#02519B"/>
	</linearGradient>
	<path style="fill:url(#SVGID_00000081629567629991431140000000138628033244531097_);" d="M135,111.2c-1.1,1.9-2.7,3.6-4.7,4.7
		c-1.9,1.1-4.1,1.7-6.4,1.7h-19.2V91.9h12.8v19.2H135z"/>
</g>
<g>
	<path class="st4" d="M155.4,60h23c8,0,12.3,4.1,12.3,11.1v2.5c-0.1,3.8-2.2,6.1-5.6,7.4c3.8,1.3,6.5,3.8,6.6,7.8v4.5
		c0,7.1-4.3,11.2-12.3,11.2h-23.9V60z M182.9,72.5c0-4.2-1.8-5.5-6.2-5.5h-13.1v11.1h13c4.3-0.1,6.4-1,6.4-4.2V72.5z M163.5,97.5
		h14.1c4.4,0,6.2-1.9,6.2-6.1v-2c0-3.2-2.2-4.5-6.6-4.5h-13.7V97.5z"/>
	<path class="st4" d="M203.4,54c2.4,0,4.3,1.8,4.3,4.2c0,2.4-1.9,4.1-4.3,4.1c-2.4,0-4.3-1.8-4.3-4.1C199.1,55.8,201,54,203.4,54z
		 M207.3,104.6h-7.9V68.3h7.9V104.6z"/>
	<path class="st4" d="M215.3,57.8h7.9v13.4c2.8-1.4,6.7-3.2,10.1-3.2h2.1c7.8,0.1,11.8,1.8,11.8,10.6v15.8c0,8.7-3.9,10.5-11.8,10.6
		h-2.1c-3.4,0-7.3-1.8-10.1-3.2v2.9h-7.9V57.8z M223.2,95.6c2.9,0.8,6.1,2.2,8.8,2.2h1.9c3.8,0,5.3-1,5.3-4.8V79.8
		c0-3.9-1.5-4.9-5.3-4.9H232c-2.7,0-6,1.4-8.8,2.2V95.6z"/>
	<path class="st4" d="M262.4,104.6h-7.9V57.8h7.9V104.6z"/>
	<path class="st4" d="M299.3,104c0,0-7.8,0.8-17.6,0.8c-8,0.1-12-2.1-12-10.9V79.7c0-7.1,4.6-11.5,12.6-11.5h7.7c8,0,12,4.5,12,11.5
		V90c0,0.6-0.1,0.8-0.6,0.8h-23.8V93c0,5.1,0.8,5.2,5.3,5.2h16.5L299.3,104z M294.2,81.2c0-6.2-1.7-6.6-5.8-6.6H284
		c-4.1,0-6.4,0.3-6.4,6.6v3.3l16.5-0.1V81.2z"/>
	<path class="st4" d="M341.8,67h-17.7c-4.4,0-6.6,1.6-6.6,5.8v18.3c0,4.2,2.2,6.4,6.6,6.4h17.7l0.1,6.7c0,0-10.5,0.6-21.1,0.6
		c-8,0.1-12-5.7-12-12.8V71.9c0-7.1,4-12.2,12-12.2c11.8,0,21.1,0.5,21.1,0.5L341.8,67z"/>
	<path class="st4" d="M379.7,80v12.7c0,8.8-4,12.2-12,12.2h-8.7c-8,0-12-3.4-12-12.2V80c0-8.8,4-12.2,12-12.2h8.7
		C375.7,67.8,379.7,71.2,379.7,80z M371.9,92.8V79.6c0-3.9-1.5-5.2-5.3-5.2h-6.2c-3.8,0-5.3,1.3-5.3,5.2v13.2c0,3.9,1.5,5.2,5.3,5.2
		h6.2C370.3,98,371.9,96.7,371.9,92.8z"/>
	<path class="st4" d="M391,54c2.4,0,4.3,1.8,4.3,4.2c0,2.4-1.9,4.1-4.3,4.1c-2.4,0-4.3-1.8-4.3-4.1C386.7,55.8,388.6,54,391,54z
		 M394.9,104.6h-7.9V68.3h7.9V104.6z"/>
	<path class="st4" d="M402.9,68.3h7.9v2.8c2.8-1.4,6.7-3.2,10.1-3.2h2c7.8,0,11.7,1.8,11.7,10.5v26.2h-7.9V79.7
		c0-3.9-1.5-4.8-5.3-4.8h-1.8c-2.7,0-6,1.4-8.8,2.2v27.5h-7.9V68.3z"/>
</g>
</svg>
