<?xml version="1.0" encoding="utf-8"?>
<!-- Generator: Adobe Illustrator 26.2.1, SVG Export Plug-In . SVG Version: 6.00 Build 0)  -->
<svg version="1.1" id="Layer_1" xmlns="http://www.w3.org/2000/svg" xmlns:xlink="http://www.w3.org/1999/xlink" x="0px" y="0px"
	 viewBox="0 0 60 60" style="enable-background:new 0 0 60 60;" xml:space="preserve">
<style type="text/css">
	.st0{fill:url(#SVGID_1_);}
	.st1{fill:url(#SVGID_00000014606385400733051390000010196929889364925318_);}
	.st2{fill:url(#SVGID_00000176013987704319199720000001162400916300123559_);}
	.st3{fill:url(#SVGID_00000088123763365246279970000017802845894579356852_);}
	.st4{fill:url(#SVGID_00000057126648732844958200000001043655824757310863_);}
	.st5{fill:url(#SVGID_00000166663288048276821220000013080982901466075301_);}
	.st6{fill:url(#SVGID_00000157993276296873449400000012323189030512166814_);}
	.st7{fill:url(#SVGID_00000033328960532811293840000000039659007275640453_);}
	.st8{fill:url(#SVGID_00000072985266379974156780000014468479286724399805_);}
	.st9{fill:url(#SVGID_00000178167826383028147870000004183222800283724983_);}
	.st10{fill:url(#SVGID_00000119814344877338650930000007610605491471765174_);}
	.st11{fill:url(#SVGID_00000087401910369135821960000002210413346161008516_);}
	.st12{fill:url(#SVGID_00000111165247092750281700000002233676905906574012_);}
	.st13{fill:url(#SVGID_00000137839663938816761400000002303065172048536760_);}
</style>
<g>
	<linearGradient id="SVGID_1_" gradientUnits="userSpaceOnUse" x1="59.2861" y1="-0.6152" x2="6.030073e-02" y2="58.8041">
		<stop  offset="0" style="stop-color:#00BEFE"/>
		<stop  offset="1" style="stop-color:#02519B"/>
	</linearGradient>
	<path class="st0" d="M8.8,60c-0.2,0-0.5-0.1-0.7-0.3C5.5,58.1,3,56.5,0.6,55C0.2,54.8,0,54.5,0,54c0-0.9,0-1.9,0-2.8v-2.3
		C0,48,0,47,0,46.1c0-0.5,0.2-0.8,0.6-1c2.5-1.6,5-3.1,7.6-4.7c0.2-0.2,0.5-0.2,0.7-0.2c0.2,0,0.4,0.1,0.7,0.2
		c2.5,1.6,5,3.1,7.5,4.7c0.4,0.3,0.6,0.6,0.6,1.1c0,2.6,0,5.2,0,7.8c0,0.5-0.2,0.8-0.6,1.1c-2.5,1.6-5,3.1-7.5,4.7
		C9.2,59.9,9,60,8.8,60z M1.4,47.5c0,0.1,0,0.1,0,0.2l0,1c0,1.6,0,3.1,0,4.7c0,0.3,0.3,0.6,0.5,0.8c1.6,1,3.1,2,4.7,3l0.7,0.4
		c0.1,0.1,0.2,0.1,0.3,0.2L8.1,58l0-1.7c0-1.6,0-3.1,0-4.6c0-0.3-0.3-0.6-0.5-0.8c-1-0.7-2-1.3-3-1.9l-3-1.8L1.4,47.5z M14.6,48.1
		c-1.6,1-3.2,2-4.8,3c-0.3,0.2-0.3,0.6-0.3,0.8c0,1,0,2,0,3l0,3l0.4,0l0.1,0l0.3-0.2c1.8-1.1,3.7-2.3,5.5-3.4
		c0.2-0.1,0.4-0.4,0.4-0.6c0-1.6,0-3.2,0-4.9V47L14.6,48.1z M8.9,41.7c-0.2,0-0.4,0.1-0.6,0.2c-0.9,0.5-1.8,1.1-2.7,1.7L2,45.8
		l1.4,0.8c1.7,1.1,3.4,2.1,5.1,3.2c0.1,0.1,0.3,0.1,0.3,0.1l0,0c0.2,0,0.3,0,0.4-0.1c1.6-1,3.2-1.9,4.8-3l1.6-1l-1.6-1
		c-1.7-1-3.3-2.1-4.9-3C9.1,41.7,9,41.7,8.9,41.7z"/>
	
		<linearGradient id="SVGID_00000041261250913329170170000005852251205288842152_" gradientUnits="userSpaceOnUse" x1="60.5741" y1="0.6685" x2="1.3483" y2="60.0879">
		<stop  offset="0" style="stop-color:#00BEFE"/>
		<stop  offset="1" style="stop-color:#02519B"/>
	</linearGradient>
	<path style="fill:url(#SVGID_00000041261250913329170170000005852251205288842152_);" d="M51.3,20c-0.2,0-0.4-0.1-0.6-0.2
		c-2.6-1.6-5.1-3.2-7.7-4.8c-0.4-0.2-0.5-0.5-0.5-0.9c0-2.7,0-5.3,0-8c0-0.5,0.2-0.7,0.6-1c2.5-1.6,5-3.1,7.5-4.7
		C50.9,0.1,51.1,0,51.3,0c0.2,0,0.4,0.1,0.6,0.2C54.5,1.9,57,3.4,59.6,5C59.9,5.2,60,5.4,60,5.8c0,1,0,2,0,3l0,2.3c0,1,0,2,0,3.1
		c0,0.3-0.2,0.6-0.4,0.8c-1.8,1.2-3.6,2.3-5.4,3.4l-2.3,1.4C51.7,19.9,51.5,20,51.3,20z M58.5,7.3l-0.1,0c-0.1,0-0.2,0-0.2,0.1
		l-0.3,0.2C56,8.7,54.2,9.8,52.4,11c-0.2,0.1-0.4,0.4-0.4,0.6c0,1.6,0,3.1,0,4.7l0,1.7l0.6-0.4c0.2-0.1,0.3-0.2,0.5-0.3
		c0.5-0.3,0.9-0.6,1.4-0.9c1.1-0.7,2.2-1.4,3.3-2c0.8-0.5,1.1-1,1-1.8c-0.1-0.6,0-1.3,0-1.9c0-0.3,0-0.6,0-0.8V7.3L58.5,7.3z
		 M43.9,8.8c0,1.6,0,3.1,0,4.6c0,0.3,0.3,0.6,0.5,0.8c1,0.6,1.9,1.2,2.9,1.8l3.1,1.9l0.1-0.3c0-0.1,0.1-0.1,0.1-0.2l0-1.1
		c0-1.6,0-3.1,0-4.7c0-0.3-0.3-0.7-0.6-0.8c-0.8-0.5-1.6-1-2.4-1.5L43.9,7L43.9,8.8z M51.3,1.7c-0.2,0-0.4,0-0.5,0.1
		c-1.1,0.6-2.1,1.3-3.2,2l-3.1,1.9l1.6,1c1.6,1,3.2,2,4.8,3c0.1,0,0.2,0.1,0.3,0.1c0.2,0,0.5-0.1,0.6-0.2c0.8-0.5,1.7-1,2.5-1.6
		L58,5.8l-0.3-0.3c-0.1-0.1-0.1-0.1-0.2-0.1l-1.1-0.7c-1.5-1-3-1.9-4.6-2.8C51.6,1.7,51.5,1.7,51.3,1.7z"/>
	
		<linearGradient id="SVGID_00000118386833022474190760000011392599329446216121_" gradientUnits="userSpaceOnUse" x1="80.6177" y1="20.6469" x2="21.3919" y2="80.0662">
		<stop  offset="0" style="stop-color:#00BEFE"/>
		<stop  offset="1" style="stop-color:#02519B"/>
	</linearGradient>
	<path style="fill:url(#SVGID_00000118386833022474190760000011392599329446216121_);" d="M51.4,59.9c-0.3,0-0.6-0.1-0.8-0.2
		c-1.5-0.9-3.1-1.9-4.6-2.9c-1-0.6-2-1.2-3-1.8c-0.4-0.2-0.5-0.5-0.5-1c0-2.7,0-5.3,0-8c0-0.5,0.2-0.8,0.6-1c2.5-1.6,5-3.1,7.6-4.7
		c0.2-0.1,0.4-0.2,0.6-0.2c0.2,0,0.4,0.1,0.6,0.2c2.5,1.6,5,3.2,7.6,4.7c0.4,0.2,0.5,0.5,0.5,0.9c0,2.7,0,5.4,0,8.3
		c0,0.4-0.1,0.6-0.5,0.9c-0.7,0.4-1.4,0.8-2.1,1.3c-0.4,0.3-0.9,0.6-1.3,0.8c-0.2,0.1-0.4,0.2-0.6,0.2c-0.2,0-0.4-0.1-0.5-0.3
		c-0.3-0.5,0.1-0.8,0.4-1.1l1-0.6c0.6-0.4,1.2-0.8,1.8-1.2c0.2-0.1,0.5-0.4,0.5-0.7c0-1.5,0-3.1,0-4.7l0-1.7l-3.9,2.4
		c-0.2,0.1-0.5,0.3-0.7,0.4c-0.5,0.3-0.9,0.6-1.4,0.9c-0.6,0.3-0.7,0.8-0.7,1.3c0,1.5,0,3,0,4.5V59c0,0.5,0,0.8-0.4,0.9
		C51.6,59.9,51.5,59.9,51.4,59.9z M43.9,48.8c0,1.6,0,3.2,0,4.8c0,0.3,0.3,0.6,0.5,0.7c0.8,0.5,1.6,1,2.4,1.5l3.6,2.3l0.1-0.5
		c0-0.1,0-0.2,0-0.3l0-1c0-1.5,0-3,0-4.5c0-0.3-0.3-0.7-0.5-0.9c-1.3-0.8-2.6-1.6-3.8-2.4l-1-0.6c-0.2-0.1-1.1-0.6-1.1-0.6l-0.3-0.2
		L43.9,48.8z M51.3,41.7c-0.1,0-0.3,0-0.4,0.1c-1.7,1-3.3,2.1-5,3.1l-1.4,0.8l1.9,1.2c1.5,0.9,2.9,1.8,4.3,2.7
		c0.2,0.1,0.4,0.2,0.6,0.2l0,0c0.2,0,0.4-0.1,0.6-0.2c1.1-0.7,2.3-1.4,3.4-2.1l1.5-1c0.2-0.1,0.4-0.2,0.6-0.4l0.6-0.4l-1.5-0.9
		c-1.7-1-3.3-2.1-4.9-3.1C51.6,41.7,51.4,41.7,51.3,41.7z"/>
	
		<linearGradient id="SVGID_00000063632734099302329780000006485633498291836574_" gradientUnits="userSpaceOnUse" x1="39.2181" y1="-20.6179" x2="-20.0077" y2="38.8015">
		<stop  offset="0" style="stop-color:#00BEFE"/>
		<stop  offset="1" style="stop-color:#02519B"/>
	</linearGradient>
	<path style="fill:url(#SVGID_00000063632734099302329780000006485633498291836574_);" d="M8.8,19.8c-0.2,0-0.4-0.1-0.6-0.2
		c-2.5-1.6-5-3.2-7.6-4.7c-0.4-0.2-0.5-0.5-0.5-0.9c0-2.7,0-5.4,0-8.3c0-0.4,0.1-0.6,0.5-0.9C1.3,4.5,2,4,2.7,3.6
		C3.1,3.3,3.5,3.1,4,2.8c0.2-0.1,0.4-0.2,0.6-0.2c0.2,0,0.4,0.1,0.5,0.3C5.4,3.4,5,3.7,4.7,4L3.7,4.5C3.1,4.9,2.5,5.3,1.9,5.7
		C1.7,5.8,1.4,6.1,1.4,6.4c0,1.5,0,3.1,0,4.7l0,1.7l3.9-2.4C5.5,10.3,5.8,10.2,6,10c0.5-0.3,0.9-0.6,1.4-0.9C8,8.8,8.1,8.4,8.1,7.8
		c0-1.5,0-3,0-4.5V1c0-0.5,0-0.8,0.4-0.9c0.1,0,0.1,0,0.2,0C9,0,9.3,0.1,9.5,0.2c1.5,0.9,3.1,1.9,4.6,2.8c1,0.6,2,1.2,3,1.9
		c0.4,0.2,0.5,0.5,0.5,1c0,2.7,0,5.3,0,8c0,0.5-0.2,0.8-0.6,1c-2.5,1.6-5,3.1-7.6,4.7C9.2,19.8,9,19.8,8.8,19.8z M8.8,10.1
		c-0.2,0-0.4,0.1-0.6,0.2C7,11,5.9,11.7,4.7,12.5l-1.5,0.9c-0.2,0.1-0.4,0.2-0.6,0.4L2,14.2l1.6,1c1.6,1,3.2,2,4.8,3
		c0.1,0.1,0.3,0.1,0.4,0.1c0.1,0,0.3,0,0.4-0.1c1.6-1,3.2-2,4.9-3l1.5-1L13.8,13c-1.5-0.9-2.9-1.8-4.4-2.7C9.2,10.1,9,10.1,8.8,10.1
		z M9.5,2.4c0,0.1,0,0.2,0,0.3l0,1c0,1.5,0,3,0,4.5c0,0.3,0.3,0.7,0.5,0.9c1.3,0.8,2.5,1.6,3.8,2.4l1,0.6c0.2,0.1,0.4,0.3,0.7,0.4
		l0.7,0.4l0-1.7c0-1.6,0-3.2,0-4.8c0-0.3-0.3-0.6-0.5-0.7c-0.8-0.5-1.7-1.1-2.5-1.6L9.6,1.9L9.5,2.4z"/>
	
		<linearGradient id="SVGID_00000114065034840789338500000003449727209014232459_" gradientUnits="userSpaceOnUse" x1="70.2082" y1="10.2713" x2="10.9824" y2="69.6907">
		<stop  offset="0" style="stop-color:#00BEFE"/>
		<stop  offset="1" style="stop-color:#02519B"/>
	</linearGradient>
	<path style="fill:url(#SVGID_00000114065034840789338500000003449727209014232459_);" d="M26.4,51.2c-1.3,0-2.7,0-4,0
		c-0.3,0-0.6-0.2-0.8-0.4c-0.2-0.2-0.1-0.4-0.1-0.5c0.1-0.2,0.3-0.4,0.5-0.5c0.1,0,0.2,0,0.3,0l15.4,0c0.1,0,0.1,0,0.2,0
		c0.5,0.1,0.7,0.3,0.7,0.7c0,0.4-0.2,0.6-0.7,0.6c-0.6,0-7.9,0-7.9,0L26.4,51.2z"/>
	
		<linearGradient id="SVGID_00000067199699586401696480000010023294510735010742_" gradientUnits="userSpaceOnUse" x1="49.682" y1="-10.188" x2="-9.5438" y2="49.2313">
		<stop  offset="0" style="stop-color:#00BEFE"/>
		<stop  offset="1" style="stop-color:#02519B"/>
	</linearGradient>
	<path style="fill:url(#SVGID_00000067199699586401696480000010023294510735010742_);" d="M22.2,10.2c-0.4,0-0.8-0.2-0.7-0.7
		c0-0.4,0.2-0.6,0.7-0.6l15.5,0c0.1,0,0.2,0,0.3,0c0.4,0,0.6,0.2,0.6,0.6c0,0.4-0.2,0.6-0.5,0.7c-0.1,0-0.1,0-0.2,0l-15.5,0
		L22.2,10.2z"/>
	
		<linearGradient id="SVGID_00000170961137228369445600000007941188731574990747_" gradientUnits="userSpaceOnUse" x1="60.1948" y1="0.2905" x2="0.969" y2="59.7098">
		<stop  offset="0" style="stop-color:#00BEFE"/>
		<stop  offset="1" style="stop-color:#02519B"/>
	</linearGradient>
	<path style="fill:url(#SVGID_00000170961137228369445600000007941188731574990747_);" d="M30,44.9c-0.4,0-0.7-0.3-0.7-0.7V17
		c0-0.4,0.3-0.7,0.7-0.7s0.7,0.3,0.7,0.7v27.3C30.7,44.6,30.4,44.9,30,44.9z"/>
	
		<linearGradient id="SVGID_00000082339966344217825910000002762692308100444318_" gradientUnits="userSpaceOnUse" x1="57.4671" y1="-2.4283" x2="-1.7587" y2="56.991">
		<stop  offset="0" style="stop-color:#00BEFE"/>
		<stop  offset="1" style="stop-color:#02519B"/>
	</linearGradient>
	<path style="fill:url(#SVGID_00000082339966344217825910000002762692308100444318_);" d="M21.9,25.8c-0.4,0-0.7-0.3-0.7-0.7
		c0-0.4,0.3-0.7,0.7-0.7h16.2c0.4,0,0.7,0.3,0.7,0.7c0,0.4-0.3,0.7-0.7,0.7H21.9z"/>
	
		<linearGradient id="SVGID_00000089576591095723156300000008619122808683804053_" gradientUnits="userSpaceOnUse" x1="70.6796" y1="10.7412" x2="11.4538" y2="70.1605">
		<stop  offset="0" style="stop-color:#00BEFE"/>
		<stop  offset="1" style="stop-color:#02519B"/>
	</linearGradient>
	<path style="fill:url(#SVGID_00000089576591095723156300000008619122808683804053_);" d="M43.1,42.4c-0.1,0-0.3,0-0.4-0.1l-3.9-2.6
		c-0.3-0.2-0.4-0.6-0.2-1c0.1-0.2,0.3-0.3,0.6-0.3c0.1,0,0.3,0,0.4,0.1l3.9,2.6c0.3,0.2,0.4,0.6,0.2,1
		C43.5,42.2,43.3,42.4,43.1,42.4z"/>
	
		<linearGradient id="SVGID_00000181051376225664699990000016629667191750338960_" gradientUnits="userSpaceOnUse" x1="59.5673" y1="-0.3349" x2="0.3415" y2="59.0844">
		<stop  offset="0" style="stop-color:#00BEFE"/>
		<stop  offset="1" style="stop-color:#02519B"/>
	</linearGradient>
	<path style="fill:url(#SVGID_00000181051376225664699990000016629667191750338960_);" d="M17.1,42.4c-0.2,0-0.4-0.1-0.6-0.3
		c-0.2-0.3-0.1-0.7,0.2-1l3.9-2.6c0.1-0.1,0.2-0.1,0.4-0.1c0.2,0,0.4,0.1,0.6,0.3c0.2,0.3,0.1,0.7-0.2,1l-3.9,2.6
		C17.3,42.3,17.2,42.4,17.1,42.4L17.1,42.4z"/>
	
		<linearGradient id="SVGID_00000080889499020404419720000001497678068568624531_" gradientUnits="userSpaceOnUse" x1="60.6544" y1="0.7486" x2="1.4286" y2="60.168">
		<stop  offset="0" style="stop-color:#00BEFE"/>
		<stop  offset="1" style="stop-color:#02519B"/>
	</linearGradient>
	<path style="fill:url(#SVGID_00000080889499020404419720000001497678068568624531_);" d="M39.2,22.3c-0.2,0-0.4-0.1-0.6-0.3
		c-0.2-0.3-0.1-0.7,0.2-1l3.9-2.6c0.1-0.1,0.2-0.1,0.4-0.1c0.2,0,0.4,0.1,0.6,0.3c0.2,0.3,0.1,0.7-0.2,1l-3.9,2.6
		C39.5,22.3,39.4,22.3,39.2,22.3L39.2,22.3z"/>
	
		<linearGradient id="SVGID_00000084532391233221950800000009137513444188461210_" gradientUnits="userSpaceOnUse" x1="49.5422" y1="-10.3274" x2="-9.6836" y2="49.092">
		<stop  offset="0" style="stop-color:#00BEFE"/>
		<stop  offset="1" style="stop-color:#02519B"/>
	</linearGradient>
	<path style="fill:url(#SVGID_00000084532391233221950800000009137513444188461210_);" d="M20.9,22.3c-0.1,0-0.3,0-0.4-0.1l-3.9-2.6
		c-0.3-0.2-0.4-0.6-0.2-1c0.1-0.2,0.3-0.3,0.6-0.3c0.1,0,0.3,0,0.4,0.1l3.9,2.6c0.3,0.2,0.4,0.6,0.2,1
		C21.4,22.2,21.1,22.3,20.9,22.3z"/>
	
		<linearGradient id="SVGID_00000042739024245450231800000008333984158707224719_" gradientUnits="userSpaceOnUse" x1="70.5972" y1="10.659" x2="11.3714" y2="70.0784">
		<stop  offset="0" style="stop-color:#00BEFE"/>
		<stop  offset="1" style="stop-color:#02519B"/>
	</linearGradient>
	<path style="fill:url(#SVGID_00000042739024245450231800000008333984158707224719_);" d="M51.3,36c-0.4,0-0.7-0.3-0.7-0.7V24.8
		c0-0.4,0.3-0.7,0.7-0.7s0.7,0.3,0.7,0.7v10.5C52,35.6,51.7,36,51.3,36z"/>
	
		<linearGradient id="SVGID_00000099661812885263974580000004311464888053326757_" gradientUnits="userSpaceOnUse" x1="49.3017" y1="-10.5672" x2="-9.9241" y2="48.8522">
		<stop  offset="0" style="stop-color:#00BEFE"/>
		<stop  offset="1" style="stop-color:#02519B"/>
	</linearGradient>
	<path style="fill:url(#SVGID_00000099661812885263974580000004311464888053326757_);" d="M8.8,36c-0.4,0-0.7-0.3-0.7-0.7V24.8
		c0-0.4,0.3-0.7,0.7-0.7s0.7,0.3,0.7,0.7v10.5C9.5,35.6,9.2,36,8.8,36z"/>
</g>
</svg>
