<?xml version="1.0" encoding="utf-8"?>
<!-- Generator: Adobe Illustrator 26.2.1, SVG Export Plug-In . SVG Version: 6.00 Build 0)  -->
<svg version="1.1" id="Layer_1" xmlns="http://www.w3.org/2000/svg" xmlns:xlink="http://www.w3.org/1999/xlink" x="0px" y="0px"
	 viewBox="0 0 60 60" style="enable-background:new 0 0 60 60;" xml:space="preserve">
<style type="text/css">
	.st0{fill:url(#SVGID_1_);}
	.st1{fill:url(#SVGID_00000122696296889569008450000017606798542449672094_);}
	.st2{fill:url(#SVGID_00000101070411047139312100000015431781000560936632_);}
	.st3{fill:url(#SVGID_00000000932654024300793090000009317635811551942820_);}
	.st4{fill:url(#SVGID_00000155857668364612704160000002998461238267665557_);}
</style>
<g>
	<linearGradient id="SVGID_1_" gradientUnits="userSpaceOnUse" x1="52.5044" y1="-3.7678" x2="-3.9003" y2="52.4527">
		<stop  offset="0" style="stop-color:#00BEFE"/>
		<stop  offset="1" style="stop-color:#02519B"/>
	</linearGradient>
	<path class="st0" d="M18,39.4c-0.2,0-0.6-0.1-0.6-0.6c0-0.2,0-0.3,0-0.5l0-0.2l0-10.1c0,0-2.7-0.4-3.4-0.5c-1-0.1-0.9-0.6-0.9-0.8
		c0-0.3,0.2-0.6,0.8-0.6c0.1,0,0.2,0,0.3,0l3.2,0.4l0-1.2c0-0.5,0-1,0-1.5c0-1,0.5-1,0.7-1c0.2,0,0.7,0,0.7,1c0,0.6,0,1.1,0,1.7
		l0,1.1l1.3,0.2c0.7,0.1,1.4,0.2,2.1,0.3c0.4,0.1,0.7,0.2,0.9,0.4c0.1,0.1,0.1,0.3,0.1,0.5c0,0.1-0.1,0.6-0.8,0.6
		c-0.1,0-0.2,0-0.3,0c-0.6-0.1-1.2-0.2-1.9-0.2l-1.3-0.2l0,10.1c0,0.2,0,0.4,0,0.5C18.6,39.3,18.3,39.4,18,39.4L18,39.4z"/>
	
		<linearGradient id="SVGID_00000155113028399889213380000009461467381537271196_" gradientUnits="userSpaceOnUse" x1="64.3072" y1="4.4247" x2="5.0769" y2="63.4615">
		<stop  offset="0" style="stop-color:#00BEFE"/>
		<stop  offset="1" style="stop-color:#02519B"/>
	</linearGradient>
	<path style="fill:url(#SVGID_00000155113028399889213380000009461467381537271196_);" d="M0,60V17.4h5.4V13c0-1.5,0-1.5,1.4-1.7
		c2-0.3,3.9-0.5,5.7-0.5c6.4,0,12.2,1.9,17.2,5.7l0.2,0.2l0.2-0.1c0.5-0.3,1-0.6,1.5-0.9c1.1-0.7,2.2-1.4,3.3-1.9
		c3.8-1.9,8-2.9,12.6-2.9c1,0,2.1,0,3.2,0.1c0.7,0.1,1.3,0.2,2,0.3c0.6,0.1,1.1,0.2,1.7,0.2c0.3,0,0.3,0,0.3,0.4c0,1.2,0,2.4,0,3.6
		l0,1.8H60V60H0z M51.2,52.8c-7.9,0-14.1,1.6-19.6,5.1l-1.1,0.7h28.2V18.8h-4v34.1C53.4,52.8,52.3,52.8,51.2,52.8z M1.4,58.6h28.2
		l-1.1-0.7c-5.5-3.5-11.7-5.1-19.5-5.1c-1.1,0-2.3,0-3.6,0.1V18.8h-4V58.6z M8.5,51.4c8.1,0,14.5,1.5,20.2,4.8l0.6,0.3l0-7.7
		c0-9.5,0-20.9,0-29.4c0-0.9-0.3-1.5-1-2.1c-4.6-3.3-10-5-16-5c-0.2,0-0.5,0-0.7,0c-1,0-2,0.1-2.9,0.2c-0.5,0-0.9,0.1-1.4,0.1
		l-0.4,0v38.8l0.4,0C7.7,51.4,8.1,51.4,8.5,51.4z M47.8,12.3c-1.3,0-2.6,0.1-3.9,0.3c-4.6,0.6-8.7,2.2-12.2,4.8
		c-0.7,0.5-0.9,1.1-0.9,1.9c0,8.7,0,20.5,0,30.2v7l0.6-0.3c5.7-3.3,12.2-4.8,20.2-4.8c0.4,0,0.8,0,1.2,0l0.4,0V12.7l-0.3-0.1
		C51.1,12.4,49.4,12.3,47.8,12.3z"/>
	
		<linearGradient id="SVGID_00000157999039984967013650000010366497444710085048_" gradientUnits="userSpaceOnUse" x1="56.1473" y1="-2.6135" x2="5.0261" y2="48.3406">
		<stop  offset="0" style="stop-color:#00BEFE"/>
		<stop  offset="1" style="stop-color:#02519B"/>
	</linearGradient>
	<path style="fill:url(#SVGID_00000157999039984967013650000010366497444710085048_);" d="M50.6,5.7C50.3,5.7,50,5.4,50,5V0.7
		C50,0.3,50.3,0,50.6,0c0.4,0,0.7,0.3,0.7,0.7V5C51.4,5.4,51.1,5.7,50.6,5.7L50.6,5.7z"/>
	
		<linearGradient id="SVGID_00000103229125370908069190000015107551834208734084_" gradientUnits="userSpaceOnUse" x1="59.9226" y1="0.1413" x2="7.0465" y2="52.8445">
		<stop  offset="0" style="stop-color:#00BEFE"/>
		<stop  offset="1" style="stop-color:#02519B"/>
	</linearGradient>
	<path style="fill:url(#SVGID_00000103229125370908069190000015107551834208734084_);" d="M55.1,5.6c-0.2,0-0.3-0.1-0.5-0.2
		c-0.2-0.2-0.2-0.3-0.2-0.5s0.1-0.3,0.2-0.5l3.1-3.1c0.1-0.1,0.3-0.2,0.5-0.2c0.2,0,0.3,0.1,0.5,0.2c0.2,0.2,0.2,0.3,0.2,0.5
		c0,0.2-0.1,0.3-0.2,0.5l-3.1,3.1C55.5,5.6,55.3,5.6,55.1,5.6z"/>
	
		<linearGradient id="SVGID_00000117642117343792515750000011548862101469813437_" gradientUnits="userSpaceOnUse" x1="50.9635" y1="-2.8948" x2="12.0539" y2="35.8877">
		<stop  offset="0" style="stop-color:#00BEFE"/>
		<stop  offset="1" style="stop-color:#02519B"/>
	</linearGradient>
	<path style="fill:url(#SVGID_00000117642117343792515750000011548862101469813437_);" d="M46.2,5.6c-0.2,0-0.3-0.1-0.5-0.2
		l-3.1-3.1c-0.1-0.1-0.2-0.3-0.2-0.5c0-0.2,0.1-0.3,0.2-0.5c0.2-0.2,0.3-0.2,0.5-0.2c0.2,0,0.3,0.1,0.5,0.2l3.1,3.1
		c0.1,0.1,0.2,0.3,0.2,0.5c0,0.2-0.1,0.3-0.2,0.5C46.5,5.6,46.4,5.6,46.2,5.6z"/>
</g>
</svg>
