<?xml version="1.0" encoding="utf-8"?>
<!-- Generator: Adobe Illustrator 26.2.1, SVG Export Plug-In . SVG Version: 6.00 Build 0)  -->
<svg version="1.1" id="Layer_1" xmlns="http://www.w3.org/2000/svg" xmlns:xlink="http://www.w3.org/1999/xlink" x="0px" y="0px"
	 viewBox="0 0 60 60" style="enable-background:new 0 0 60 60;" xml:space="preserve">
<style type="text/css">
	.st0{fill:url(#SVGID_1_);}
	.st1{fill:url(#SVGID_00000134221654685081698100000015542844584516371638_);}
	.st2{fill:url(#SVGID_00000152240959866948006610000002454162095481972660_);}
	.st3{fill:url(#SVGID_00000181783516919673042710000003702882078722145939_);}
	.st4{fill:url(#SVGID_00000133531535882436789280000007408446449084864403_);}
	.st5{fill:url(#SVGID_00000057832808370902405740000015036638754309073554_);}
	.st6{fill:url(#SVGID_00000005226701709792278220000008734590715902282168_);}
</style>
<g>
	<linearGradient id="SVGID_1_" gradientUnits="userSpaceOnUse" x1="60.2894" y1="-0.4252" x2="0.4925" y2="59.634">
		<stop  offset="0" style="stop-color:#00BEFE"/>
		<stop  offset="1" style="stop-color:#02519B"/>
	</linearGradient>
	<path class="st0" d="M29.9,60c-7.1,0-13.5-2.3-18.9-6.8C5,48.3,1.4,42.1,0.4,34.7C-1.1,24.2,2,15.2,9.7,7.9
		c0.4-0.4,0.9-0.8,1.4-1.2c0.2-0.2,0.4-0.2,0.6-0.2c0.2,0,0.3,0.1,0.5,0.2c0.4,0.5-0.1,0.9-0.2,1c-2.5,2-4.5,4.3-6.1,6.8
		c-2.5,3.8-3.9,8-4.4,12.4c-0.8,8.3,1.4,15.6,6.7,21.7c4.7,5.5,10.6,8.8,17.7,9.8c1.5,0.2,2.9,0.3,4.4,0.3c5.5,0,10.7-1.6,15.3-4.6
		c7-4.6,11.2-11,12.6-19.1c1.2-6.9,0-13.4-3.4-19.3C51.2,9.5,46,5.2,39.3,2.9c-2.9-1-6-1.5-9.2-1.5C25,1.4,20.3,2.6,16,5l-0.1,0.1
		c-0.1,0.1-0.2,0.1-0.4,0.2c-0.2,0.1-0.3,0.1-0.5,0.1c-0.2,0-0.4-0.1-0.5-0.3c-0.3-0.5,0.1-0.8,0.3-0.9c0.9-0.6,2-1.1,3.2-1.6
		C21.8,0.8,25.8,0,29.9,0c0.7,0,1.4,0,2.2,0.1c13,0.9,23.8,10,27,22.5c0.7,2.6,1,5,0.9,7.4c-0.5,12.1-6,21.1-16.5,26.8
		c-3.2,1.7-6.8,2.7-10.7,3.1C31.8,60,30.8,60,29.9,60z"/>
	
		<linearGradient id="SVGID_00000016792420699549417430000005161924243452082354_" gradientUnits="userSpaceOnUse" x1="60.2853" y1="-0.4292" x2="0.4885" y2="59.6299">
		<stop  offset="0" style="stop-color:#00BEFE"/>
		<stop  offset="1" style="stop-color:#02519B"/>
	</linearGradient>
	<path style="fill:url(#SVGID_00000016792420699549417430000005161924243452082354_);" d="M29.9,56.2c-3.7,0-7.4-0.8-10.9-2.4
		c-0.4-0.2-0.6-0.3-0.7-0.7c0-0.2,0-0.4,0.1-0.5c0.1-0.1,0.3-0.2,0.5-0.2c0.1,0,0.3,0,0.4,0.1c1.1,0.5,2.4,1,3.8,1.4
		c2.3,0.6,4.5,0.9,6.8,0.9c12,0,22.3-8.6,24.4-20.4c2.2-12.3-4.7-24.1-16.6-28c-2.4-0.8-4.9-1.3-7.1-1.3l-0.7,0
		c-12.2,0-22.7,8.9-24.6,20.7c-1.5,9.8,1.8,18,9.9,24.3l0.2,0.2c0.1,0.1,0.2,0.1,0.3,0.2c0.3,0.2,0.5,0.6,0.2,1
		c-0.1,0.2-0.3,0.3-0.5,0.3c-0.1,0-0.3,0-0.4-0.1c-0.7-0.5-1.4-1-2.1-1.6c-5.2-4.5-8.2-10-9-16.5C3,25.1,5.4,17.7,11.3,11.6
		c4.2-4.3,9.3-6.8,15.2-7.6c1.2-0.2,2.5-0.2,3.7-0.2c6.8,0,12.8,2.5,17.9,7.3c4.4,4.2,7.1,9.4,7.8,15.5c1,8.4-1.4,15.8-7.3,21.8
		c-4.1,4.2-9.3,6.8-15.2,7.6C32.2,56.1,31,56.2,29.9,56.2z"/>
	
		<linearGradient id="SVGID_00000098195613637848799840000003315520473268081039_" gradientUnits="userSpaceOnUse" x1="63.1564" y1="2.4293" x2="3.3596" y2="62.4883">
		<stop  offset="0" style="stop-color:#00BEFE"/>
		<stop  offset="1" style="stop-color:#02519B"/>
	</linearGradient>
	<path style="fill:url(#SVGID_00000098195613637848799840000003315520473268081039_);" d="M30,45.6c-0.2,0-0.4-0.1-0.6-0.3
		c-3-3-5.9-5.9-8.9-8.9c-0.4-0.4-0.4-0.8,0-1.2c1-1,2-2,3-3c0.4-0.4,0.6-0.4,0.6-0.4s0.3,0,0.6,0.4l0.1,0.1c1.5,1.5,3,2.9,4.4,4.4
		c0.2,0.2,0.4,0.3,0.6,0.3c0.3,0,0.5-0.2,0.6-0.3c1.1-1.2,2.3-2.3,3.5-3.5l1-1c0.4-0.4,0.6-0.5,0.7-0.5c0.1,0,0.3,0,0.7,0.4
		c0.6,0.6,1.3,1.3,1.9,1.9l1,1c0.3,0.3,0.4,0.5,0.4,0.7c0,0.2-0.1,0.4-0.3,0.6l-2.2,2.2c-2.2,2.2-4.4,4.4-6.7,6.7
		C30.4,45.5,30.2,45.6,30,45.6z M24.2,33.6c-0.3,0-0.5,0.2-0.6,0.3c-0.4,0.4-0.8,0.9-1.3,1.3c-0.1,0.1-0.3,0.3-0.3,0.6
		c0,0.3,0.2,0.5,0.3,0.5c1.7,1.7,3.4,3.4,5.1,5.1l2.1,2.1c0.1,0.1,0.2,0.2,0.3,0.3l0.3,0.1l0.2-0.2c0.1-0.1,0.2-0.1,0.2-0.2l2.2-2.2
		c1.6-1.6,3.3-3.3,4.9-4.9c0.1-0.1,0.3-0.3,0.3-0.6c0-0.3-0.2-0.4-0.3-0.6c-0.4-0.4-0.8-0.7-1.1-1.1c-0.2-0.2-0.4-0.4-0.7-0.4
		c-0.3,0-0.5,0.2-0.7,0.4c-1,1-2,2.1-3.1,3.1l-1.1,1.1c-0.5,0.5-0.7,0.7-0.9,0.7c-0.2,0-0.4-0.2-0.9-0.6L28,37.1
		c-1.1-1.1-2.1-2.1-3.2-3.2C24.6,33.8,24.4,33.6,24.2,33.6z"/>
	
		<linearGradient id="SVGID_00000000935761948668960030000010746876767922066326_" gradientUnits="userSpaceOnUse" x1="57.4163" y1="-3.2855" x2="-2.3804" y2="56.7735">
		<stop  offset="0" style="stop-color:#00BEFE"/>
		<stop  offset="1" style="stop-color:#02519B"/>
	</linearGradient>
	<path style="fill:url(#SVGID_00000000935761948668960030000010746876767922066326_);" d="M35.8,28.3c-0.1,0-0.3,0-0.6-0.3l-0.5-0.4
		c-1.4-1.4-2.7-2.7-4.1-4.1c-0.2-0.2-0.4-0.4-0.7-0.4c-0.3,0-0.5,0.2-0.7,0.4c-1.1,1.2-2.3,2.3-3.4,3.5l-1,1
		c-0.4,0.4-0.6,0.5-0.7,0.5c-0.1,0-0.3,0-0.7-0.4c-1-1-1.9-1.9-2.9-2.9c-0.6-0.6-0.6-0.9,0-1.4l8.7-8.7c0.3-0.3,0.4-0.4,0.7-0.4
		c0.2,0,0.3,0,0.6,0.3l1.6,1.6c2.5,2.5,4.9,4.9,7.4,7.4c0.4,0.4,0.4,0.7,0,1.1c-1,1.1-2.1,2.1-3.2,3.2
		C36.1,28.2,35.9,28.3,35.8,28.3z M30,21.2c0.1,0,0.3,0.1,0.8,0.5l4.3,4.3l0.1,0.1c0.1,0.1,0.3,0.3,0.5,0.3l0.3,0.1l0.2-0.3
		c0,0,0.6-0.6,0.6-0.6c0.3-0.3,0.6-0.6,0.9-0.9c0.2-0.2,0.3-0.3,0.3-0.5c0-0.3-0.2-0.4-0.3-0.6c-2.4-2.4-4.8-4.7-7.1-7.1
		c-0.2-0.2-0.3-0.3-0.6-0.3c-0.2,0-0.4,0.2-0.5,0.3c-2.4,2.4-4.8,4.8-7.2,7.2C22.2,23.8,22,24,22,24.3c0,0.2,0.2,0.4,0.3,0.5
		c0.4,0.4,0.8,0.8,1.2,1.2c0.1,0.2,0.3,0.4,0.6,0.4c0.3,0,0.5-0.2,0.7-0.4c1.2-1.2,2.4-2.4,3.5-3.6l0.8-0.8
		C29.6,21.2,29.9,21.2,30,21.2z"/>
	
		<linearGradient id="SVGID_00000045577684379060237470000017468685074165880241_" gradientUnits="userSpaceOnUse" x1="60.2868" y1="-0.4275" x2="0.4901" y2="59.6313">
		<stop  offset="0" style="stop-color:#00BEFE"/>
		<stop  offset="1" style="stop-color:#02519B"/>
	</linearGradient>
	<path style="fill:url(#SVGID_00000045577684379060237470000017468685074165880241_);" d="M30,34.1c-0.1,0-0.3,0-0.6-0.4
		c-1-1-2-2-3-3c-0.5-0.5-0.5-0.8,0-1.4c0.5-0.6,3-3,3-3c0.2-0.2,0.4-0.3,0.7-0.4c0.2,0,0.4,0.1,0.6,0.3l1,1c0.7,0.7,1.4,1.4,2,2
		c0.5,0.5,0.5,0.8,0,1.3c-1,1-2,2.1-3.1,3.1C30.4,34,30.2,34.1,30,34.1z M29.8,27.9c-0.1,0-0.2,0.1-0.2,0.2L28,29.5
		c-0.1,0.1-0.2,0.3-0.2,0.5c0,0.2,0.2,0.4,0.3,0.5c0.5,0.5,1,0.9,1.4,1.4c0.1,0.1,0.3,0.3,0.5,0.3c0.2,0,0.4-0.1,0.5-0.3
		c0.5-0.5,0.9-0.9,1.4-1.4c0.1-0.1,0.3-0.3,0.3-0.5c0-0.3-0.2-0.4-0.3-0.6c-0.3-0.3-0.6-0.6-0.9-0.9l-0.5-0.5
		c-0.1-0.1-0.2-0.2-0.4-0.3l-0.2,0L29.8,27.9z"/>
	
		<linearGradient id="SVGID_00000028322380885106394020000016612663776696980896_" gradientUnits="userSpaceOnUse" x1="54.4813" y1="-6.2074" x2="-5.3152" y2="53.8514">
		<stop  offset="0" style="stop-color:#00BEFE"/>
		<stop  offset="1" style="stop-color:#02519B"/>
	</linearGradient>
	<path style="fill:url(#SVGID_00000028322380885106394020000016612663776696980896_);" d="M22.3,29.5l-3.3-3.3c-0.3-0.3-0.7-0.3-1,0
		l-3.3,3.3c-0.3,0.3-0.3,0.7,0,1l3.3,3.3c0.3,0.3,0.7,0.3,1,0l3.3-3.3C22.5,30.2,22.5,29.8,22.3,29.5z M20.4,30.5l-1.4,1.4
		c-0.3,0.3-0.7,0.3-1,0l-1.4-1.4c-0.3-0.3-0.3-0.7,0-1l1.4-1.4c0.3-0.3,0.7-0.3,1,0l1.4,1.4C20.6,29.8,20.6,30.2,20.4,30.5z"/>
	
		<linearGradient id="SVGID_00000142174421589864889630000006668806539374355330_" gradientUnits="userSpaceOnUse" x1="66.0705" y1="5.3308" x2="6.274" y2="65.3896">
		<stop  offset="0" style="stop-color:#00BEFE"/>
		<stop  offset="1" style="stop-color:#02519B"/>
	</linearGradient>
	<path style="fill:url(#SVGID_00000142174421589864889630000006668806539374355330_);" d="M45.3,29.5L42,26.2c-0.3-0.3-0.7-0.3-1,0
		l-3.3,3.3c-0.3,0.3-0.3,0.7,0,1l3.3,3.3c0.3,0.3,0.7,0.3,1,0l3.3-3.3C45.6,30.2,45.6,29.8,45.3,29.5z M43.4,30.5L42,31.9
		c-0.3,0.3-0.7,0.3-1,0l-1.4-1.4c-0.3-0.3-0.3-0.7,0-1l1.4-1.4c0.3-0.3,0.7-0.3,1,0l1.4,1.4C43.7,29.8,43.7,30.2,43.4,30.5z"/>
</g>
</svg>
