<?xml version="1.0" encoding="utf-8"?>
<!-- Generator: Adobe Illustrator 26.2.1, SVG Export Plug-In . SVG Version: 6.00 Build 0)  -->
<svg version="1.1" id="Layer_1" xmlns="http://www.w3.org/2000/svg" xmlns:xlink="http://www.w3.org/1999/xlink" x="0px" y="0px"
	 viewBox="0 0 60 60" style="enable-background:new 0 0 60 60;" xml:space="preserve">
<style type="text/css">
	.st0{fill:url(#SVGID_1_);}
</style>
<g>
	<linearGradient id="SVGID_1_" gradientUnits="userSpaceOnUse" x1="59.3421" y1="-0.8446" x2="-0.2253" y2="59.1108">
		<stop  offset="0" style="stop-color:#00BEFE"/>
		<stop  offset="1" style="stop-color:#02519B"/>
	</linearGradient>
	<path class="st0" d="M29.6,60c-1,0-2,0-3-0.1c-6.1-0.2-11.4-1.1-16.2-2.6c-2.9-0.9-4.9-2-6.7-3.4c-1.7-1.4-2.5-3.1-2.4-5.1
		c0.1-1.6,0-3.2,0-4.8l0-0.3c0-0.9,0-1.7,0-2.6c0-1.5,0.7-2.8,2.2-4.1c0.5-0.4,0.9-1,0.5-1.9c-0.1-0.3-0.1-0.7-0.1-1l0-3.3
		c0-1.8,0-3.7,0-5.5c0-0.5-0.4-1-0.5-1.1c-0.3-0.3-0.6-0.6-1-1l-0.1-0.1c-0.5-0.5-1.1-1.1-1.6-1.6C0.3,20.8,0,19.9,0,18.8
		c0-0.7,0-1.5,0-2.2l0-0.2c0-1.6,0.1-3.3,0-5c-0.2-3.2,1.7-4.9,3.7-6.2c3-2,6.4-2.9,9.6-3.6c4.4-1,9.1-1.5,14.8-1.5
		c7.4,0.1,13.4,0.9,18.8,2.7c2.9,0.9,4.9,2,6.7,3.4c1.8,1.4,2.5,3.1,2.5,5.2C56,13.5,56,15.8,56,18l0,1.5c0,0.4,0.3,0.9,0.5,1.1
		c0.2,0.2,0.5,0.4,0.8,0.6c0.2,0.2,0.5,0.4,0.7,0.6c1.4,1.3,2,2.8,2,4.5c0,1.9-0.1,4.5,0,7c0.1,2-0.7,3.7-2.2,5
		c-0.4,0.3-0.8,0.8-0.5,1.7c0.1,0.4,0.1,0.9,0.1,1.4c0,0.8,0,1.7,0,2.5l0,0.2c0,1.5,0,3,0,4.6c0.1,1.9-0.6,3.4-2.1,4.7
		c-1.8,1.6-3.9,2.7-7,3.7C42.7,59.1,36.5,60,29.6,60z M26.2,58.3h6.3v-6.7h-6.3V58.3z M38.6,51.1c-0.9,0.1-1.7,0.2-2.5,0.3
		c-1.9,0.2-2.1,0.4-2.1,2.4v4.5l1.6-0.2c1.4-0.2,2.7-0.3,3.9-0.5c0.4-0.1,0.8-0.6,0.8-0.9c0-1.4,0-2.7,0-4.1l0-1.7L38.6,51.1z
		 M18.4,53c0,1.3,0,2.5,0,3.7c0,0.4,0.3,1,0.8,1c1.3,0.2,2.6,0.3,3.9,0.5l1.6,0.2v-6.7l-6.3-0.6L18.4,53z M46.2,49.6
		c-0.9,0.2-1.7,0.4-2.5,0.6c-1.8,0.4-2,0.7-2,2.6v4.6l2-0.5c0.8-0.2,1.6-0.4,2.3-0.6c1.9-0.5,2-0.8,2-2.8v-4.4L46.2,49.6z
		 M10.6,49.8l0,0.2c0,1.2,0,2.2,0,3.3c0,2.2,0.2,2.5,2.2,3c0.8,0.2,1.5,0.4,2.3,0.6l1.9,0.4l0-1.9c0-1.4,0-2.7,0-4
		c0-0.3-0.3-0.9-0.7-1c-1.2-0.3-2.5-0.6-3.7-0.9l-1.6-0.4L10.6,49.8z M55.1,45.7l-1.4,0.7c-1.1,0.6-2.3,1.2-3.4,1.8
		c-0.3,0.2-0.6,0.6-0.6,1c0,1.2,0,2.5,0,3.8l0,2.3c0,0,1.6-1,2-1.2c0.8-0.4,1.5-0.9,2.1-1.3c1.7-1.2,2.5-2.8,2.2-4.8
		c0-0.3,0-0.6,0-0.9c0-0.2,0-0.4,0-0.6c0-0.2,0-0.3,0-0.4l-0.1-0.7L55.1,45.7z M2.8,47.2c0,0.9,0,1.7,0,2.6c0,0.5,0.2,1.1,0.6,1.6
		c1.2,1.7,2.9,2.6,4.9,3.5l0.8,0.4l0-2.2c0-1.3,0-2.5,0-3.7c0-0.5-0.5-0.8-0.8-1c-0.5-0.3-1.1-0.6-1.6-0.8c-0.6-0.3-1.2-0.6-1.8-0.9
		c-0.3-0.1-0.5-0.3-0.8-0.5c-0.2-0.1-0.3-0.2-0.5-0.3L2.8,45C2.8,45,2.8,46.8,2.8,47.2z M4.1,38.3c-0.2,0.3-0.4,0.6-0.6,0.8
		c-1.1,1.4-1,2.9,0.1,4.1c0.8,0.9,1.7,1.6,2.6,2.2c3.5,2.1,7.3,3,10.6,3.6c4,0.7,8.1,1.1,12.3,1.1c2.9,0,5.9-0.2,8.9-0.5
		c5.3-0.6,9.4-1.7,13-3.4c1.5-0.7,3-1.5,4.1-3c0.4-0.5,0.9-1.3,0.7-2.3l-0.1-0.4l-0.4-0.1c-0.1,0-0.2,0-0.3,0h-0.1l-0.1,0l-0.5,0.3
		c-0.3,0.2-0.6,0.3-0.8,0.4c-3.3,1.4-7.1,2.4-11.5,3c-3.5,0.5-6.9,0.7-10.3,0.7c-4.6,0-9.1-0.4-13.5-1.3c-4.1-0.8-8.9-2-13-5.7
		l-0.5-0.4L4.1,38.3z M28.8,38c0,1.4,0,2.7,0,4.1c0,0.4,0.4,0.9,0.9,1c1,0,2,0,3.1,0l2.4,0v-6.7h-6.3L28.8,38z M41.2,35.8
		c-1.3,0.1-2.5,0.2-3.8,0.4c-0.4,0-0.8,0.5-0.8,0.9c0,1.4,0,2.8,0,4.3V43l1.7-0.2c1.3-0.2,2.6-0.3,3.8-0.5c0.5-0.1,0.8-0.8,0.8-1.1
		c0-0.6,0-1.3,0-2l0-3.6L41.2,35.8z M21,40.5c0,1.5,0.2,1.8,1.7,2c0.9,0.1,1.8,0.2,2.7,0.3l1.9,0.2v-6.7L21,35.6V40.5z M48.8,34.3
		c-1.3,0.3-2.5,0.6-3.7,0.9c-0.4,0.1-0.7,0.6-0.7,1c0,1.3,0,2.6,0,4l0,2l1.7-0.5c1.4-0.4,2.7-0.7,4-1.1c0.3-0.1,0.7-0.5,0.7-0.9
		c0-1.4,0-2.8,0-4.2v-1.7L48.8,34.3z M13.2,35.7c0,1.3,0,2.6,0,3.9c0,0.5,0.5,0.9,0.9,1c1,0.3,2,0.6,3,0.8l0.3,0.1
		c0.3,0.1,0.5,0.1,0.8,0.2l1.3,0.3l0-2.1c0-1.3,0-2.6,0-3.8c0-0.4-0.4-0.9-0.8-1c-1.2-0.3-2.4-0.6-3.6-0.9l-1.9-0.4L13.2,35.7z
		 M5.4,31.9c0,0.6,0,1.3,0,1.9c0,1,0.3,1.8,0.8,2.4c0.5,0.6,1,1.1,1.5,1.5c0.7,0.5,1.4,0.9,2.2,1.3c0.4,0.2,0.7,0.4,1,0.6l0.9,0.5
		v-1c0-0.4,0-0.9,0-1.2c0-0.8,0-1.5,0-2.2c0.2-1.7-0.4-2.7-1.9-3.2c-0.8-0.3-1.6-0.8-2.4-1.3c-0.4-0.2-0.8-0.5-1.2-0.7l-0.9-0.5
		L5.4,31.9z M56.4,31.1c-1.2,0.6-2.4,1.3-3.6,1.9c-0.4,0.2-0.6,0.7-0.6,1c0,1.2,0,2.5,0,3.8l0,2.2l1.8-1c0.6-0.3,1.2-0.7,1.8-1.1
		c2.6-1.7,3.5-4,2.7-7.1l-0.2-0.7L56.4,31.1z M5.5,26.7c0.1,0.3,0.2,0.5,0.3,0.7c0.8,1.3,1.9,2.1,3.1,2.7c3.6,2,7.4,2.9,10.4,3.5
		c4.1,0.7,8.2,1.1,12.5,1.1c3.1,0,6.3-0.2,9.5-0.6c5-0.6,8.9-1.7,12.4-3.3c1.5-0.7,3-1.6,4.1-3c0.8-1.1,1-2.2,0.4-3.2
		c-0.5-1-1.3-1.8-2.4-2.4l-0.3-0.2l-0.3,0.2c-0.4,0.3-0.9,0.6-1.3,1c-0.9,0.7-1.7,1.3-2.6,1.8c-4,2.2-8.3,3.1-12.1,3.7
		c-3.7,0.6-7.5,0.9-11.2,0.9c-1.6,0-3.3-0.1-4.9-0.2c-5.4-0.4-9.8-1.1-13.8-2.5c-0.7-0.2-1.4-0.5-2.1-0.8c-0.3-0.1-2.3-0.9-2.3-0.9
		L5.5,26.7z M24.9,27.8h6.3v-6.7h-6.3V27.8z M17.1,22.3c0,1.3,0,2.6,0,3.8c0,0.4,0.4,0.9,0.8,1c1.2,0.2,2.5,0.3,3.8,0.5l1.7,0.2
		l0-1.8c0-1.4,0-2.8,0-4.1c0-0.4-0.4-0.9-0.8-0.9c-1.3-0.1-2.5-0.3-3.8-0.4l-1.7-0.2L17.1,22.3z M32.7,21v6.7L39,27v-6.7L32.7,21z
		 M45.2,19c-1.3,0.3-2.6,0.6-3.9,0.9c-0.4,0.1-0.7,0.5-0.7,0.9c0,1.3,0,2.5,0,3.8l0,2.2l1.6-0.4c1.4-0.4,2.7-0.7,4.1-1.1
		c0.4-0.1,0.6-0.6,0.6-0.9c0-1.4,0-2.7,0-4.1v-1.7L45.2,19z M9.2,20.4c0,1.4,0,2.7,0,4c0,0.3,0.3,0.8,0.7,0.9c1.3,0.4,2.7,0.7,4,1.1
		l1.3,0.4l0.3-0.6c0-0.1,0.1-0.2,0.1-0.4c0-1.2,0-2.3,0-3.4c0-2.1-0.2-2.4-2.1-2.8c-0.8-0.2-1.6-0.4-2.4-0.6l-1.8-0.5L9.2,20.4z
		 M1.5,16.6c0,0.9,0,1.8,0,2.6c0,0.5,0.3,1,0.5,1.3c1.3,1.9,3.1,2.8,5,3.7l0.8,0.4v-5c0-1.4-0.1-1.6-1.4-2.2
		c-0.3-0.1-0.5-0.2-0.8-0.4c-0.8-0.5-1.6-0.9-2.5-1.4l-1.7-1L1.5,16.6z M52.4,15.9c-0.9,0.5-1.7,1-2.6,1.4l-0.1,0.1
		c-1.3,0.7-1.4,0.9-1.4,2.5v4.7l0.8-0.4c1.9-0.8,3.4-1.7,4.6-3.1c0.5-0.6,0.8-1.3,0.9-2c0.1-0.9,0.1-1.7,0.1-2.5c0-0.3,0-0.7,0-1v-1
		L52.4,15.9z M28.1,1.6c-3,0-6,0.2-9.1,0.6C13.7,2.8,9.8,3.9,6.3,5.6c-1.5,0.7-3,1.6-4.1,3c-1,1.3-1,2.6,0,3.9
		c0.5,0.6,1.1,1.2,1.7,1.6c2.4,1.7,5,2.6,7.6,3.3c4.9,1.4,10.1,2,18.1,2.1c0.5,0,1.1-0.1,1.7-0.1c1.8-0.1,4.2-0.3,6.6-0.6
		c4.6-0.5,8.5-1.6,12-3.3c1.4-0.7,2.9-1.5,4-2.9c1.1-1.4,1.1-2.8,0-4.1c-0.8-0.8-1.6-1.6-2.6-2.2c-3.5-2.1-7.3-3-10.5-3.6
		C36.6,2,32.3,1.6,28.1,1.6z"/>
</g>
</svg>
