<?xml version="1.0" encoding="utf-8"?>
<!-- Generator: Adobe Illustrator 26.2.1, SVG Export Plug-In . SVG Version: 6.00 Build 0)  -->
<svg version="1.1" id="Layer_1" xmlns="http://www.w3.org/2000/svg" xmlns:xlink="http://www.w3.org/1999/xlink" x="0px" y="0px"
	 viewBox="0 0 60 60" style="enable-background:new 0 0 60 60;" xml:space="preserve">
<style type="text/css">
	.st0{fill:url(#SVGID_1_);}
	.st1{fill:url(#SVGID_00000173849059233779657360000016515702767744845979_);}
	.st2{fill:url(#SVGID_00000060737921749512232380000007490623956533180341_);}
	.st3{fill:url(#SVGID_00000180366298841485765490000002756137633212354202_);}
	.st4{fill:url(#SVGID_00000071539750478342344100000004807892335562585756_);}
	.st5{fill:url(#SVGID_00000016785395482692189330000017120477690121527218_);}
	.st6{fill:url(#SVGID_00000075120869978559011820000000417370345054373011_);}
	.st7{fill:url(#SVGID_00000164499086412921455870000006522645859514790308_);}
	.st8{fill:url(#SVGID_00000041259163654482688890000007425787320707294371_);}
	.st9{fill:url(#SVGID_00000132802113483970861620000012602167013351891863_);}
</style>
<g>
	<linearGradient id="SVGID_1_" gradientUnits="userSpaceOnUse" x1="57.6353" y1="-2.2077" x2="-1.0388" y2="56.6594">
		<stop  offset="0" style="stop-color:#00BEFE"/>
		<stop  offset="1" style="stop-color:#02519B"/>
	</linearGradient>
	<path class="st0" d="M59.6,37c-1.2-8-5.8-13.4-13.6-16.1c-0.2-0.1-0.3-0.1-0.4-0.2c-0.5-0.3-0.7-0.7-0.9-1.3l-0.2-0.7l2.7,0
		c0.4,0,0.8,0,1.2,0c1.2,0,2.2-0.4,3.1-1.2c1.6-1.4,2.2-3.5,1.5-5.6s-2.5-3.3-4.6-3.3c-1.2,0-2.5,0-3.7,0h-6.6l0.7-1.3
		c0.8-1.6,0.8-3.5-0.2-5C37.4,0.9,35.9,0,34.2,0C29.8,0,25.4,0,21,0C15.8,0,10.6,0,5.3,0H4.9C2.8,0,0.9,1.4,0.3,3.4
		C0.2,3.7,0.1,3.9,0.1,4.1L0,4.4v1.3c0,0.1,0.1,0.2,0.1,0.3c0.6,2.7,2.5,4.2,5.2,4.2h8.5c0.1,0,0.3,0,0.5,0l1,0.1l-0.4,0.7
		c-1.1,1.9-1.1,3.8,0,5.7l0.4,0.7l-2.8,0c-0.4,0-0.8,0-1.2,0c-2,0.1-3.8,1.3-4.5,3.2c-0.7,2-0.3,3.8,1.1,5.4c0,0,0.1,0.1,0.2,0.1
		c0.1,0,0.1,0.1,0.2,0.1l0.5,0.3L8.4,27c-1.4,1.2-2,2.5-2,4.1c0,1.5,0.6,2.8,1.9,3.9l0.4,0.4l-0.4,0.4c-1.3,1.1-1.9,2.4-1.9,4
		c0,1.5,0.6,2.8,1.9,3.9L8.7,44l-0.4,0.4c-1.2,1-1.8,2.2-1.9,3.6c-0.1,1.4,0.4,2.8,1.4,3.8c0.9,1,2.2,1.5,3.6,1.6c1.9,0,3.7,0,5.6,0
		c2.6,0,5.2,0,7.8,0c0.1,0,0.2,0,0.4,0c0.4,0.1,0.7,0.2,1.1,0.6c4,3.9,8.6,5.9,13.7,5.9c1.3,0,2.7-0.1,4.2-0.4
		C54.3,57.4,61.2,47.6,59.6,37z M48,10.1c1.6,0,2.9,0.9,3.4,2.4c0.5,1.4,0.1,2.9-1,3.9c-0.7,0.6-1.5,0.9-2.6,0.9H24
		c-1.7,0-3.3,0-4.9,0c-1.2,0-2.2-0.5-2.9-1.4c-0.7-0.9-0.9-2.1-0.6-3.2c0.5-1.6,1.9-2.6,3.6-2.6C19.1,10.1,45.9,10.1,48,10.1z
		 M5.1,8.7c-1.2,0-2.3-0.5-2.9-1.4C1.4,6.3,1.2,5.2,1.5,4C2,2.5,3.4,1.4,5,1.4c0.9,0,1.7,0,2.6,0l26.3,0c2,0,3.7,1.5,3.7,3.4
		c0,1-0.3,2-1,2.7C36,8.3,35,8.7,34,8.7H19.5C19.5,8.7,7,8.7,5.1,8.7z M8.5,24.5c-0.7-0.9-0.9-2-0.6-3.2c0.4-1.5,1.8-2.6,3.4-2.6
		c0.7,0,1.4,0,2.1,0c0,0,21.9,0,26.6,0c0.3,0,0.6,0,0.9,0.1l0.4,0l0.5,0L41.8,20v0.1h-0.5c-0.3,0-0.6,0-1,0c-0.3,0-0.6,0-0.9,0
		c-0.4,0-0.7,0-1.1,0c-4.4,0.4-8.4,2.2-11.7,5.3c-0.3,0.3-0.6,0.5-1,0.5c-0.1,0-0.3,0-0.4,0c-2.1,0-4.2,0-6.4,0c0,0-5.7,0-7.4,0
		C10.3,26,9.2,25.4,8.5,24.5z M7.8,31c0-1.9,1.5-3.5,3.4-3.6c1.6,0,3.2,0,4.8,0c1.4,0,8,0,8.3,0c0,0,0,0,0,0l-0.2,0.4l-0.1,0.6h-0.2
		l-3,6.2h-0.2l-5.6,0c-1.3,0-2.6,0-3.9,0C9.3,34.6,7.8,32.9,7.8,31z M7.8,39.7c0-1,0.4-1.9,1.1-2.6c0.7-0.7,1.6-1,2.6-1h8.1
		c0.1,0,0.3,0,0.4,0l0.2,0l0.2,0v7.2h-9C9.4,43.3,7.8,41.7,7.8,39.7z M16.3,51.9c-1.6,0-3.2,0-4.9,0c-1.2,0-2.4-0.6-3-1.6
		c-0.7-1-0.8-2.2-0.3-3.4c0.6-1.4,1.7-2.2,3.1-2.2c1.3,0,2.7,0,4,0l5.3,0h0.2l3.3,7.2H16.3z M40,58.6c-10.3,0-18.7-8.4-18.7-18.7
		S29.7,21.3,40,21.3c10.3,0,18.7,8.4,18.7,18.7S50.3,58.6,40,58.6z"/>
	
		<linearGradient id="SVGID_00000072969170786840448650000001791058227726616978_" gradientUnits="userSpaceOnUse" x1="71.6995" y1="14.4892" x2="16.6481" y2="69.7217">
		<stop  offset="0" style="stop-color:#00BEFE"/>
		<stop  offset="1" style="stop-color:#02519B"/>
	</linearGradient>
	<path style="fill:url(#SVGID_00000072969170786840448650000001791058227726616978_);" d="M52.7,47.4c-0.1,0-0.1,0-0.2,0
		C52.2,47.3,52,47,52,46.7c0-0.2,0.1-0.5,0.2-0.7c1.8-3.8,1.9-7.7,0.3-11.5c-1.2-2.9-3.3-5.2-6.1-6.7l-0.4-0.2
		c-0.3-0.2-0.7-0.5-0.4-1c0.1-0.3,0.3-0.4,0.6-0.4c0.1,0,0.3,0,0.4,0.1l0.4,0.2c0.9,0.6,1.9,1.1,2.7,1.8c3.4,2.9,5.2,6.7,5.3,11.1
		c0,2.8-0.6,5.2-1.7,7.4C53.1,47.4,52.8,47.4,52.7,47.4z"/>
	
		<linearGradient id="SVGID_00000121959710218527997010000017775113560004737963_" gradientUnits="userSpaceOnUse" x1="64.441" y1="9.2252" x2="9.3819" y2="64.4655">
		<stop  offset="0" style="stop-color:#00BEFE"/>
		<stop  offset="1" style="stop-color:#02519B"/>
	</linearGradient>
	<path style="fill:url(#SVGID_00000121959710218527997010000017775113560004737963_);" d="M34,53.6c-0.2,0-0.3,0-0.5-0.1
		c-1.5-0.8-2.9-1.8-4.1-3c-4.5-4.6-5.5-11.6-2.7-17.4c0.3-0.5,0.5-0.6,0.7-0.6c0.3,0,0.4,0.1,0.6,0.3c0.1,0.2,0.2,0.5,0,0.8
		l-0.3,0.7c-0.3,0.9-0.7,1.8-0.9,2.7c-1.3,5.8,1.5,12.1,6.7,14.9c0,0,0.4,0.2,0.6,0.3c0.2,0.1,0.7,0.5,0.4,1.1
		C34.4,53.5,34.2,53.6,34,53.6z"/>
	
		<linearGradient id="SVGID_00000129912607056756571890000003756701399089036944_" gradientUnits="userSpaceOnUse" x1="55.1856" y1="12.1812" x2="19.5233" y2="47.9608">
		<stop  offset="0" style="stop-color:#00BEFE"/>
		<stop  offset="1" style="stop-color:#02519B"/>
	</linearGradient>
	<path style="fill:url(#SVGID_00000129912607056756571890000003756701399089036944_);" d="M41.9,26.2c-0.2,0-0.4-0.1-0.5-0.2
		c-0.1-0.1-0.2-0.3-0.2-0.5c0-0.4,0.3-0.7,0.7-0.7c0.2,0,0.4,0.1,0.5,0.2c0.1,0.1,0.2,0.3,0.2,0.5C42.7,25.9,42.3,26.2,41.9,26.2
		L41.9,26.2z"/>
	
		<linearGradient id="SVGID_00000011739895672898942790000012205776229718350729_" gradientUnits="userSpaceOnUse" x1="61.2708" y1="31.2711" x2="25.5862" y2="67.0731">
		<stop  offset="0" style="stop-color:#00BEFE"/>
		<stop  offset="1" style="stop-color:#02519B"/>
	</linearGradient>
	<path style="fill:url(#SVGID_00000011739895672898942790000012205776229718350729_);" d="M38.3,55c-0.2,0-0.4-0.1-0.5-0.2
		c-0.1-0.1-0.2-0.3-0.2-0.5c0-0.4,0.3-0.7,0.7-0.7c0.2,0,0.4,0.1,0.5,0.2C39,54,39,54.1,39,54.3C39,54.7,38.7,55,38.3,55L38.3,55z"
		/>
	
		<linearGradient id="SVGID_00000170250800384744333630000010479172862993294777_" gradientUnits="userSpaceOnUse" x1="19.9342" y1="39.9439" x2="60" y2="39.9439">
		<stop  offset="0" style="stop-color:#00BEFE"/>
		<stop  offset="1" style="stop-color:#02519B"/>
	</linearGradient>
	<path style="fill:url(#SVGID_00000170250800384744333630000010479172862993294777_);" d="M40,19.9c-11.1,0-20,9-20,20.1
		S28.9,60,40,60s20-9,20-20.1S51,19.9,40,19.9z M40,58.6c-10.3,0-18.7-8.4-18.7-18.7c0-10.3,8.4-18.7,18.7-18.7
		c10.3,0,18.7,8.4,18.7,18.7C58.6,50.3,50.3,58.6,40,58.6z"/>
	
		<linearGradient id="SVGID_00000069390674502667195440000011328263790438969747_" gradientUnits="userSpaceOnUse" x1="66.4859" y1="10.5858" x2="-16.2242" y2="93.118">
		<stop  offset="0" style="stop-color:#00BEFE"/>
		<stop  offset="1" style="stop-color:#02519B"/>
	</linearGradient>
	<path style="fill:url(#SVGID_00000069390674502667195440000011328263790438969747_);" d="M35.7,47c-0.4,0-0.8-0.1-1.2-0.3
		c-0.4-0.2-0.7-0.5-0.9-0.9c-0.2-0.4-0.3-0.8-0.3-1.2v-3.8L35,40l-1.7-0.8v-3.8c0-0.4,0.1-0.8,0.3-1.2c0.2-0.4,0.5-0.7,0.9-0.9
		c0.4-0.2,0.8-0.3,1.2-0.3l3.7,0v0.8h-3c-0.6,0.2-1,0.6-1,1.2v4.7h1.9v-0.7h2.1V47H35.7z M35.4,45.1c0,0.5,0.4,1,0.9,1.2
		c0.1,0,0.2,0,0.3,0c0.2,0,0.4,0,0.6-0.1l0.2-0.1v-5.7h-1.9V45.1z"/>
	
		<linearGradient id="SVGID_00000083804167182229189780000003665770471704907442_" gradientUnits="userSpaceOnUse" x1="61.3627" y1="13.3276" x2="-8.8424" y2="83.3818">
		<stop  offset="0" style="stop-color:#00BEFE"/>
		<stop  offset="1" style="stop-color:#02519B"/>
	</linearGradient>
	
		<rect x="37.3" y="34.9" style="fill:url(#SVGID_00000083804167182229189780000003665770471704907442_);" width="2.1" height="2.8"/>
	
		<linearGradient id="SVGID_00000172421909055975247810000015471778347581794734_" gradientUnits="userSpaceOnUse" x1="69.3613" y1="13.9857" x2="-11.4313" y2="94.6046">
		<stop  offset="0" style="stop-color:#00BEFE"/>
		<stop  offset="1" style="stop-color:#02519B"/>
	</linearGradient>
	<path style="fill:url(#SVGID_00000172421909055975247810000015471778347581794734_);" d="M45.3,45v-4.7h-1.9V41h-2.1v-8.1H45
		c0.4,0,0.8,0.1,1.2,0.3c0.4,0.2,0.7,0.5,0.9,0.9c0.2,0.4,0.3,0.8,0.3,1.2v3.8L45.7,40l1.7,0.8v3.8c0,0.1,0,0.3,0,0.4H45.3z
		 M43.4,39.6h1.9v-4.7c0-0.5-0.4-1-0.9-1.2c-0.1,0-0.2,0-0.3,0h-0.7V39.6z"/>
	
		<linearGradient id="SVGID_00000016060047377524078860000016456200336892447107_" gradientUnits="userSpaceOnUse" x1="69.2492" y1="19.0889" x2="-5.1867" y2="93.3647">
		<stop  offset="0" style="stop-color:#00BEFE"/>
		<stop  offset="1" style="stop-color:#02519B"/>
	</linearGradient>
	<path style="fill:url(#SVGID_00000016060047377524078860000016456200336892447107_);" d="M41.3,47v-4.8h2.1v4h3.4
		c-0.2,0.2-0.3,0.3-0.5,0.4C45.8,46.9,45.4,47,45,47H41.3z"/>
</g>
</svg>
