<?xml version="1.0" encoding="utf-8"?>
<!-- Generator: Adobe Illustrator 26.2.1, SVG Export Plug-In . SVG Version: 6.00 Build 0)  -->
<svg version="1.1" id="Layer_1" xmlns="http://www.w3.org/2000/svg" xmlns:xlink="http://www.w3.org/1999/xlink" x="0px" y="0px"
	 viewBox="0 0 60 60" style="enable-background:new 0 0 60 60;" xml:space="preserve">
<style type="text/css">
	.st0{fill:url(#SVGID_1_);}
	.st1{fill:url(#SVGID_00000061440501874820550970000014715188656954112689_);}
	.st2{fill:url(#SVGID_00000181081671916254622510000009869389621165034629_);}
	.st3{fill:url(#SVGID_00000057845984954145413220000010396649426097829287_);}
</style>
<g>
	<linearGradient id="SVGID_1_" gradientUnits="userSpaceOnUse" x1="59.8077" y1="0.1948" x2="1.1626" y2="58.84">
		<stop  offset="0" style="stop-color:#00BEFE"/>
		<stop  offset="1" style="stop-color:#02519B"/>
	</linearGradient>
	<path class="st0" d="M50.5,41c-2.2,0-4.2,0.7-5.8,2c-0.1,0.1-0.2,0.1-0.4,0.1c-0.3,0-0.5-0.2-0.7-0.3c-1.3-1.3-2.5-2.6-3.8-3.8
		c-0.4-0.4-0.4-0.8-0.1-1.3c1.5-1.8,2.3-4,2.6-6.5c0.1-0.6,0.4-0.9,1-1c2.8-0.1,5.6-0.2,8.4-0.3l0.1,0c0.6,0,1,0.3,1.3,0.8
		c0.6,1.1,1.8,1.9,3.1,1.9c0.4,0,0.9-0.1,1.3-0.2c1.7-0.6,2.6-2.4,2.2-4.1c-0.3-1.5-1.6-2.7-3.1-2.8c-0.1,0-0.3,0-0.4,0
		c-1.6,0-2.8,0.8-3.4,2.3c-0.2,0.4-0.4,0.8-1.1,0.8c-1.2,0-2.3,0.1-3.5,0.1l-0.4,0c-1.6,0.1-3.2,0.1-4.7,0.2l-0.2,0
		c-0.5,0-0.8-0.3-0.9-0.8c-0.6-3.4-2.3-6.1-5-8.1c-0.5-0.4-0.6-0.7-0.3-1.3c0.4-0.8,0.9-1.6,1.3-2.3c0.1-0.1,0.3-0.5,0.8-0.5
		c0.1,0,0.2,0,0.4,0.1c0.3,0.1,0.6,0.1,1.1,0.1c0.1,0,0.2,0,0.3,0c2.3-0.1,4-1.2,4.9-3.2c1-2,0.7-4.1-0.6-5.8
		c-1.1-1.4-2.5-2.1-4.2-2.1c-0.4,0-0.9,0.1-1.3,0.1c-2.1,0.4-3.6,1.7-4.2,3.8c-0.6,2.1-0.2,4,1.4,5.6c0.5,0.5,0.5,0.9,0.2,1.5
		c-0.4,0.6-0.7,1.3-1.1,1.9c-0.2,0.4-0.4,0.7-0.9,0.7c-0.2,0-0.3,0-0.6-0.1c-1.5-0.6-3.1-0.9-4.6-0.9c-2.6,0-5.1,0.9-7.4,2.6
		c-0.2,0.1-0.4,0.3-0.6,0.3c-0.3,0-0.5-0.2-0.7-0.3c-1.4-1.4-2.6-2.6-3.7-3.7c-0.4-0.4-0.5-0.8-0.3-1.2c1.2-1.6,1.9-3.5,1.9-5.7
		C19,4.3,14.7,0,9.5,0C4.3,0,0,4.3,0,9.5C0,14.7,4.3,19,9.5,19c2.1,0,4.1-0.7,5.7-1.9c0.2-0.1,0.3-0.2,0.5-0.2
		c0.3,0,0.5,0.2,0.7,0.4c1.2,1.2,2.4,2.5,3.7,3.7c0.6,0.6,0.4,1,0.1,1.4c-2.1,2.7-2.9,5.8-2.4,9.1c0.1,0.7-0.2,1-0.8,1.2
		c-2.6,0.7-4.9,1.3-7.1,1.9c-0.2,0.1-0.3,0.1-0.5,0.1c-0.5,0-0.8-0.3-1.1-0.6c-0.9-1.2-2.2-1.9-3.6-1.9c-0.5,0-1,0.1-1.5,0.3
		c-1.8,0.6-3.1,2.5-3,4.3c0.1,2.4,2,4.4,4.5,4.5c2.6,0,4.5-1.8,4.6-4.3c0-0.5,0.3-0.8,0.8-1c2.5-0.7,5-1.3,7.5-2
		c0.1,0,0.2-0.1,0.3-0.1c0.5,0,0.7,0.5,0.8,0.6c1,2.4,2.5,4.3,4.6,5.6c0.5,0.3,0.6,0.7,0.3,1.2c-0.6,1.1-1.1,2.1-1.5,3
		c-0.1,0.3-0.4,0.6-0.9,0.6c-0.1,0-0.2,0-0.4-0.1c-0.5-0.1-1-0.2-1.5-0.2c-1.9,0-3.6,0.8-4.9,2.2c-1.2,1.4-1.8,3.3-1.6,5.1
		c0.4,3.2,3.2,5.8,6.4,5.8c0.4,0,0.8,0,1.2-0.1c2.7-0.6,4.4-2.2,5.1-4.8c0.7-2.6,0-4.8-2.1-6.7c-0.5-0.4-0.5-0.8-0.3-1.4
		c0.4-0.8,1-1.8,1.4-2.8c0.1-0.3,0.4-0.7,0.9-0.7c0.1,0,0.3,0,0.5,0.1c1.4,0.5,2.8,0.7,4.1,0.7c2.6,0,5.1-0.9,7.4-2.6
		c0.2-0.2,0.4-0.3,0.7-0.3c0.3,0,0.5,0.2,0.7,0.4c1.2,1.2,2.5,2.5,3.7,3.7c0.4,0.4,0.5,0.7,0.3,1.2c-1.2,1.6-1.9,3.6-1.9,5.7
		c0,5.2,4.2,9.5,9.5,9.5c5.2,0,9.5-4.3,9.5-9.5C60,45.3,55.8,41,50.5,41z M56.3,26.8L56.3,26.8c0.7,0,1.3,0.3,1.7,0.8
		c0.4,0.4,0.6,1,0.6,1.6c-0.1,1.2-1.1,2.1-2.2,2.1l-0.1,0c-1.2-0.1-2.2-1.1-2.1-2.3C54.2,27.8,55.2,26.8,56.3,26.8z M36.5,10.5
		c0-1.1,0.4-2.2,1.2-3c0.8-0.8,1.9-1.3,3-1.3h0c1.1,0,2.2,0.5,3,1.3c0.8,0.8,1.2,1.9,1.2,3c0,1.1-0.5,2.2-1.3,3
		c-0.8,0.8-1.8,1.2-3,1.2C38.4,14.7,36.6,12.8,36.5,10.5z M9.5,17.6C5,17.6,1.4,14,1.4,9.5C1.4,5,5,1.4,9.5,1.4
		c4.5,0,8.1,3.6,8.1,8.1C17.6,14,14,17.6,9.5,17.6z M6.9,39.1c-0.6,0.6-1.4,0.9-2.2,0.9c-1.8,0-3.2-1.4-3.2-3.2
		c0-1.7,1.4-3.2,3.2-3.2h0.1c1.7,0,3.2,1.5,3.2,3.2C7.9,37.7,7.5,38.5,6.9,39.1z M24.5,51.5c0,1.3-0.5,2.6-1.5,3.6
		c-1,1-2.3,1.6-3.7,1.6c-2.8,0-5.2-2.4-5.2-5.2c0-2.8,2.4-5.2,5.1-5.2h0C22.1,46.3,24.4,48.6,24.5,51.5z M30,41
		c-6.1,0-10.9-4.8-10.9-11c0-3,1.1-5.8,3.2-7.9C24.3,20.1,27,19,30,19h0c6.2,0,10.9,4.8,11,11.1C40.9,36.3,36.1,41,30,41z
		 M50.5,58.6c-4.5,0-8.1-3.6-8.1-8.1c0-4.5,3.6-8.1,8.1-8.1c4.5,0,8.1,3.6,8.1,8.1C58.6,55,55,58.6,50.5,58.6z"/>
	
		<linearGradient id="SVGID_00000158029392461146882160000008300303967280025499_" gradientUnits="userSpaceOnUse" x1="60.625" y1="1.0121" x2="1.9798" y2="59.6572">
		<stop  offset="0" style="stop-color:#00BEFE"/>
		<stop  offset="1" style="stop-color:#02519B"/>
	</linearGradient>
	<path style="fill:url(#SVGID_00000158029392461146882160000008300303967280025499_);" d="M24.3,37.5c-0.3,0-0.5-0.1-0.6-0.2
		c-0.1-0.1-0.2-0.3-0.2-0.6c0.1-2.5,1.2-4.4,3.5-5.7c0.1-0.1,0.2-0.1,0.4-0.2l0.8-0.4l-0.5-0.3c-1.7-1.2-2.4-2.6-2.3-4.5
		c0.1-1.1,0.6-2.1,1.4-2.9c0.9-0.8,2-1.2,3.1-1.2c1.2,0,2.4,0.5,3.3,1.4c1,1,1.5,2.3,1.3,3.8c-0.2,1.4-0.9,2.5-2.3,3.4l-0.5,0.4
		l0.6,0.3c1.1,0.5,1.9,1,2.5,1.7c1.1,1.3,1.7,2.7,1.7,4.2c0,0.3-0.1,0.5-0.2,0.6c-0.1,0.1-0.3,0.2-0.6,0.2c-1.9,0-3.8,0-5.7,0
		L24.3,37.5z M30,31.7c-2.1,0-4.2,1.5-4.9,3.5c-0.1,0.2-0.1,0.5,0,0.8c0.2,0.2,0.4,0.3,0.7,0.3c0.6,0,1.2,0,1.8,0l4.7,0
		c0.6,0,1.2,0,1.8,0c0,0,0,0,0,0c0.2,0,0.5,0,0.7-0.3c0.2-0.2,0.1-0.5,0-0.7C34.3,33.2,32.2,31.7,30,31.7L30,31.7z M30,22.9
		c-1.7,0-3.2,1.5-3.2,3.2c0,0.9,0.3,1.7,1,2.3c0.6,0.6,1.4,0.9,2.2,0.9c1.8,0,3.3-1.5,3.2-3.2C33.2,24.3,31.8,22.9,30,22.9L30,22.9z
		"/>
	
		<linearGradient id="SVGID_00000043422078980819298960000012059265270002521500_" gradientUnits="userSpaceOnUse" x1="39.889" y1="-19.7239" x2="-18.7562" y2="38.9212">
		<stop  offset="0" style="stop-color:#00BEFE"/>
		<stop  offset="1" style="stop-color:#02519B"/>
	</linearGradient>
	<path style="fill:url(#SVGID_00000043422078980819298960000012059265270002521500_);" d="M5.2,15.1c-0.2,0-0.4,0-0.5-0.1
		c-0.1-0.1-0.1-0.2-0.1-0.5c0.1-1.9,0.9-3.3,2.7-4.3c0.1-0.1,0.2-0.1,0.3-0.2l0.6-0.3L7.8,9.5C6.5,8.6,6,7.5,6.1,6.1
		c0.1-0.9,0.4-1.6,1.1-2.2C7.8,3.3,8.7,3,9.5,3c0.9,0,1.8,0.4,2.5,1c0.8,0.8,1.1,1.8,1,2.9c-0.1,1-0.7,1.9-1.7,2.6l-0.4,0.3l0.4,0.2
		c0.8,0.4,1.4,0.8,1.9,1.3c0.9,1,1.3,2,1.3,3.2c0,0.2,0,0.4-0.1,0.5c-0.1,0.1-0.2,0.1-0.5,0.1c-1.4,0-2.9,0-4.3,0L5.2,15.1z
		 M9.5,10.7c-1.6,0-3.2,1.1-3.7,2.7c-0.1,0.2-0.1,0.4,0,0.6c0.1,0.2,0.3,0.2,0.5,0.2c0.5,0,0.9,0,1.4,0l3.5,0c0.5,0,0.9,0,1.4,0
		c0,0,0,0,0,0c0.2,0,0.4,0,0.5-0.2c0.1-0.2,0.1-0.4,0-0.6C12.8,11.8,11.2,10.7,9.5,10.7L9.5,10.7z M9.5,4C8.2,4,7.1,5.1,7.1,6.4
		c0,0.7,0.3,1.3,0.7,1.8c0.5,0.5,1.1,0.7,1.7,0.7c1.4,0,2.5-1.1,2.5-2.4C11.9,5.1,10.9,4,9.5,4L9.5,4z"/>
	
		<linearGradient id="SVGID_00000035529645075649894450000015286102658768431505_" gradientUnits="userSpaceOnUse" x1="80.8823" y1="21.2694" x2="22.2371" y2="79.9146">
		<stop  offset="0" style="stop-color:#00BEFE"/>
		<stop  offset="1" style="stop-color:#02519B"/>
	</linearGradient>
	<path style="fill:url(#SVGID_00000035529645075649894450000015286102658768431505_);" d="M46.2,56.1c-0.2,0-0.4,0-0.5-0.1
		c-0.1-0.1-0.1-0.2-0.1-0.5c0.1-1.9,0.9-3.3,2.7-4.3c0.1-0.1,0.2-0.1,0.3-0.2l0.6-0.3l-0.4-0.3c-1.3-0.9-1.8-2-1.7-3.4
		c0.1-0.9,0.4-1.6,1.1-2.2c0.6-0.6,1.5-0.9,2.4-0.9c0.9,0,1.8,0.4,2.5,1c0.8,0.8,1.1,1.8,1,2.9c-0.1,1-0.7,1.9-1.7,2.6l-0.4,0.3
		l0.4,0.2c0.8,0.4,1.4,0.8,1.9,1.3c0.9,1,1.3,2,1.3,3.2c0,0.2,0,0.4-0.1,0.5c-0.1,0.1-0.2,0.1-0.5,0.1c-1.4,0-2.9,0-4.3,0L46.2,56.1
		z M50.5,51.7c-1.6,0-3.2,1.1-3.7,2.7c-0.1,0.2-0.1,0.4,0,0.6c0.1,0.2,0.3,0.2,0.5,0.2c0.5,0,0.9,0,1.4,0l3.5,0c0.5,0,0.9,0,1.4,0
		c0,0,0,0,0,0c0.2,0,0.4,0,0.5-0.2c0.1-0.2,0.1-0.4,0-0.6C53.7,52.8,52.1,51.7,50.5,51.7L50.5,51.7z M50.5,45
		c-1.3,0-2.4,1.1-2.4,2.4c0,0.7,0.3,1.3,0.7,1.8c0.5,0.5,1.1,0.7,1.7,0.7c1.4,0,2.5-1.1,2.5-2.4C52.9,46.1,51.8,45,50.5,45L50.5,45z
		"/>
</g>
</svg>
