<?xml version="1.0" encoding="utf-8"?>
<!-- Generator: Adobe Illustrator 26.2.1, SVG Export Plug-In . SVG Version: 6.00 Build 0)  -->
<svg version="1.1" id="Layer_1" xmlns="http://www.w3.org/2000/svg" xmlns:xlink="http://www.w3.org/1999/xlink" x="0px" y="0px"
	 viewBox="0 0 60 60" style="enable-background:new 0 0 60 60;" xml:space="preserve">
<style type="text/css">
	.st0{fill:url(#SVGID_1_);}
	.st1{fill:url(#SVGID_00000175284926976743010010000016971745848248491708_);}
	.st2{fill:url(#SVGID_00000013190033833416602840000014782384223746275988_);}
	.st3{fill:url(#SVGID_00000095320451875328106330000009342656326362911388_);}
	.st4{fill:url(#SVGID_00000137117764615329937280000008574218837145392782_);}
	.st5{fill:url(#SVGID_00000081624242312193834640000015405428803237099407_);}
	.st6{fill:url(#SVGID_00000109713346975324664390000001740366191052480396_);}
</style>
<g>
	<g>
		<linearGradient id="SVGID_1_" gradientUnits="userSpaceOnUse" x1="64.8746" y1="5.3458" x2="5.7112" y2="64.3152">
			<stop  offset="0" style="stop-color:#00BEFE"/>
			<stop  offset="1" style="stop-color:#02519B"/>
		</linearGradient>
		<path class="st0" d="M1.3,60C0.1,60,0,59.9,0,58.8l0-5.6C0,44.6,0,36,0,27.4c0-0.5,0.1-1.1,0.4-1.5c0.9-1.8,1.9-3.5,2.8-5.3
			c1.1-2.1,2.3-4.3,3.4-6.4C7.1,13.3,7.6,13,8.5,13l0.1,0c1.3,0,2.5,0,3.8,0c0.9,0,1.7,0,2.6,0c0.9,0,4.1,0,4.1,0l-0.1-0.6
			c-0.6-2.9,0.1-5.8,1.9-8.1c2-2.5,5.2-4.2,8.6-4.3c0.2,0,0.4,0,0.5,0c3.4,0,6.9,1.6,9,4.2c1.4,1.6,2.8,4.4,2.1,8.3L41,13.1l6.6,0
			c1.4,0,2.7,0,4.1,0c0,0,0,0,0,0c0.8,0,1.1,0.2,1.5,0.8c2.4,4.6,4.4,8.3,6.3,11.7c0.4,0.6,0.5,1.3,0.5,2.1c0,8.1,0,16.2,0,24.2v6.9
			c0,1.1,0,1.2-1.3,1.2H1.3z M1.4,58.7h57.1V27.4H1.4V58.7z M9.2,14.3c-0.7,0-1.2,0.3-1.5,0.9c-1.2,2.2-2.4,4.5-3.6,6.7l-1.6,3
			c-0.1,0.1-0.1,0.3-0.2,0.4L2,26.1h55.9l-0.2-0.7c0-0.1,0-0.2-0.1-0.3L57,23.8c-1.6-3-3.2-5.9-4.8-8.9c-0.2-0.3-0.7-0.6-1.1-0.6
			c-1.7,0-3.5,0-5.2,0c-1.6,0-3.1,0-4.7,0c-0.3,0-0.8,0.1-1,0.5c-0.8,1.5-1.9,2.8-3.4,3.9l-1.1,0.9l9.3,0c0.3,0,1,0.1,1,0.6
			c0,0.1,0,0.3-0.1,0.4c-0.2,0.2-0.5,0.3-0.8,0.3H15c-0.4,0-0.7-0.1-0.8-0.3c-0.1-0.1-0.1-0.2-0.1-0.4c0-0.5,0.7-0.6,1-0.6l9,0
			l-0.6-0.8c-0.5-0.6-1.1-1.2-1.7-1.8c-0.7-0.7-1.4-1.3-1.8-2c-0.4-0.5-0.7-0.7-1.4-0.7c-1.6,0-3.2,0-4.7,0
			C12.3,14.3,10.7,14.3,9.2,14.3L9.2,14.3z M30,1.2c-5.4,0-9.9,4.1-9.9,9.1c0,5.1,4.4,9.2,9.8,9.2h0c5.5,0,9.9-4.1,9.9-9.2
			C39.8,5.4,35.5,1.3,30,1.2L30,1.2z"/>
		
			<linearGradient id="SVGID_00000151533913956874369190000000951484621138874512_" gradientUnits="userSpaceOnUse" x1="63.3861" y1="5.9682" x2="6.0492" y2="63.1171">
			<stop  offset="0" style="stop-color:#00BEFE"/>
			<stop  offset="1" style="stop-color:#02519B"/>
		</linearGradient>
		<path style="fill:url(#SVGID_00000151533913956874369190000000951484621138874512_);" d="M30,52.9c-0.2,0-0.4-0.1-0.6-0.3
			c-0.9-0.8-1.7-1.6-2.6-2.4c-2.5-2.3-5-4.6-7.5-7c-1.1-1.1-1.7-2.5-1.7-4.1c0-1.6,0.7-3.1,1.9-4.2c1.3-1.2,2.9-1.8,4.7-1.8
			c1.6,0,3.2,0.6,4.4,1.6c0.2,0.2,0.4,0.4,0.7,0.6L30,36l0.7-0.6c0.2-0.2,0.4-0.4,0.7-0.6c1.2-1.1,2.8-1.6,4.5-1.6
			c1.7,0,3.3,0.6,4.6,1.7c1.2,1.1,1.9,2.6,2,4.2c0,1.5-0.5,2.9-1.6,4c-2.4,2.4-5,4.8-7.5,7.1c-0.9,0.8-1.8,1.6-2.7,2.4
			C30.4,52.9,30.2,52.9,30,52.9z M24.2,34.4c-1.5,0-2.9,0.6-3.9,1.6c-0.9,0.9-1.3,2.1-1.3,3.3c0,1.2,0.5,2.2,1.3,3
			c2.2,2.1,4.4,4.1,6.6,6.1c0.9,0.8,3,2.8,3,2.8l0.3-0.3c0.9-0.9,1.9-1.7,2.8-2.5c2.2-2,4.5-4.1,6.7-6.2c0.8-0.8,1.2-1.8,1.2-3
			c0-1.3-0.6-2.5-1.5-3.4c-1-0.9-2.3-1.4-3.7-1.4c-1.2,0-2.3,0.4-3.2,1c-0.5,0.4-0.9,0.8-1.3,1.1c-0.2,0.2-0.4,0.4-0.6,0.5
			c-0.3,0.3-0.5,0.4-0.7,0.4c-0.2,0-0.4-0.1-0.7-0.4c-0.2-0.2-0.4-0.4-0.6-0.5c-0.5-0.4-1-0.9-1.5-1.3
			C26.3,34.7,25.3,34.4,24.2,34.4z"/>
		
			<linearGradient id="SVGID_00000077290168596921137470000001697355526700514448_" gradientUnits="userSpaceOnUse" x1="49.6367" y1="-9.1529" x2="-7.7874" y2="48.0829">
			<stop  offset="0" style="stop-color:#00BEFE"/>
			<stop  offset="1" style="stop-color:#02519B"/>
		</linearGradient>
		<path style="fill:url(#SVGID_00000077290168596921137470000001697355526700514448_);" d="M30,20.8c-6.2,0-11.3-4.7-11.3-10.4
			S23.8,0,30,0s11.3,4.7,11.3,10.4S36.2,20.8,30,20.8z M30,0.5c-5.9,0-10.7,4.4-10.7,9.9s4.8,9.9,10.7,9.9s10.7-4.4,10.7-9.9
			S35.9,0.5,30,0.5z"/>
	</g>
	
		<linearGradient id="SVGID_00000168101117749604487890000018084407751862765497_" gradientUnits="userSpaceOnUse" x1="48.1283" y1="-10.2736" x2="-9.2487" y2="46.98">
		<stop  offset="0" style="stop-color:#00BEFE"/>
		<stop  offset="1" style="stop-color:#02519B"/>
	</linearGradient>
	<path style="fill:url(#SVGID_00000168101117749604487890000018084407751862765497_);" d="M26.7,15c-0.3,0-0.6-0.1-0.8-0.2
		c-0.2-0.1-0.5-0.4-0.6-0.6c-0.1-0.2-0.2-0.5-0.2-0.8v-2.7l1.2-0.6l-1.2-0.6V6.9c0-0.3,0.1-0.6,0.2-0.8c0.1-0.3,0.4-0.5,0.6-0.6
		c0.2-0.1,0.5-0.2,0.8-0.2l2.6,0v0.5h-2.1c-0.4,0.1-0.7,0.4-0.7,0.8v3.3h1.3V9.4h1.4V15H26.7z M26.5,13.7c0,0.4,0.3,0.7,0.6,0.8
		c0.1,0,0.1,0,0.2,0c0.1,0,0.3,0,0.4-0.1l0.1-0.1v-3.9h-1.3V13.7z"/>
	
		<linearGradient id="SVGID_00000068648349018034446760000002269513964589940134_" gradientUnits="userSpaceOnUse" x1="44.5779" y1="-8.3734" x2="-4.1324" y2="40.2321">
		<stop  offset="0" style="stop-color:#00BEFE"/>
		<stop  offset="1" style="stop-color:#02519B"/>
	</linearGradient>
	<rect x="27.9" y="6.6" style="fill:url(#SVGID_00000068648349018034446760000002269513964589940134_);" width="1.4" height="1.9"/>
	
		<linearGradient id="SVGID_00000024002997445214762150000004698679546701717904_" gradientUnits="userSpaceOnUse" x1="50.1297" y1="-7.9172" x2="-5.9258" y2="48.0178">
		<stop  offset="0" style="stop-color:#00BEFE"/>
		<stop  offset="1" style="stop-color:#02519B"/>
	</linearGradient>
	<path style="fill:url(#SVGID_00000024002997445214762150000004698679546701717904_);" d="M33.4,13.6v-3.2h-1.3v0.5h-1.4V5.2h2.6
		c0.3,0,0.6,0.1,0.8,0.2c0.2,0.1,0.5,0.4,0.6,0.6c0.1,0.2,0.2,0.5,0.2,0.8v2.7l-1.2,0.6l1.2,0.6v2.7c0,0.1,0,0.2,0,0.3H33.4z
		 M32.1,9.9h1.3V6.6c0-0.4-0.3-0.7-0.6-0.8c-0.1,0-0.1,0-0.2,0h-0.5V9.9z"/>
	
		<linearGradient id="SVGID_00000181053666916232673480000005266899054153274296_" gradientUnits="userSpaceOnUse" x1="50.0494" y1="-4.3758" x2="-1.5888" y2="47.1513">
		<stop  offset="0" style="stop-color:#00BEFE"/>
		<stop  offset="1" style="stop-color:#02519B"/>
	</linearGradient>
	<path style="fill:url(#SVGID_00000181053666916232673480000005266899054153274296_);" d="M30.6,15v-3.3h1.4v2.8h2.3
		c-0.1,0.1-0.2,0.2-0.4,0.3c-0.2,0.1-0.5,0.2-0.8,0.2H30.6z"/>
</g>
</svg>
