<?xml version="1.0" encoding="utf-8"?>
<!-- Generator: Adobe Illustrator 26.2.1, SVG Export Plug-In . SVG Version: 6.00 Build 0)  -->
<svg version="1.1" id="Layer_1" xmlns="http://www.w3.org/2000/svg" xmlns:xlink="http://www.w3.org/1999/xlink" x="0px" y="0px"
	 viewBox="0 0 60 60" style="enable-background:new 0 0 60 60;" xml:space="preserve">
<style type="text/css">
	.st0{fill:url(#SVGID_1_);}
	.st1{fill:url(#SVGID_00000008137227025222102790000011943885605917929106_);}
</style>
<g>
	<linearGradient id="SVGID_1_" gradientUnits="userSpaceOnUse" x1="67.8356" y1="7.0115" x2="7.6648" y2="67.1824">
		<stop  offset="0" style="stop-color:#00BEFE"/>
		<stop  offset="1" style="stop-color:#02519B"/>
	</linearGradient>
	<path class="st0" d="M60,30.8l0-3.2c0-0.3-0.1-0.9-0.7-1c0,0-0.1,0-0.1,0c-0.2,0-0.6,0-0.8,0.8c-0.4,1.6-0.9,3.1-1.6,4.3
		c-2.4,4.4-6.1,6.7-10.9,6.7H28.2c-4,0-7.9,0-9.3,0c-0.3,0-0.7,0-1-0.3c-0.3-0.3-0.3-0.7-0.3-1c0-0.9,0-1.9,0-2.8v-1.3
		c0-0.7-0.2-1-0.5-1.1c-0.1-0.1-0.2-0.1-0.3-0.1c-0.2,0-0.5,0.1-0.8,0.4L0.5,45.1C0.3,45.3,0,45.6,0,45.9c0,0.3,0.3,0.6,0.5,0.8
		l12.9,10.8c0.9,0.7,1.8,1.5,2.7,2.2c0.2,0.2,0.5,0.3,0.7,0.3c0.2,0,0.4-0.1,0.6-0.3c0.1-0.2,0.2-0.4,0.2-0.8v-5.2
		c0-1.2,0.3-1.5,1.5-1.5l15.9,0c4.2,0,8.2,0,10.4,0c3.2,0,5.8-0.7,8.1-2.1c4.2-2.6,6.4-6.1,6.5-10.4C60,36.7,60,33.7,60,30.8z
		 M58.2,41c-0.6,3.3-2.6,5.9-5.8,7.8c-2,1.2-4.4,1.7-7.2,1.8h-28c-1.1,0-1.3,0.1-1.3,1.3v5.8l-1.2-1l-0.1-0.1
		c-0.1,0-0.1-0.1-0.1-0.1L10.5,53C7,50.1,3,46.8,3,46.8c-0.2-0.1-0.5-0.4-0.5-0.8c0-0.4,0.3-0.7,0.4-0.8c2.5-2.1,5-4.2,7.6-6.3
		l4.2-3.5l1.3-1.1v5c0.1,0.6,0.3,0.8,1.1,0.8h16.4c5.1,0,10,0,12.8,0c4.3,0,7.8-1.9,10.5-5.5l1.6-2.1v3.2c0,0.6,0,1.1,0,1.7
		C58.4,38.4,58.4,39.7,58.2,41z"/>
	
		<linearGradient id="SVGID_00000036234510736111815130000008160862761548090042_" gradientUnits="userSpaceOnUse" x1="52.9882" y1="-7.8354" x2="-7.1827" y2="52.3355">
		<stop  offset="0" style="stop-color:#00BEFE"/>
		<stop  offset="1" style="stop-color:#02519B"/>
	</linearGradient>
	<path style="fill:url(#SVGID_00000036234510736111815130000008160862761548090042_);" d="M0,29.2l0,3.2c0,0.3,0.1,0.9,0.7,1
		c0,0,0.1,0,0.1,0c0.2,0,0.6,0,0.8-0.8c0.4-1.6,0.9-3.1,1.6-4.3c2.4-4.4,6.1-6.7,10.9-6.7h17.7c4,0,7.9,0,9.3,0c0.3,0,0.7,0,1,0.3
		c0.3,0.3,0.3,0.7,0.3,1c0,0.9,0,1.9,0,2.8v1.3c0,0.7,0.2,1,0.5,1.1c0.1,0.1,0.2,0.1,0.3,0.1c0.2,0,0.5-0.1,0.8-0.4l15.4-12.8
		c0.2-0.2,0.5-0.5,0.5-0.8c0-0.3-0.3-0.6-0.5-0.8L46.6,2.5c-0.9-0.7-1.8-1.5-2.7-2.2C43.7,0.1,43.4,0,43.2,0c-0.2,0-0.4,0.1-0.6,0.3
		c-0.1,0.2-0.2,0.4-0.2,0.8v5.2c0,1.2-0.3,1.5-1.5,1.5L25,7.9c-4.2,0-8.2,0-10.4,0c-3.2,0-5.8,0.7-8.1,2.1
		c-4.2,2.6-6.4,6.1-6.5,10.4C0,23.3,0,26.3,0,29.2z M1.8,19c0.6-3.3,2.6-5.9,5.8-7.8c2-1.2,4.4-1.7,7.2-1.8h28
		c1.1,0,1.3-0.1,1.3-1.3V2.4l1.2,1l0.1,0.1c0.1,0,0.1,0.1,0.1,0.1L49.5,7C53,9.9,57,13.2,57,13.2c0.2,0.1,0.5,0.4,0.5,0.8
		c0,0.4-0.3,0.7-0.4,0.8c-2.5,2.1-5,4.2-7.6,6.3l-4.2,3.5L44,25.7v-5c-0.1-0.6-0.3-0.8-1.1-0.8H26.5c-5.1,0-10,0-12.8,0
		c-4.3,0-7.8,1.9-10.5,5.5l-1.6,2.1v-3.2c0-0.6,0-1.1,0-1.7C1.6,21.6,1.6,20.3,1.8,19z"/>
</g>
</svg>
