<?xml version="1.0" encoding="utf-8"?>
<!-- Generator: Adobe Illustrator 26.2.1, SVG Export Plug-In . SVG Version: 6.00 Build 0)  -->
<svg version="1.1" id="Layer_1" xmlns="http://www.w3.org/2000/svg" xmlns:xlink="http://www.w3.org/1999/xlink" x="0px" y="0px"
	 viewBox="0 0 60 60" style="enable-background:new 0 0 60 60;" xml:space="preserve">
<style type="text/css">
	.st0{fill:url(#SVGID_1_);}
	.st1{fill:url(#SVGID_00000005234404001361057700000005777639202866306948_);}
	.st2{fill:url(#SVGID_00000056413223069513091110000013093049269206428815_);}
	.st3{fill:url(#SVGID_00000173854396878445083590000018096332960289355690_);}
	.st4{fill:url(#SVGID_00000065063479143717399940000014384661426166502805_);}
</style>
<g>
	<linearGradient id="SVGID_1_" gradientUnits="userSpaceOnUse" x1="67.0622" y1="7.4613" x2="8.5546" y2="66.3563">
		<stop  offset="0" style="stop-color:#00BEFE"/>
		<stop  offset="1" style="stop-color:#02519B"/>
	</linearGradient>
	<path class="st0" d="M58.8,60l-58,0c-0.1,0-0.1,0-0.2,0c-0.4,0-0.6-0.3-0.6-0.6c0-0.3,0.2-0.6,0.6-0.6c0.1,0,0.2,0,0.3,0l0.7-0.1
		V36l-0.9,0c-0.4,0-0.6-0.2-0.7-0.5c0-0.2,0-0.5,0.4-0.8l6.6-3.6c2.7-1.5,5.4-2.9,8-4.4c0.3-0.1,1-0.5,0.8-1.6
		c-0.2-1.1,0.2-2,1.3-3.1c3.4-3.3,6.8-6.7,10.1-10.1l1.3-1.3c0.3-0.3,0.6-0.9,0.6-1.4c0-0.8,0-1.7,0-2.5l0-1.7l-1.6,0
		c-0.4,0-0.7-0.1-0.9-0.3c-0.1-0.1-0.1-0.2-0.1-0.4c0-0.6,0.6-0.7,1-0.7l1.6,0l0-1.2c0-0.5,0-1,0-1.5c0-0.3,0.1-1,0.7-1
		c0.6,0,0.7,0.5,0.7,1c0,0.5,0,2.7,0,2.7l1.3,0c0.2,0,0.3,0,0.4,0c0.5,0,0.8,0.3,0.8,0.7C33.3,4.7,33,5,32.5,5c-0.1,0-0.3,0-0.4,0
		l-1.4,0l0,1.6c0,1,0,2.1,0,3.1c0,0.4,0.3,0.7,0.6,0.9l0.1,0.1l2.1,2.1c3.3,3.3,6.5,6.6,9.8,9.8c0.6,0.6,0.8,1.1,0.7,1.7
		c-0.3,1.6,0.6,2.3,1.6,2.8c3.3,1.8,6.7,3.6,9.9,5.4l3.7,2c0.8,0.4,0.7,0.8,0.7,0.9c-0.1,0.2-0.1,0.5-1.1,0.5l-0.5,0v22.5l0.7,0.1
		c0.1,0,0.3,0,0.4,0.1c0.3,0.1,0.6,0.3,0.6,0.6c0,0.4-0.2,0.6-0.6,0.6c-0.1,0-0.1,0-0.2,0L58.8,60z M16.6,41.7
		c0.4,0,0.6,0.3,0.7,0.7c0,0.1,0,0.3,0,0.4l0,15.8h5.3l0-4.4c0-2,0-4,0-6.1c0-4,3.4-7.3,7.4-7.3c4,0,7.3,3.3,7.3,7.3
		c0,2.1,0,4.3,0,6.4l0,4.1h5.3v-5.5c0-9.5,0-19,0-28.5c0-0.4-0.2-1-0.6-1.3C38.8,20,35.4,16.6,32,13.3l-1.2-1.2
		c-0.1-0.1-0.2-0.2-0.4-0.3L30,11.4l-0.5,0.4c-0.1,0.1-0.1,0.1-0.2,0.2l-1.6,1.6c-3.3,3.3-6.7,6.7-10,10c-0.3,0.3-0.4,0.8-0.4,1.2
		c0,1.4,0,2.8,0,4.2l0,2.4c0,0.9-0.5,0.9-0.7,0.9c-0.4,0-0.7-0.3-0.7-0.9c0-0.6,0-1.1,0-1.7l0-1.6L15,28.3c-0.1,0-0.2,0.1-0.3,0.1
		l-3.1,1.7C9,31.6,6.4,33,3.8,34.4C3.2,34.7,3,35.1,3,35.9c0,5.3,0,10.6,0,16l0,5.6c0,0.2,0,0.3,0,0.5l0,0.7H16l0-15.9
		c0-0.2,0-0.3,0-0.4C16,42,16.3,41.7,16.6,41.7L16.6,41.7z M28.4,42.4c-0.2,0-0.3,0.1-0.4,0.1c-2.3,0.8-3.9,3.1-4,5.6
		c0,2.4,0,4.8,0,7.2l0,2.3c0,0.1,0,0.3,0,0.4l0.1,0.6h5.2V42.2L28.4,42.4z M44.1,58.6h12.8l0-0.7c0-0.2,0-0.3,0-0.4l0-5.4
		c0-5.4,0-10.9,0-16.3c0-0.6-0.3-1-0.8-1.4c-2.7-1.5-5.4-3-8.2-4.4l-2.7-1.5c-0.1,0-0.2-0.1-0.3-0.1l-0.9-0.4V58.6z M30.7,58.6h5.2
		L36,58c0-0.1,0-0.2,0-0.3l0-2.7c0-2.3,0-4.7,0-7c0-2.4-1.6-4.6-3.8-5.4c-0.2-0.1-0.3-0.1-0.5-0.2l-0.9-0.2V58.6z"/>
	
		<linearGradient id="SVGID_00000087390511896907247520000007008429446574585738_" gradientUnits="userSpaceOnUse" x1="56.8236" y1="1.8559" x2="3.1474" y2="55.8876">
		<stop  offset="0" style="stop-color:#00BEFE"/>
		<stop  offset="1" style="stop-color:#02519B"/>
	</linearGradient>
	<path style="fill:url(#SVGID_00000087390511896907247520000007008429446574585738_);" d="M30,33.8c-1.3,0-2.6-0.5-3.5-1.5
		c-0.9-0.9-1.4-2.2-1.4-3.5c0-2.7,2.2-4.9,4.9-4.9c1.4,0,2.6,0.5,3.5,1.5c0.9,0.9,1.4,2.2,1.4,3.5C34.9,31.6,32.7,33.8,30,33.8
		L30,33.8z M30,25.2c-1,0-1.9,0.4-2.6,1.1c-0.7,0.7-1.1,1.6-1.1,2.6c0,2,1.6,3.6,3.6,3.6c1,0,1.9-0.4,2.6-1.1
		c0.7-0.7,1.1-1.6,1.1-2.6C33.6,26.9,32,25.2,30,25.2L30,25.2z"/>
	
		<linearGradient id="SVGID_00000148648449456442519180000011978843995531042982_" gradientUnits="userSpaceOnUse" x1="54.1643" y1="2.8066" x2="0.3326" y2="56.9948">
		<stop  offset="0" style="stop-color:#00BEFE"/>
		<stop  offset="1" style="stop-color:#02519B"/>
	</linearGradient>
	<path style="fill:url(#SVGID_00000148648449456442519180000011978843995531042982_);" d="M9.4,52.4c-0.7,0-1.5,0-2.2,0
		c-0.6,0-0.8-0.2-0.8-0.8l0-0.6c0-2.1,0-4.1,0-6.2c0-1.7,1.4-3.1,3-3.1c1.7,0,3,1.4,3.1,3.1c0,0.8,0,1.5,0,2.3l0,2.2
		c0,0.7,0,1.4,0,2.2c0,0.7-0.2,0.9-0.9,0.9C10.9,52.4,10.2,52.4,9.4,52.4z M9.5,43.1c-1,0-1.7,0.8-1.7,1.9c0,1.5,0,3.1,0,4.6l0,0.4
		c0,0.1,0,0.3,0,0.4L7.9,51h3.3l0-2.5c0-1.2,0-2.3,0-3.5C11.2,43.9,10.5,43.1,9.5,43.1L9.5,43.1z"/>
	
		<linearGradient id="SVGID_00000148657440865915634210000009836808914715097503_" gradientUnits="userSpaceOnUse" x1="38.6407" y1="14.8078" x2="6.2525" y2="47.4105">
		<stop  offset="0" style="stop-color:#00BEFE"/>
		<stop  offset="1" style="stop-color:#02519B"/>
	</linearGradient>
	<path style="fill:url(#SVGID_00000148657440865915634210000009836808914715097503_);" d="M16.6,37.6c-0.2,0-0.3-0.1-0.5-0.2
		C16,37.3,16,37.1,16,36.9c0-0.3,0.3-0.6,0.7-0.6c0.3,0,0.7,0.3,0.7,0.6c0,0.2-0.1,0.3-0.2,0.5C17,37.5,16.8,37.6,16.6,37.6
		L16.6,37.6z"/>
	
		<linearGradient id="SVGID_00000009578670456770194640000012894632164872734105_" gradientUnits="userSpaceOnUse" x1="76.7639" y1="21.3555" x2="22.9085" y2="75.5675">
		<stop  offset="0" style="stop-color:#00BEFE"/>
		<stop  offset="1" style="stop-color:#02519B"/>
	</linearGradient>
	<path style="fill:url(#SVGID_00000009578670456770194640000012894632164872734105_);" d="M50.5,52.4c-0.7,0-1.5,0-2.2,0
		c-0.6,0-0.8-0.2-0.8-0.9l0-0.8c0-2,0-3.9,0-5.8c0-1.7,1.4-3.1,3-3.1c1.7,0,3,1.4,3.1,3.1c0,0.7,0,1.5,0,2.2l0,2c0,0.8,0,1.6,0,2.4
		c0,0.6-0.2,0.8-0.9,0.9C52,52.4,51.2,52.4,50.5,52.4z M50.5,43.1c-0.9,0-1.7,0.7-1.7,1.6c0,1.3,0,2.7,0,4l0,2.3h3.4l0-2.2
		c0-1.4,0-2.7,0-4.1C52.2,43.8,51.5,43.1,50.5,43.1L50.5,43.1z"/>
</g>
</svg>
