<?xml version="1.0" encoding="utf-8"?>
<!-- Generator: Adobe Illustrator 26.2.1, SVG Export Plug-In . SVG Version: 6.00 Build 0)  -->
<svg version="1.1" id="Layer_1" xmlns="http://www.w3.org/2000/svg" xmlns:xlink="http://www.w3.org/1999/xlink" x="0px" y="0px"
	 viewBox="0 0 60 60" style="enable-background:new 0 0 60 60;" xml:space="preserve">
<style type="text/css">
	.st0{fill:url(#SVGID_1_);}
	.st1{fill:url(#SVGID_00000171709792598634463900000015907058967597187498_);}
	.st2{fill:url(#SVGID_00000176008955969026739730000010369477369810609828_);}
	.st3{fill:url(#SVGID_00000065752777871811774170000009194984935216031402_);}
	.st4{fill:url(#SVGID_00000041286871203006208830000004328600981985663893_);}
	.st5{fill:url(#SVGID_00000134240614502197119550000009810025442413431717_);}
	.st6{fill:url(#SVGID_00000120521567941900534030000007377112705530245055_);}
	.st7{fill:url(#SVGID_00000100372405145465540710000017572912376393277099_);}
	.st8{fill:url(#SVGID_00000170974261361327814900000014454037401412133528_);}
</style>
<g>
	<linearGradient id="SVGID_1_" gradientUnits="userSpaceOnUse" x1="49.851" y1="-9.8317" x2="-9.4282" y2="49.32">
		<stop  offset="0" style="stop-color:#00BEFE"/>
		<stop  offset="1" style="stop-color:#02519B"/>
	</linearGradient>
	<path class="st0" d="M30,20.2c-2.7,0-5.3-1.1-7.2-3c-1.9-1.9-2.9-4.5-2.9-7.1c0.1-5.4,4.1-9.7,9.4-10c0.2,0,0.5,0,0.7,0
		c5.1,0,9.3,3.7,10,8.7c0.3,2.2-0.1,4.4-1.2,6.4c-0.2,0.4-0.5,0.6-0.7,0.6c-0.1,0-0.2,0-0.3-0.1c-0.3-0.2-0.5-0.4-0.1-1.2
		c1.6-3,1.5-6-0.2-8.8c-1.7-2.8-4.2-4.2-7.6-4.2l-0.2,0c-4.5,0.1-8.2,3.7-8.5,8.2c-0.3,4.5,2.9,8.5,7.3,9.2c0.5,0.1,1,0.1,1.4,0.1
		c1.6,0,3.1-0.4,4.5-1.3c0,0,0.3-0.2,0.3-0.2c0.2-0.1,0.3-0.1,0.5-0.1c0.2,0,0.4,0.1,0.5,0.3C36,17.7,36,17.8,36,18
		c0,0.2-0.2,0.4-0.4,0.5c-1.1,0.8-2.4,1.3-3.7,1.5C31.3,20.2,30.6,20.2,30,20.2z"/>
	
		<linearGradient id="SVGID_00000179617453367949626720000017910883071479433388_" gradientUnits="userSpaceOnUse" x1="44.5315" y1="-14.2964" x2="-14.409" y2="44.5174">
		<stop  offset="0" style="stop-color:#00BEFE"/>
		<stop  offset="1" style="stop-color:#02519B"/>
	</linearGradient>
	<path style="fill:url(#SVGID_00000179617453367949626720000017910883071479433388_);" d="M10.4,27.5c-0.3,0-0.5-0.2-0.6-0.5
		c0-0.2,0-0.4,0-0.6c0-2,0-4,0-6l0-1.9c0-1.3,0-2.7,0-4c0-2.9,2.2-5.1,4.9-5.2l0,0c0.9,0,0.9,0.5,0.9,0.6c0,0.2,0,0.6-0.8,0.7
		c-2.3,0.2-3.6,1.7-3.6,4c0,2.6,0,5.2,0,7.9l0,3.7c0,0.2,0,0.4,0,0.6C11,27.3,10.8,27.5,10.4,27.5L10.4,27.5z"/>
	
		<linearGradient id="SVGID_00000180326859945089865600000011326937072342014655_" gradientUnits="userSpaceOnUse" x1="62.5827" y1="3.2734" x2="4.303" y2="61.4278">
		<stop  offset="0" style="stop-color:#00BEFE"/>
		<stop  offset="1" style="stop-color:#02519B"/>
	</linearGradient>
	<path style="fill:url(#SVGID_00000180326859945089865600000011326937072342014655_);" d="M49.5,27.5c-0.3,0-0.7-0.1-0.7-1.2l0-11.3
		c0-2.4-1.2-3.8-3.6-4.1c-0.5-0.1-0.8-0.4-0.8-0.7c0-0.5,0.5-0.6,0.9-0.6c2.7,0.1,4.9,2.2,4.9,4.9c0,1.4,0,2.8,0,4.2
		c0,0.6,0,2.1,0,2.1h0l0,5.7C50.2,27.4,49.9,27.5,49.5,27.5L49.5,27.5z"/>
	
		<linearGradient id="SVGID_00000043444156213606991080000002819962971301812382_" gradientUnits="userSpaceOnUse" x1="54.937" y1="0.6003" x2="1.0908" y2="54.3307">
		<stop  offset="0" style="stop-color:#00BEFE"/>
		<stop  offset="1" style="stop-color:#02519B"/>
	</linearGradient>
	<path style="fill:url(#SVGID_00000043444156213606991080000002819962971301812382_);" d="M30,27.5c-0.5,0-0.7-0.4-0.7-0.6
		c0-1,0-1.9,0-2.7c0-0.4,0.3-0.7,0.7-0.7c0.5,0,0.6,0.4,0.7,0.7c0,0.3,0,0.6,0,0.9l0,0.4l0,0.4c0,0.3,0,0.6,0,0.9
		C30.6,27.3,30.4,27.5,30,27.5L30,27.5z"/>
	
		<linearGradient id="SVGID_00000062155396687486717020000005638078141442543279_" gradientUnits="userSpaceOnUse" x1="69.0557" y1="9.1751" x2="9.054" y2="69.0478">
		<stop  offset="0" style="stop-color:#00BEFE"/>
		<stop  offset="1" style="stop-color:#02519B"/>
	</linearGradient>
	<path style="fill:url(#SVGID_00000062155396687486717020000005638078141442543279_);" d="M15.9,60c-1.6,0-3.2,0-4.9,0l-6.8,0
		c-1.4,0-2.6-0.5-3.4-1.4c-0.7-0.9-1-2.2-0.7-3.5l0.1-0.4c0.2-1.1,0.4-2.2,0.8-3.2c0.7-1.7,2-3,4-3.7c1.5-0.5,1.6-0.6,1.6-2.2l0-0.1
		c0-0.1,0-0.2,0-0.2c0.1-0.8-0.1-1.4-0.6-2c-0.7-0.8-1.1-1.9-1.1-3.2l0-0.4c0-1.2,0-2.4,0-3.5c0.1-3,2.5-5.4,5.5-5.4h0
		c3.1,0,5.5,2.3,5.6,5.3c0.1,1.4,0,2.9,0,4c0,1.2-0.5,2.4-1.4,3.5c-0.2,0.3-0.4,0.7-0.4,1.2c-0.1,0.6-0.1,1.2,0,2
		c0,0.3,0.3,0.6,0.5,0.7c0.3,0.1,0.6,0.2,0.9,0.3c0.1,0,0.3,0.1,0.4,0.1c1.8,0.7,3.1,1.9,3.9,3.7l0.1,0.2l0.2-0.1
		c0.1-0.1,0.2-0.1,0.2-0.2c0.9-2,2.5-3.3,5-4c0.6-0.2,0.8-0.5,0.7-1.1c0-0.2,0-0.4,0-0.6c0.1-1.2-0.2-2.1-0.9-2.9
		c-0.6-0.7-0.9-1.6-0.9-2.8c0-1.3,0-2.6,0-3.8c0.1-3.1,2.4-5.5,5.5-5.6l0.2,0c2.9,0,5.3,2.2,5.5,5.2c0.1,1.6,0,3.1-0.1,4.7
		c-0.1,0.9-0.4,1.8-1.3,2.9c-0.2,0.3-0.4,0.8-0.4,1.2c0,0.1,0,0.3,0,0.5c-0.1,0.7-0.2,1.4,0.2,1.8c0.3,0.4,0.8,0.6,1.4,0.8
		c0.2,0.1,0.4,0.1,0.6,0.2c1.7,0.7,2.9,1.9,3.6,3.6l0.1,0.2l0.2-0.1c0.1,0,0.2-0.1,0.2-0.2c0.9-2,2.5-3.3,4.6-3.8
		c0.6-0.2,1.3-0.5,1.1-1.6c0-0.1,0-0.3,0-0.4c0.1-0.9,0-1.8-0.8-2.6c-0.7-0.7-1-1.8-1-3l0-1c0-1,0-2,0-3c0.1-3,2.5-5.4,5.6-5.4
		c0.1,0,0.3,0,0.4,0l0.1,0c0.4,0,0.7-0.2,0.9-0.6c0.6-1.1,1.7-1.8,2.9-1.8c0.2,0,0.3,0,0.5,0c1.4,0.2,2.5,1.3,2.8,2.7
		c0.3,1.3-0.4,2.7-1.6,3.4C55,34.6,55,35,55,35.3l0,0.4c0,1.5,0,3.1,0,4.6c0,1.3-0.7,2.3-1.3,3c-0.2,0.3-0.4,0.7-0.4,1.1
		c0,0.3,0,0.6,0,0.9c0,0.3,0,0.6,0,0.9c-0.1,0.8,0.4,1,0.8,1.2c0.6,0.2,1.2,0.4,1.7,0.6c2,1,3.2,2.6,3.6,4.8c0.1,0.5,0.2,1,0.3,1.5
		l0.2,1c0.2,1.2-0.1,2.3-0.8,3.2c-0.7,0.9-1.8,1.4-2.9,1.4c-2,0-3.9,0-5.9,0c-2.5,0-4.9,0-7.4,0c-1.2,0-2.2-0.5-3-1.5l-0.2-0.2
		l-0.2,0.2c-1.1,1.3-2.5,1.5-3.8,1.5l-0.1,0c-1.5,0-3.1,0-4.6,0l-6.3,0c-2.5,0-2.5,0-4.5-1.5l-0.2-0.1L20,58.6
		c-1.1,1.3-2.5,1.4-3.9,1.4L15.9,60z M21.9,51.7c0,0.1-0.1,0.2-0.1,0.3c-0.1,0.4-0.2,0.7-0.2,1.1c-0.2,1-0.5,2-0.6,3
		c-0.1,0.6,0.3,1.3,0.7,1.8c0.4,0.6,1.1,0.8,1.9,0.8c0.2,0,0.5,0,0.7,0l0.2,0v-0.2c0-0.4,0-0.9,0-1.3c0-1,0-2,0-3
		c-0.1-1.3-1-2.3-2.3-2.5l-0.1,0L21.9,51.7z M37.7,51.5c-0.1,0-0.3,0-0.4,0.1c-1.1,0.5-1.7,1.3-1.8,2.4c-0.1,1,0,2,0,3
		c0,0.4,0,0.9,0,1.3v0.2l0.9,0c0.1,0,0.2,0,0.4,0c0.7-0.1,1.4-0.4,1.8-0.9c0.4-0.5,0.6-1,0.5-1.6c-0.1-1-0.3-2-0.5-2.9
		c-0.1-0.4-0.2-0.7-0.2-1.1C38.2,51.6,37.9,51.5,37.7,51.5z M2.2,51.9C2.1,52.1,2,52.3,2,52.6c-0.2,0.8-0.3,1.7-0.5,2.5l0,0.2
		c-0.2,1,0,1.8,0.5,2.4c0.5,0.6,1.2,0.9,2.1,0.9l0,0c0.2,0,0.5,0,0.7-0.1l0.2,0v-0.2c0-0.4,0-0.9,0-1.3c0-1,0-2.1,0-3.1
		c-0.1-1.2-1-2.2-2.4-2.4l-0.2,0C2.4,51.5,2.2,51.8,2.2,51.9z M57.5,51.5c-1.3,0.2-2.3,1.2-2.4,2.4C55,54.9,55,56,55,57
		c0,0.4,0,0.9,0,1.3v0.2l0.2,0c0.2,0,0.5,0.1,0.7,0.1l0,0c0.9,0,1.6-0.3,2.1-0.9c0.5-0.6,0.7-1.4,0.5-2.4l-0.1-0.6
		c-0.1-0.6-0.2-1.2-0.3-1.8c-0.1-0.3-0.2-0.6-0.3-0.9l-0.2-0.5L57.5,51.5z M18.3,51.5c-1.5,0.3-2.4,1.4-2.4,2.8c0,0.7,0,1.3,0,2
		l0,2.2l0.2,0c0.2,0,0.3,0,0.5,0l0,0c1.1,0,1.9-0.3,2.3-0.9c0.5-0.6,0.7-1.5,0.5-2.6l-0.1-0.4c-0.1-0.6-0.2-1.2-0.3-1.8
		c-0.1-0.3-0.2-0.6-0.3-0.9c0-0.1-0.2-0.6-0.2-0.6L18.3,51.5z M41.1,52.8c-0.2,0.8-0.4,1.6-0.5,2.5c-0.2,1,0,1.9,0.5,2.5
		c0.5,0.6,1.2,0.9,2.2,0.9l0,0c0.2,0,0.4,0,0.7,0l0.2,0v-0.2c0-0.4,0-0.9,0-1.3c0-1,0-2,0-3c-0.1-1.4-1.1-2.4-2.5-2.6l-0.2,0
		L41.1,52.8z M26.5,48.6c-0.4,0-0.8,0.1-1.2,0.3c-0.5,0.2-0.9,0.4-1.5,0.7l-1.2,0.5l0.4,0.2c2.1,1,2.9,2.6,2.8,5c0,0.7,0,1.4,0,2.1
		c0,0.3,0,0.6,0,1v0.2h8.2l0-1.9c0-0.8,0-1.5,0-2.3c0-1.8,0.9-3.1,2.7-4.1l0.3-0.2c0,0-0.6-0.4-0.8-0.4c-0.3-0.2-0.6-0.3-0.9-0.5
		c-0.3-0.1-0.6-0.2-0.9-0.4c-0.2-0.1-0.5-0.2-0.7-0.3c-0.2-0.1-0.4-0.1-0.5-0.1c-0.2,0-0.5,0.1-0.7,0.2c-0.9,0.5-1.8,0.8-2.7,0.8
		c-0.7,0-1.5-0.2-2.2-0.5C27.3,48.7,26.9,48.6,26.5,48.6z M46.3,48.3c-0.4,0.2-0.8,0.3-1.3,0.5c-0.8,0.3-1.6,0.6-2.3,1.2l-0.2,0.2
		l0.3,0.1c1.9,1,2.8,2.5,2.6,4.8c0,0.7,0,1.5,0,2.2c0,0.3,0,1.2,0,1.2h8.2l0-1.5c0-0.9,0-1.9,0-2.8c0-1.5,0.7-2.7,2-3.6
		c0.1-0.1,0.3-0.2,0.5-0.3l0.7-0.4l-1.3-0.5c-0.6-0.3-1.2-0.5-1.8-0.7c-0.4-0.2-0.7-0.3-1-0.3c-0.5,0-0.6,0.4-0.9,1.2
		c-0.1,0.2-0.1,0.4-0.2,0.6c-0.2,0.6-0.4,1.2-0.6,1.7c-0.3,0.7-0.9,1.1-1.6,1.1c-0.6,0-1.2-0.3-1.5-1c-0.2-0.4-0.4-0.8-0.5-1.2
		c-0.1-0.2-0.1-0.3-0.2-0.5C47.1,50,47,49.5,46.8,49l-0.3-0.8L46.3,48.3z M6.9,48.6c-0.5,0-1,0.1-1.5,0.4c-0.1,0-0.2,0.1-0.3,0.1
		c-0.1,0-0.2,0.1-0.4,0.1c-0.3,0.1-0.5,0.3-0.8,0.5l-0.6,0.4l0.3,0.2c2.2,1.4,2.7,2.3,2.7,4.9v3.4h8.2c0,0,0-0.9,0-1.3
		c0-0.8,0-1.5,0-2.3c-0.1-2.2,0.8-3.7,2.7-4.7l0.3-0.1L17.2,50c-0.8-0.7-1.7-1-2.6-1.3c-0.3-0.1-0.6-0.2-0.9-0.3l0,0l-0.1,0
		c-0.2,0-0.3,0.1-0.5,0.2c-1,0.6-1.9,0.8-2.8,0.8c-0.7,0-1.3-0.2-2-0.4C7.9,48.7,7.4,48.6,6.9,48.6z M47.1,45.1c0,0.2,0,0.5,0,0.7
		c0,0.7-0.1,1.4,0.6,2c0.2,0.2,0.3,0.5,0.4,0.8l0.1,0.2c0.1,0.4,0.3,0.7,0.4,1.1c0.1,0.3,0.2,0.6,0.3,0.9c0.1,0.2,0.2,0.3,0.3,0.5
		c0,0.1,0.2,0.3,0.2,0.3l0.3,0l0.2-0.1L50,51c0.1-0.3,0.2-0.7,0.4-1c0.1-0.2,0.2-0.5,0.2-0.7c0.2-0.6,0.4-1.1,0.7-1.5
		c0.6-0.7,0.6-1.4,0.6-2.1c0-0.2,0-0.4,0-0.7l0-0.3l-0.3,0.1c-0.7,0.3-1.4,0.4-2.1,0.4c-0.7,0-1.4-0.1-2.1-0.4l-0.3-0.1L47.1,45.1z
		 M7.9,45.6c0,0.4,0,0.8,0,1.1c0,0.3,0.3,0.6,0.5,0.8c0.6,0.3,1.3,0.5,1.9,0.5l0,0c0.6,0,1.3-0.2,1.9-0.5c0.2-0.1,0.5-0.4,0.5-0.7
		c0-0.4,0-0.8,0-1.2l0-0.8l-0.3,0.1c-0.7,0.3-1.4,0.4-2.1,0.4c-0.7,0-1.4-0.1-2.1-0.4L8,44.8C8,44.8,8,45.5,7.9,45.6z M27.5,45.6
		c0,0.4,0,0.8,0,1.1c0,0.3,0.3,0.6,0.5,0.8c0.6,0.3,1.3,0.5,1.9,0.5c0.6,0,1.3-0.2,1.9-0.5c0.2-0.1,0.5-0.3,0.5-0.6
		c0-0.4,0-0.9,0-1.3l0-0.7L32.1,45c-1.1,0.2-1.6,0.4-2.2,0.4c-0.5,0-1.1-0.1-2.2-0.4l-0.2-0.1C27.5,44.9,27.5,45.5,27.5,45.6z
		 M28.1,37.2c-0.4,0-0.7,0.1-1.2,0.3c-1.3,0.6-1.3,1.4-1.2,2.4l0,0.1c0.2,1.7,1,2.8,2.5,3.5c0.6,0.3,1.2,0.4,1.8,0.4
		c0.8,0,1.6-0.3,2.4-0.8c1.9-1.4,2-3.4,1.8-5l0-0.2L33.7,38c-0.1,0-0.2,0-0.3,0c-0.4,0.1-0.9,0.1-1.3,0.1c-1,0-2.1-0.2-3-0.7
		C28.7,37.3,28.4,37.2,28.1,37.2z M47.6,37.2c-0.4,0-0.7,0.1-1.2,0.4c-1.1,0.6-1.2,1.3-1.1,2.2c0,0.1,0,0.1,0,0.2c0,0.1,0,0.1,0,0.2
		c0.2,1.6,1.1,2.8,2.6,3.4c0.6,0.2,1.1,0.3,1.6,0.3c0.9,0,1.8-0.3,2.6-1c1.6-1.3,1.7-3.1,1.6-4.7l0-0.1l-0.2,0l-0.2,0
		c-0.1,0-0.3,0-0.4,0c-0.5,0.1-0.9,0.1-1.4,0.1c-1,0-2-0.2-2.9-0.7C48.3,37.3,47.9,37.2,47.6,37.2z M8.5,37.2
		c-0.4,0-0.7,0.1-1.2,0.4c-1.1,0.6-1.2,1.2-1.1,2.1c0,0.1,0,0.1,0,0.2c0,0.1,0,0.1,0,0.2c0.2,1.6,1,2.8,2.4,3.5
		c0.6,0.3,1.2,0.4,1.8,0.4l0,0c0.8,0,1.6-0.3,2.4-0.8c1.9-1.4,2-3.4,1.8-5l0-0.2l-0.2,0c-0.6,0.1-1.2,0.2-1.8,0.2
		c-1,0-2-0.2-2.9-0.7C9.1,37.3,8.8,37.2,8.5,37.2z M47.3,35.4c0.2,0,0.6,0.2,1.1,0.5c1.1,0.6,2.2,1,3.3,1c0.5,0,0.9-0.1,1.4-0.2
		c0.3-0.1,0.7-0.3,0.6-0.9c-0.2-1.3-0.7-2.3-1.7-3c-0.7-0.5-1.6-0.8-2.5-0.8c-0.7,0-1.5,0.2-2.1,0.5c-1.4,0.8-2.3,2.4-2.1,3.9l0,0.3
		l0.4-0.2c0.1,0,0.1-0.1,0.2-0.1c0.1-0.1,0.2-0.2,0.3-0.3C46.8,35.6,47.1,35.4,47.3,35.4z M8.2,35.4c0.2,0,0.6,0.2,1.1,0.5
		c1.1,0.6,2.2,0.9,3.2,0.9c0.5,0,0.9-0.1,1.4-0.2c0.3-0.1,0.5-0.2,0.6-0.4c0.1-0.2,0.1-0.4,0-0.6c-0.1-0.2-0.1-0.3-0.2-0.5
		c-0.2-0.6-0.4-1.2-0.7-1.6c-0.7-1-1.9-1.6-3.3-1.6c-0.6,0-1.1,0.1-1.6,0.3c-1.7,0.7-2.7,2.4-2.6,4.2l0,0.3l0.5-0.3
		c0.1-0.1,0.3-0.2,0.4-0.3C7.7,35.6,7.9,35.4,8.2,35.4z M27.8,35.4c0.2,0,0.5,0.2,1,0.4c1.1,0.7,2.2,1,3.3,1c0.5,0,1-0.1,1.4-0.2
		c0.5-0.1,0.7-0.4,0.6-0.9c-0.2-2.2-2.1-3.8-4.2-3.8c-0.3,0-0.6,0-0.9,0.1c-2,0.4-3.5,2.5-3.2,4.4l0.1,0.3l0.5-0.3
		c0.2-0.1,0.3-0.2,0.4-0.3C27.2,35.6,27.5,35.4,27.8,35.4z M53.8,29.5c-0.8,0-1.4,0.5-1.8,1.2L52,30.9l2.5,2.4l0.1-0.1
		c0.8-0.4,1.2-1.2,1.1-2c-0.2-0.9-0.9-1.5-1.7-1.6C54,29.5,53.9,29.5,53.8,29.5z"/>
	
		<linearGradient id="SVGID_00000141413083165570568380000003253756770629692289_" gradientUnits="userSpaceOnUse" x1="48.1283" y1="-10.2736" x2="-9.2487" y2="46.98">
		<stop  offset="0" style="stop-color:#00BEFE"/>
		<stop  offset="1" style="stop-color:#02519B"/>
	</linearGradient>
	<path style="fill:url(#SVGID_00000141413083165570568380000003253756770629692289_);" d="M26.7,15c-0.3,0-0.6-0.1-0.8-0.2
		c-0.2-0.1-0.5-0.4-0.6-0.6c-0.1-0.2-0.2-0.5-0.2-0.8v-2.7l1.2-0.6l-1.2-0.6V6.9c0-0.3,0.1-0.6,0.2-0.8c0.1-0.3,0.4-0.5,0.6-0.6
		c0.2-0.1,0.5-0.2,0.8-0.2l2.6,0v0.5h-2.1c-0.4,0.1-0.7,0.4-0.7,0.8v3.3h1.3V9.4h1.4V15H26.7z M26.5,13.7c0,0.4,0.3,0.7,0.6,0.8
		c0.1,0,0.1,0,0.2,0c0.1,0,0.3,0,0.4-0.1l0.1-0.1v-3.9h-1.3V13.7z"/>
	
		<linearGradient id="SVGID_00000101069104547612141170000005654624036445991092_" gradientUnits="userSpaceOnUse" x1="44.5779" y1="-8.3734" x2="-4.1324" y2="40.2321">
		<stop  offset="0" style="stop-color:#00BEFE"/>
		<stop  offset="1" style="stop-color:#02519B"/>
	</linearGradient>
	<rect x="27.9" y="6.6" style="fill:url(#SVGID_00000101069104547612141170000005654624036445991092_);" width="1.4" height="1.9"/>
	
		<linearGradient id="SVGID_00000178899406379914174710000006394371894857653164_" gradientUnits="userSpaceOnUse" x1="50.1297" y1="-7.9172" x2="-5.9258" y2="48.0178">
		<stop  offset="0" style="stop-color:#00BEFE"/>
		<stop  offset="1" style="stop-color:#02519B"/>
	</linearGradient>
	<path style="fill:url(#SVGID_00000178899406379914174710000006394371894857653164_);" d="M33.4,13.6v-3.2h-1.3v0.5h-1.4V5.2h2.6
		c0.3,0,0.6,0.1,0.8,0.2c0.2,0.1,0.5,0.4,0.6,0.6c0.1,0.2,0.2,0.5,0.2,0.8v2.7l-1.2,0.6l1.2,0.6v2.7c0,0.1,0,0.2,0,0.3H33.4z
		 M32.1,9.9h1.3V6.6c0-0.4-0.3-0.7-0.6-0.8c-0.1,0-0.1,0-0.2,0h-0.5V9.9z"/>
	
		<linearGradient id="SVGID_00000040568498125794970750000013832264294942055309_" gradientUnits="userSpaceOnUse" x1="50.0494" y1="-4.3758" x2="-1.5888" y2="47.1513">
		<stop  offset="0" style="stop-color:#00BEFE"/>
		<stop  offset="1" style="stop-color:#02519B"/>
	</linearGradient>
	<path style="fill:url(#SVGID_00000040568498125794970750000013832264294942055309_);" d="M30.6,15v-3.3h1.4v2.8h2.3
		c-0.1,0.1-0.2,0.2-0.4,0.3c-0.2,0.1-0.5,0.2-0.8,0.2H30.6z"/>
</g>
</svg>
