<?xml version="1.0" encoding="utf-8"?>
<!-- Generator: Adobe Illustrator 26.2.1, SVG Export Plug-In . SVG Version: 6.00 Build 0)  -->
<svg version="1.1" id="Layer_1" xmlns="http://www.w3.org/2000/svg" xmlns:xlink="http://www.w3.org/1999/xlink" x="0px" y="0px"
	 viewBox="0 0 60 60" style="enable-background:new 0 0 60 60;" xml:space="preserve">
<style type="text/css">
	.st0{fill:url(#SVGID_1_);}
	.st1{fill:url(#SVGID_00000150081145139920947850000012735026213530666641_);}
	.st2{fill:url(#SVGID_00000119100994228109935610000013072028132757534633_);}
	.st3{fill:url(#SVGID_00000039130266977204745380000004794052579614666928_);}
</style>
<g>
	<linearGradient id="SVGID_1_" gradientUnits="userSpaceOnUse" x1="53.6723" y1="-2.6268" x2="-2.585" y2="53.9981">
		<stop  offset="0" style="stop-color:#00BEFE"/>
		<stop  offset="1" style="stop-color:#02519B"/>
	</linearGradient>
	<path class="st0" d="M18.1,34.7c-0.4,0-0.7-0.3-0.7-0.7c0-0.4,0-0.7,0-1.1l0-2.1c0-1.4,0-2.9,0-4.3c0-0.7,0.1-0.9,0.5-1.1
		c0.1,0,0.2,0,0.2,0c0.3,0,0.5,0.2,0.8,0.6l3.7,4.6c0.1,0.1,0.6,0.7,0.6,0.7l0.7,0.8l0-3.5c0-0.8,0-1.7,0-2.5c0-0.3,0.1-0.6,0.7-0.7
		c0,0,0,0,0,0c0.4,0,0.7,0.3,0.7,0.6c0,2.7,0,5.4,0,8.1c0,0.1-0.3,0.5-0.5,0.6c0,0,0,0,0,0c-0.3,0-0.7-0.2-0.8-0.3
		c-1-1.1-1.9-2.3-2.9-3.5l-1.6-2l-0.7,0.1l0,4.6c0,0.2,0,0.3,0,0.5C18.7,34.4,18.5,34.7,18.1,34.7L18.1,34.7z"/>
	
		<linearGradient id="SVGID_00000085227213146982737330000003721007724204549282_" gradientUnits="userSpaceOnUse" x1="57.6547" y1="1.212" x2="1.8881" y2="57.343">
		<stop  offset="0" style="stop-color:#00BEFE"/>
		<stop  offset="1" style="stop-color:#02519B"/>
	</linearGradient>
	<path style="fill:url(#SVGID_00000085227213146982737330000003721007724204549282_);" d="M28.9,34.7c-0.3,0-0.7-0.1-0.7-0.6
		c0-2.7,0-5.4,0-8.1c0-0.5,0.4-0.6,0.7-0.6c0.7,0,1.4,0,2.1,0c0.7,0,1.5,0,2.2,0c0.2,0,0.4,0.1,0.6,0.2c0.1,0.1,0.1,0.2,0.1,0.4
		c0,0.3-0.1,0.6-0.7,0.6c-0.4,0-0.8,0-1.3,0l-2.3,0v2.8l2.1,0l1.2,0c0.4,0,0.7,0.1,0.9,0.3c0.1,0.1,0.1,0.2,0.1,0.4
		c0,0.5-0.7,0.6-1,0.6l-3.4,0l0,2.9c0,0.2,0,0.3,0,0.5C29.6,34.6,29.2,34.7,28.9,34.7L28.9,34.7z"/>
	
		<linearGradient id="SVGID_00000112619937182114994820000008548960664178789765_" gradientUnits="userSpaceOnUse" x1="62.5361" y1="5.9634" x2="7.4804" y2="61.3789">
		<stop  offset="0" style="stop-color:#00BEFE"/>
		<stop  offset="1" style="stop-color:#02519B"/>
	</linearGradient>
	<path style="fill:url(#SVGID_00000112619937182114994820000008548960664178789765_);" d="M39.8,34.7c-0.5,0-0.7-0.3-0.7-1l0-7.1
		h-0.4c-0.2,0-0.8,0-0.8,0c-0.1,0-0.2,0-0.4,0c-0.4-0.1-0.6-0.3-0.6-0.6c0-0.4,0.2-0.6,0.6-0.6c0.7,0,1.5,0,2.2,0c0.7,0,1.5,0,2.2,0
		c0.4,0,0.6,0.2,0.6,0.6c0,0.1,0,0.5-0.7,0.6c-0.1,0-0.2,0-0.4,0c0,0-0.6,0-0.7,0h-0.4l0,7.1C40.5,34.7,40,34.7,39.8,34.7L39.8,34.7
		z"/>
	
		<linearGradient id="SVGID_00000037690615451779638150000012428619717387413391_" gradientUnits="userSpaceOnUse" x1="59.8516" y1="-4.270672e-02" x2="0.6041" y2="59.5921">
		<stop  offset="0" style="stop-color:#00BEFE"/>
		<stop  offset="1" style="stop-color:#02519B"/>
	</linearGradient>
	<path style="fill:url(#SVGID_00000037690615451779638150000012428619717387413391_);" d="M30,60c-1.7,0-3.1-1-3.7-2.4
		c-0.7-1.8,0.2-3.8,2.1-4.5c0.7-0.3,1-0.7,1-1.4c0-0.8,0-1.6,0-2.4l0-1.1l-8.4-4.2v0.6c0,0.4,0,0.7,0,1c0,0.8,0,1.6,0,2.3
		c0,0.3-0.2,0.7-0.4,1c-0.1,0.2-0.3,0.3-0.5,0.5l-0.2,0.1c-0.9,0.7-1.9,1.6-1.2,3.4c0.3,0.9,0.1,1.7-0.2,2.2c-0.6,1-1.7,1.8-3,2
		c-0.2,0-0.5,0.1-0.7,0.1c-1.8,0-3.5-1.3-3.9-3c-0.2-1,0-1.9,0.5-2.8c0.6-0.8,1.5-1.4,2.5-1.6c0.2,0,0.4,0,0.6,0
		c0.6,0,1.3,0.1,1.9,0.3c0.2,0,0.3,0,0.4,0c0.3,0,0.6-0.1,0.9-0.3c1.7-1.2,1.9-2.8,1.9-4.4c0-1.4-0.2-2.7-2.2-3.4
		c-0.3-0.1-0.5-0.2-0.8-0.4c-0.2-0.1-0.4-0.2-0.5-0.3c-2.1-1-3.1-2.5-3.1-4.6c0-0.1,0-0.3,0-0.4c0-0.1,0-0.1,0-0.2l-0.1-0.3
		l-0.3-0.1H7.9L7.8,36c-0.5,1.5-1.5,2.3-3,2.6c-0.3,0.1-0.6,0.1-0.9,0.1c-1.7,0-3.3-1.1-3.8-2.6c-0.6-1.8,0.4-3.8,2.3-4.5
		c0.5-0.2,1-0.2,1.5-0.2c1.6,0,2.9,0.8,3.5,2.1c0.3,0.7,0.7,0.9,1.4,0.9l0.1,0c0.5,0,0.9,0,1.4,0l2.5,0v-8.8H7.9l-0.1,0.3
		c-0.5,1.4-1.5,2.3-3,2.6c-0.3,0.1-0.6,0.1-0.9,0.1c-1.7,0-3.3-1.1-3.8-2.6c-0.6-1.8,0.4-3.8,2.3-4.5c0.5-0.2,1-0.2,1.5-0.2
		c1.6,0,2.9,0.8,3.5,2.1c0.3,0.7,0.7,0.9,1.4,0.9l0.1,0c0.5,0,0.9,0,1.4,0l2.5,0l0-0.4c0-0.2,0-0.4,0-0.6c0-0.4,0-0.8,0.1-1.1
		c0.1-0.4,0.3-0.6,0.7-0.6l0.1,0c0.4,0,0.6,0.3,0.6,0.7c0,3.4,0,6.7-0.1,10.1c0,1.4,0,2.9,0,4.3c0,1.4,0.7,2.5,2,3.2l3.2,1.7
		c2.8,1.4,5.5,2.9,8.3,4.3c0.7,0.4,1.4,0.6,2.1,0.6c0.7,0,1.4-0.2,2.2-0.6c2.9-1.5,5.7-3,8.6-4.5l2.8-1.4c1.3-0.7,2-1.8,2-3.2
		c0-4.6,0-9.1,0-13.7c0-1.4-0.7-2.5-2-3.2l-2.8-1.4c-2.7-1.4-5.5-2.8-8.3-4.3c-0.9-0.5-1.7-0.7-2.5-0.7c-0.8,0-1.6,0.2-2.5,0.7
		c-2.4,1.3-4.9,2.6-7.3,3.8c-1,0.5-2,1-3,1.6c-0.3,0.1-0.5,0.2-0.7,0.2c-0.2,0-0.4-0.1-0.5-0.3c-0.1-0.1-0.1-0.3-0.1-0.4
		c0.1-0.2,0.3-0.4,0.6-0.6c0.3-0.1,0.5-0.3,0.8-0.4c0.5-0.3,1.1-0.6,1.6-0.9c0.3-0.2,0.6-0.7,0.6-1c0-1.2,0-2.3,0-3.5
		c0-0.4-0.3-0.8-0.5-1.1c-0.1-0.2-0.3-0.3-0.4-0.4c-0.1-0.1-0.2-0.1-0.2-0.2c-0.5-0.7-1.1-1-1.8-1c-0.3,0-0.6,0.1-1,0.2
		c-0.3,0.1-0.7,0.1-1,0.1c-1.7,0-3.3-1.2-3.7-2.8c-0.2-0.9-0.1-1.9,0.4-2.7C11.8,4,12.7,3.3,13.8,3c0.3-0.1,0.6-0.1,1-0.1
		c1.8,0,3.4,1.1,3.9,2.8c0.2,0.8,0.2,1.6-0.2,2.4c-0.3,0.6-0.2,1,0.3,1.4c1.9,1.2,2.6,2.9,2.2,5c0,0.2,0,0.4,0,0.7
		c0,0.1,0,0.2,0,0.3v0.6l8.3-4.2V7.3L29,7.2c-1.6-0.5-2.5-1.4-2.8-2.8c-0.5-1.9,0.7-3.7,2.7-4.3C29.2,0.1,29.6,0,30,0
		c1.6,0,3.1,0.9,3.7,2.4c0.4,0.9,0.4,1.8,0,2.7c-0.4,0.9-1.1,1.5-2,1.9c-0.7,0.3-1,0.7-1,1.5c0,0.8,0,1.6,0,2.4l0,1.1l8.4,4.2v-0.6
		c0-0.3,0-0.7,0-1c0-0.8,0-1.6,0-2.3c0-0.4,0.2-0.8,0.5-1.1c0.4-0.5,1-1,1.5-1.5l0.1-0.1c0.5-0.4,0.6-0.9,0.3-1.4
		c-0.7-1.5-0.4-2.8,0.7-3.9c0.8-0.8,1.8-1.2,2.8-1.2c0.4,0,0.8,0.1,1.2,0.2c1.6,0.5,2.6,1.5,2.9,3.1c0.2,1-0.1,1.9-0.8,2.7
		c-0.8,0.9-1.9,1.4-3.2,1.4c-0.5,0-0.9-0.1-1.4-0.2C43.6,10,43.4,10,43.3,10c-0.4,0-0.7,0.2-1.1,0.4c-1.4,1-1.9,2.2-1.7,3.9
		c0,0.3,0,0.6,0,0.9c0,0.6-0.1,1.1,0.2,1.6c0.3,0.5,0.9,0.8,1.5,1c0.2,0.1,0.5,0.2,0.7,0.3c0.4,0.2,0.8,0.4,1.2,0.6c2,1,3,2.5,3,4.6
		l0,1l2.4,0c0.7,0,1.4,0,2.1,0c0.4,0,0.7-0.5,0.8-0.7c0.7-1.4,2.1-2.3,3.7-2.3c0.1,0,0.2,0,0.3,0c1.7,0.1,3.1,1.2,3.6,2.8
		c0.5,1.8-0.6,3.6-2.5,4.3c-0.4,0.1-0.9,0.2-1.4,0.2c-1.6,0-3-0.8-3.5-2.1c-0.3-0.6-0.7-0.9-1.4-0.9l-0.1,0c-0.5,0-1,0-1.5,0l-2.5,0
		v8.9l2.3,0c0.7,0,1.5,0,2.2,0c0.4,0,0.7-0.5,0.8-0.7c0.7-1.4,2.1-2.3,3.7-2.3c0.1,0,0.2,0,0.3,0c1.7,0.1,3.1,1.2,3.5,2.8
		c0.5,1.8-0.6,3.6-2.5,4.3c-0.4,0.1-0.9,0.2-1.4,0.2c-1.6,0-3-0.8-3.5-2.1c-0.3-0.6-0.7-0.9-1.4-0.9l-0.1,0c-0.5,0-1,0-1.5,0l-2.5,0
		l0,0.3c0,0.2,0,0.4,0,0.6c0,0.4-0.1,0.8-0.1,1.2c-0.3,1.4-1.1,2.5-2.6,3.3c-0.4,0.2-0.8,0.4-1.2,0.6c-0.7,0.3-1.4,0.7-2,1.1
		c-0.3,0.2-0.6,0.6-0.6,1c0,0.4,0,0.7,0,1.1c0,0.5,0,1,0,1.5c-0.3,1.5,0.7,2.3,1.5,2.9c0.2,0.2,0.5,0.4,0.7,0.6
		c0.1,0.1,0.2,0.2,0.4,0.2c0.2,0,0.6-0.1,0.7-0.1c0.5-0.2,1-0.3,1.6-0.3c1.9,0,3.5,1.2,3.9,2.8c0.4,1.5-0.3,3.1-1.7,4
		c-0.7,0.4-1.4,0.6-2.2,0.6c-0.9,0-1.8-0.3-2.5-0.8c-1.4-1-1.9-2.6-1.3-4.1c0.4-0.8,0.2-1.4-0.5-1.9c-1.6-1.1-2.2-2.5-1.9-4.2
		c0.1-0.3,0-0.7,0-1c0-0.2,0-0.3,0-0.5v-0.6l-8.4,4.2l0,1.1c0,0.9,0,1.9,0,2.9c0,0.4,0.5,0.8,0.8,0.9c1.6,0.7,2.6,2.1,2.4,3.6
		c-0.1,1.6-1.3,2.9-3,3.3C30.6,60,30.3,60,30,60z M30,53.9c-1.4,0-2.5,1.1-2.6,2.4c0,0.6,0.3,1.2,0.8,1.7c0.5,0.5,1.1,0.7,1.8,0.7
		c1.4,0,2.5-1.1,2.6-2.4c0-0.6-0.2-1.2-0.7-1.6C31.4,54.2,30.7,53.9,30,53.9L30,53.9z M14.8,50.9c-0.7,0-1.4,0.3-1.8,0.8
		c-0.4,0.5-0.7,1-0.7,1.6c0,1.3,1.2,2.4,2.5,2.4c0.7,0,1.4-0.3,1.9-0.8c0.4-0.5,0.7-1,0.7-1.6C17.3,51.9,16.2,50.9,14.8,50.9
		L14.8,50.9L14.8,50.9z M45.2,50.9c-0.7,0-1.3,0.3-1.8,0.7c-0.5,0.5-0.8,1.1-0.8,1.7c0,1.3,1.2,2.4,2.5,2.4c0.7,0,1.4-0.3,1.9-0.8
		c0.4-0.5,0.7-1,0.7-1.6C47.7,52,46.6,50.9,45.2,50.9L45.2,50.9z M3.9,32.7c-0.7,0-1.4,0.3-1.8,0.8c-0.4,0.5-0.7,1-0.7,1.7
		c0,1.3,1.2,2.4,2.6,2.4c0.7,0,1.4-0.3,1.9-0.8c0.4-0.5,0.7-1,0.7-1.6C6.5,33.7,5.3,32.7,3.9,32.7L3.9,32.7L3.9,32.7z M56,32.7
		c-0.7,0-1.4,0.3-1.8,0.8c-0.4,0.5-0.7,1-0.7,1.6c0,1.3,1.2,2.4,2.6,2.4c0.7,0,1.4-0.3,1.9-0.8c0.4-0.5,0.7-1,0.7-1.6
		C58.6,33.7,57.4,32.7,56,32.7L56,32.7L56,32.7z M3.9,22.5c-0.7,0-1.4,0.3-1.8,0.8c-0.4,0.5-0.7,1-0.7,1.6c0,1.3,1.2,2.4,2.6,2.4
		c0.7,0,1.4-0.3,1.9-0.8c0.4-0.5,0.7-1,0.7-1.6C6.5,23.6,5.3,22.5,3.9,22.5L3.9,22.5L3.9,22.5z M56,22.5c-0.7,0-1.4,0.3-1.8,0.8
		c-0.4,0.5-0.7,1-0.7,1.7c0,1.3,1.2,2.4,2.5,2.4c0.7,0,1.4-0.3,1.9-0.8c0.4-0.5,0.7-1,0.7-1.6C58.6,23.6,57.4,22.5,56,22.5L56,22.5
		L56,22.5z M45.2,4.3c-1.4,0-2.5,1.1-2.6,2.4c0,0.6,0.2,1.2,0.7,1.7c0.5,0.5,1.2,0.8,1.8,0.8h0c1.4,0,2.6-1.1,2.6-2.4
		c0-0.6-0.2-1.2-0.7-1.6C46.6,4.6,45.9,4.3,45.2,4.3L45.2,4.3z M14.8,4.3c-1.4,0-2.5,1.1-2.5,2.4c0,1.3,1.1,2.4,2.5,2.4h0
		c1.4,0,2.6-1.1,2.6-2.4c0-0.6-0.2-1.2-0.7-1.6C16.2,4.6,15.5,4.3,14.8,4.3L14.8,4.3z M30,1.3c-1.4,0-2.5,1.1-2.5,2.4
		c0,1.3,1.2,2.4,2.5,2.4c1.4,0,2.6-1.1,2.6-2.4C32.5,2.4,31.4,1.3,30,1.3L30,1.3L30,1.3z"/>
</g>
</svg>
