<?xml version="1.0" encoding="utf-8"?>
<!-- Generator: Adobe Illustrator 26.2.1, SVG Export Plug-In . SVG Version: 6.00 Build 0)  -->
<svg version="1.1" id="Layer_1" xmlns="http://www.w3.org/2000/svg" xmlns:xlink="http://www.w3.org/1999/xlink" x="0px" y="0px"
	 viewBox="0 0 60 60" style="enable-background:new 0 0 60 60;" xml:space="preserve">
<style type="text/css">
	.st0{fill:url(#SVGID_1_);}
	.st1{fill:url(#SVGID_00000021831768680963826470000011022889867933159556_);}
	.st2{fill:url(#SVGID_00000153702400154559569940000004784426202437951146_);}
	.st3{fill:url(#SVGID_00000111911893083187477230000012340315269064726171_);}
	.st4{fill:url(#SVGID_00000006675307819952210790000015492897825560841869_);}
</style>
<g>
	<linearGradient id="SVGID_1_" gradientUnits="userSpaceOnUse" x1="67.469" y1="7.5674" x2="8.5283" y2="66.5082">
		<stop  offset="0" style="stop-color:#00BEFE"/>
		<stop  offset="1" style="stop-color:#02519B"/>
	</linearGradient>
	<path class="st0" d="M3,60c-2,0-3-1-3-2.9L0,55c0-4.5,0-9.1,0-13.6c0-0.5,0.1-0.9,0.3-1.4c0.7-1.7,1.5-3.4,2.2-5.1l0.6-1.3
		c0.4-1,1.2-1.5,2.3-1.5c0.6,0,2.3,0,4,0l6.7,0l0-0.6c0-0.3,0-0.6,0-0.8c0-0.4,0.1-0.9,0.7-0.9c0.5,0,0.7,0.3,0.7,0.9
		c0,1.2,0,2.5,0,3.7l0,2.5h23.8V20.1l-0.1,0c-0.1,0-0.1-0.1-0.2-0.1c-1.4,0.6-2.8,0.7-4.1,0.7c-0.3,0-1.5,0-1.5,0
		c-0.6,0-1.2,0-1.8,0c-0.6,0-1.2,0-1.7,0l-0.2,0c-1.2,0-2.3-0.6-2.9-1.5C28.1,18.1,28,17,28.4,16c0-0.1,0-0.1,0-0.2l0-0.3l-0.4,0
		c-0.2,0-0.3,0-0.5,0l-8.6,0c-1.2,0-1.5,0.3-1.5,1.5c0,2.1,0,9.2,0,9.2c0,0.2,0,0.3,0,0.5c0,0.7-0.4,0.8-0.7,0.8c0,0,0,0,0,0
		c-0.4,0-0.7-0.3-0.7-0.8l0-1c0-3.1,0-6.1,0-9.2c0-1.4,1-2.4,2.4-2.4c0.6,0,1.3,0,1.9,0c0.7,0,1.4,0,2.2,0c0,0,0,0,0,0
		c0.5,0,0.9-0.2,1.2-0.5c0.8-0.8,1.5-1.6,2.3-2.5c1.1-1.1,2.1-2.3,3.2-3.4c1.3-1.5,2.9-2.2,4.8-2.2c0.4,0,0.8,0,1.3,0.1
		c0.7,0.1,1.5,0.2,2.2,0.3l0.2,0c0.1,0,0.2,0,0.3,0l0.7,0l-0.1-0.3c-0.4-1.1-0.1-2,0.9-2.9c0.9-0.8,1.6-1.5,2.2-2.2
		C42.3,0.2,42.9,0,43.6,0c0.7,0,1.3,0.2,1.6,0.5c0.5,0.5,1,1,1.4,1.5c0.3,0.3,0.6,0.6,0.9,0.9c0.2,0.2,0.3,0.4,0.3,0.6
		c0,0.2-0.1,0.3-0.2,0.4c-0.1,0.1-0.3,0.2-0.5,0.2c-0.2,0-0.4-0.1-0.6-0.3c-0.4-0.4-0.8-0.8-1.2-1.2c-0.3-0.3-0.6-0.6-0.9-0.9
		c-0.3-0.3-0.5-0.5-0.8-0.5c-0.3,0-0.5,0.2-0.8,0.4c-0.3,0.3-0.6,0.6-0.9,0.9C41.4,3.1,41,3.6,40.5,4c-0.3,0.2-0.4,0.5-0.4,0.7
		c0,0.3,0.1,0.5,0.4,0.8c2.7,2.7,5.4,5.5,8.2,8.3c0.3,0.3,0.5,0.4,0.8,0.4c0.3,0,0.5-0.1,0.8-0.4c0.8-0.9,1.6-1.6,2.3-2.3
		c0.3-0.3,0.4-0.5,0.4-0.8c0-0.3-0.1-0.5-0.4-0.8c-1-0.9-1.9-1.9-2.8-2.9l-0.5-0.5c-0.3-0.3-0.4-0.6-0.4-0.8c0-0.2,0.1-0.3,0.2-0.4
		c0.1-0.1,0.3-0.2,0.4-0.2c0.2,0,0.5,0.1,0.8,0.4L53.5,9c0.5,0.5,0.8,1.1,0.8,1.7c0,0.6-0.3,1.2-0.8,1.7l-2.3,2.2
		c-0.6,0.6-1.2,0.9-1.8,0.9s-1.2-0.3-1.8-0.9c-0.1-0.1-0.2-0.2-0.3-0.2h-0.1l-0.1,0.2l0,0c-0.3,0.3-0.6,0.6-0.9,0.8
		c-0.8,0.7-1.6,1.5-2.5,2.2c-0.9,0.7-1,1.6-1,2.5c0,2.6,0,5.2,0,7.7l0,4h11.7c1.6,0,2.2,0.4,2.8,1.9l0.5,1.2c0.7,1.6,1.4,3.2,2,4.8
		c0.2,0.5,0.3,1,0.3,1.4c0,5.2,0,10.5,0,15.7c0,2-1,2.9-2.9,2.9L30,60L3,60z M1.4,43.1c0,0.1,0,0.2,0,0.3l0,2c0,3.9,0,7.9,0,11.8
		c0,1,0.4,1.4,1.6,1.4h54c1.2,0,1.6-0.4,1.6-1.6l0-13.4c0-0.2,0-0.3,0-0.5l0-0.4l-2.4,0l-1.4,0c-0.3,0-0.9-0.1-0.9-0.7
		c0-0.2,0-0.3,0.2-0.5c0.2-0.2,0.4-0.3,0.8-0.3c0.2,0,0.8,0,0.8,0l3.2,0l-0.8-2c-0.8-1.8-1.5-3.6-2.3-5.3c-0.1-0.3-0.7-0.5-1-0.6
		c-0.3,0-1.5,0-3.7,0c-1.6,0-3.4,0-4.4,0l-3.8,0v3.3l0.2,0l0,0c0.1,0.1,0.2,0.1,0.2,0.1c0.2,0.1,0.4,0.2,0.5,0.3
		c0.1,0.1,0.1,0.2,0,0.4c-0.1,0.3-0.4,0.5-0.6,0.7l0,0H15.9l-0.1,0c-0.2-0.1-0.4-0.2-0.5-0.3c-0.1-0.1-0.1-0.2-0.1-0.3
		c0-0.2,0.3-0.5,0.6-0.7l0.1-0.1l0,0l0.1-0.2v-3.1l-6.3,0c-1.8,0-3.5,0-4.1,0c0,0,0,0,0,0c-0.7,0-1.1,0.3-1.3,0.9
		c-0.6,1.3-1.1,2.7-1.7,4l-0.9,2.2c0,0.1-0.1,0.2-0.1,0.3l-0.1,0.5l47,0c0.2,0,0.4,0,0.6,0c0.4,0.1,0.6,0.3,0.6,0.7
		c0,0.4-0.2,0.6-0.6,0.7c-0.1,0-0.2,0-0.4,0l-0.3,0H1.5L1.4,43.1z M32.8,15.4c-0.4,0-0.8,0-1.2,0c-0.6,0-1.1,0.2-1.5,0.6
		c-0.3,0.3-0.5,0.8-0.5,1.3c0,1,0.9,1.8,2,1.8c1.1,0,2.1,0,3.2,0c0,0,0,0,0,0c1.1,0,2.1,0,3.2,0c1.5,0,2.8-0.5,3.8-1.4c1-1,2-2,3-3
		c0.4-0.4,0.8-0.9,1.3-1.3l0.1-0.1l-0.1-0.2c0-0.1-0.1-0.1-0.1-0.2l-0.7-0.7c-1.4-1.4-2.8-2.9-4.3-4.3c-0.2-0.2-0.6-0.3-0.8-0.3
		c-0.5-0.1-1.1-0.1-1.7-0.2c-0.9-0.1-1.8-0.2-2.8-0.4c-0.5-0.1-1-0.1-1.4-0.1c-1.6,0-3,0.6-4,1.8c-0.6,0.7-1.3,1.4-1.9,2
		c-0.3,0.3-0.6,0.6-0.9,1L25.3,14h9.3c0.6,0,1,0.1,1.1,0.3c0.1,0.1,0.1,0.2,0.1,0.5c0,0.4-0.1,0.7-1.3,0.7L32.8,15.4z"/>
	
		<linearGradient id="SVGID_00000139280835369738409820000012589979224532220304_" gradientUnits="userSpaceOnUse" x1="57.2887" y1="-1.1059" x2="-4.201714e-02" y2="56.2248">
		<stop  offset="0" style="stop-color:#00BEFE"/>
		<stop  offset="1" style="stop-color:#02519B"/>
	</linearGradient>
	<path style="fill:url(#SVGID_00000139280835369738409820000012589979224532220304_);" d="M27.5,32.8c-0.2,0-0.4-0.1-0.7-0.4
		c-1-1-2-2-3-3c-0.3-0.3-0.4-0.5-0.4-0.7c0-0.2,0.1-0.3,0.2-0.4c0.1-0.1,0.3-0.2,0.4-0.2c0.2,0,0.5,0.1,0.7,0.4
		c0.6,0.6,1.2,1.2,1.8,1.8l0.9,0.9l4.7-4.8c0.7-0.7,1.4-1.4,2.1-2.1c0.2-0.2,0.5-0.4,0.7-0.4c0.2,0,0.3,0.1,0.5,0.2
		c0.1,0.1,0.5,0.5-0.2,1.1c-2.4,2.4-4.8,4.8-7.1,7.2C27.9,32.6,27.7,32.8,27.5,32.8z"/>
	
		<linearGradient id="SVGID_00000149373468859029279660000010837752475688341155_" gradientUnits="userSpaceOnUse" x1="69.6787" y1="10.6684" x2="11.3296" y2="69.0175">
		<stop  offset="0" style="stop-color:#00BEFE"/>
		<stop  offset="1" style="stop-color:#02519B"/>
	</linearGradient>
	<path style="fill:url(#SVGID_00000149373468859029279660000010837752475688341155_);" d="M16,53.8c-1.6,0-2.4-0.8-2.4-2.4l0-0.6
		c0-0.6,0-1.2,0-1.8c0-1.3,0.9-2.1,2.2-2.1l14.2,0l14.2,0c1.3,0,2.1,0.8,2.1,2.2c0,0.9,0,1.7,0,2.6c0,1.3-0.8,2.2-2.2,2.2l-6.6,0
		L16,53.8z M43.9,52.4c0.1,0,0.1,0,0.2,0l0,0c0.3,0,0.5-0.1,0.7-0.2c0.2-0.2,0.2-0.5,0.2-0.8c0-0.4,0-0.8,0-1.3c0-0.2,0-0.4,0-0.6
		c0-1-0.1-1.1-1.2-1.1l-23.7,0c-1.4,0-2.7,0-4.1,0l0,0c-0.3,0-0.6,0-0.8,0.2c-0.2,0.2-0.2,0.4-0.2,0.7c0,0.4,0,0.9,0,1.3l0,0.6
		c0,1.2,0.1,1.3,1.2,1.3H43.9L43.9,52.4z"/>
	
		<linearGradient id="SVGID_00000098178980916499917260000003337854552122102423_" gradientUnits="userSpaceOnUse" x1="62.9092" y1="3.9542" x2="4.775" y2="62.0885">
		<stop  offset="0" style="stop-color:#00BEFE"/>
		<stop  offset="1" style="stop-color:#02519B"/>
	</linearGradient>
	<path style="fill:url(#SVGID_00000098178980916499917260000003337854552122102423_);" d="M15.2,38.2c-0.4,0-0.7-0.3-0.7-0.7
		c0-0.4,0.3-0.8,0.7-0.8h28.3c0.4,0,0.7,0.3,0.7,0.7c0,0.4-0.3,0.8-0.7,0.8H15.2z"/>
	
		<linearGradient id="SVGID_00000146465943048591452070000007812608874835405989_" gradientUnits="userSpaceOnUse" x1="67.2501" y1="11.2971" x2="12.4793" y2="66.0679">
		<stop  offset="0" style="stop-color:#00BEFE"/>
		<stop  offset="1" style="stop-color:#02519B"/>
	</linearGradient>
	<path style="fill:url(#SVGID_00000146465943048591452070000007812608874835405989_);" d="M38.6,38.2c-0.4,0-0.7-0.3-0.7-0.7
		c0-0.4,0.3-0.8,0.7-0.8h4.9c0.4,0,0.7,0.3,0.7,0.7c0,0.4-0.3,0.8-0.7,0.8H38.6z"/>
</g>
</svg>
