<?xml version="1.0" encoding="utf-8"?>
<!-- Generator: Adobe Illustrator 26.2.1, SVG Export Plug-In . SVG Version: 6.00 Build 0)  -->
<svg version="1.1" id="Layer_1" xmlns="http://www.w3.org/2000/svg" xmlns:xlink="http://www.w3.org/1999/xlink" x="0px" y="0px"
	 viewBox="0 0 60 60" style="enable-background:new 0 0 60 60;" xml:space="preserve">
<style type="text/css">
	.st0{fill:url(#SVGID_1_);}
	.st1{fill:url(#SVGID_00000130613376433128864400000002159093540447963788_);}
	.st2{fill:url(#SVGID_00000018949122871359429130000010105193017372696238_);}
</style>
<g>
	<linearGradient id="SVGID_1_" gradientUnits="userSpaceOnUse" x1="55.2278" y1="-3.6461" x2="-2.8896" y2="54.5671">
		<stop  offset="0" style="stop-color:#00BEFE"/>
		<stop  offset="1" style="stop-color:#02519B"/>
	</linearGradient>
	<path class="st0" d="M15.7,60c-0.8,0-1-0.2-1-1l0-0.9c0-1,0-1.9,0-2.9c0-1-0.3-1.9-1.1-2.7c-2.4-2.4-4.8-4.8-7.2-7.2
		c-0.3-0.3-0.5-0.6-0.6-0.8C4,41.3,2.1,38,0.3,34.6c-0.2-0.3-0.3-0.7-0.3-1.1c0-1.8,0-3.6,0-5.4c0-3.4,0-6.8-0.1-10.3
		c0-1.2,0.4-2.2,1.1-3c0.7-0.7,1.6-1.1,2.5-1.1c0.6,0,1.3,0.2,1.9,0.5l0.3,0.2l0.3-0.7c0.5-1.2,1.6-1.9,2.8-1.9c0.2,0,0.4,0,0.5,0.1
		c1.5,0.3,2.6,1.5,2.6,3.1c0,0.6,0,1.2,0,1.8l0,1.1l0.3,0c0.2,0,0.4,0,0.6-0.1c0.3,0,0.6-0.1,0.9-0.1c0.1,0,0.2,0,0.3,0
		c1.5,0.2,2.7,1.5,2.7,3.1c0,1.3,0,2.5,0,3.8l0,2.1l0.1,0l0.2,0h0.2l0,0c0.2,0,0.3,0,0.5,0c0.3,0,0.6-0.1,0.9-0.1c0.2,0,0.3,0,0.5,0
		c1.5,0.2,2.5,1.5,2.5,3.1c0,1.2,0,2.4,0,3.6c0,1.7,0,3.5,0,5.2c0,0.4,0.2,0.9,0.4,1.2c1.4,1.5,2.6,2.9,3.9,4.2
		c1,1.1,1.5,2.4,1.5,3.9c0,2.6,0,5.3,0,7.9l0,3.4c0,0.9-0.2,1-1,1l-5.9,0L15.7,60z M3.7,15.1c-0.2,0-0.4,0-0.6,0.1
		c-1,0.3-1.7,1.2-1.7,2.3c0,5.3,0,10.6,0,15.9c0,0.4,0.2,0.8,0.3,0.9c1.7,3.2,3.5,6.4,5.2,9.6c0.2,0.3,0.4,0.6,0.6,0.8l1.4,1.4
		c1.8,1.8,3.6,3.6,5.4,5.4c1.2,1.2,1.8,2.6,1.7,4.2c0,0.6,0,1.2,0,1.9l0,1.2h10.4l0-3.8c0-2.4,0-4.8,0-7.2c0-1.2-0.4-2.1-1.2-3
		c-1.9-2-3.8-4.1-5.7-6.1l-3.2-3.4c-0.9-1-1.8-1.9-2.7-2.9c-0.3-0.4-0.7-0.5-1.2-0.5c-0.4,0-0.8,0.2-1.1,0.6c-0.4,0.6-0.3,2.4,0.2,3
		l5.9,7.5c0.1,0.1,0.2,0.2,0.3,0.3l-1.1,0.8c0,0-1.9-2.4-1.9-2.4c-2.9-3.6-5.7-7.3-8.6-10.9C6,30.4,5.9,30,5.9,29.7c0-2,0-4,0-6.1
		c0-2,0-4.1,0-6.1c0-0.5-0.1-1-0.3-1.4C5.2,15.5,4.5,15.1,3.7,15.1z M18.8,27.8c-1,0-1.8,0.8-1.8,1.9c0,1.2,0,2.5,0,3.7
		c0,0.2,0.1,0.5,0.3,0.7c0.7,0.7,1.3,1.4,2,2.2l1.1,1.2l0.1-0.9c0-0.1,0-0.2,0-0.2l0-1.6c0-1.7,0-3.4,0-5.2
		C20.5,28.6,19.8,27.8,18.8,27.8L18.8,27.8z M9,13.1c-1,0-1.8,0.8-1.8,2c0,4.7,0,9.5,0,14.2c0,0.2,0,0.5,0.2,0.7
		c0.5,0.6,0.9,1.2,1.4,1.8l0.7,0.9L10,32c0.2-0.3,0.4-0.6,0.6-0.9c0.1-0.2,0.2-0.5,0.2-0.7c0-5.1,0-10.2,0-15.3
		C10.8,13.9,10.1,13.1,9,13.1L9,13.1z M13.9,19c-0.6,0-1.2,0.3-1.5,0.9c-0.2,0.3-0.2,0.7-0.2,1.1c0,2.6,0,5.2,0,7.8l0,0.9
		c0,0.1,0,0.2,0,0.3l0,0.4l0.2,0c1.1,0.1,1.3,0.2,2.7,1.5l0.5,0.5l0-5.6c0-2,0-3.9,0-5.9c0-0.9-0.5-1.6-1.3-1.8
		C14.2,19,14,19,13.9,19z"/>
	
		<linearGradient id="SVGID_00000183244162136368475530000016618671376553755019_" gradientUnits="userSpaceOnUse" x1="71.5424" y1="11.6337" x2="12.9745" y2="70.2981">
		<stop  offset="0" style="stop-color:#00BEFE"/>
		<stop  offset="1" style="stop-color:#02519B"/>
	</linearGradient>
	<path style="fill:url(#SVGID_00000183244162136368475530000016618671376553755019_);" d="M33.2,60c-0.7,0-0.9-0.2-0.9-0.9
		c0-4,0-7.9,0-11.9c0-1.2,0.4-2.3,1.3-3.2l1.2-1.3c0.9-1,1.9-2,2.8-3c0.4-0.4,0.6-0.8,0.6-1.4c0-1,0-2,0-2.9c0-1.7,0-3.5-0.1-5.3
		c-0.1-1,0.3-2,0.9-2.7c0.6-0.6,1.4-0.9,2.2-0.9c0.4,0,0.9,0.1,1.3,0.2l0.4,0.1v-5.7c0-2.1,1.2-3.4,3-3.4c0.4,0,0.8,0.1,1.2,0.2l0,0
		l0.1,0l0.2,0h0.3l0-2.7c0-1.8,1-3,2.6-3.3c0.2,0,0.4-0.1,0.6-0.1c1.2,0,2.3,0.8,2.9,2.1C54,13.9,54,14,54,14l0.1,0.3l0.3-0.1
		c0.7-0.4,1.3-0.5,1.9-0.5c0.7,0,1.3,0.2,1.9,0.6C59.4,15,60,16,60,17.2c0,5.5,0,11,0,16.5c0,0.2-0.1,0.5-0.2,0.7
		c-1.9,3.4-3.7,6.9-5.6,10.3c-0.1,0.2-0.3,0.4-0.5,0.7l-0.5,0.5c-2.2,2.2-4.4,4.5-6.7,6.7c-0.8,0.8-1.2,1.7-1.2,2.8
		c0,0.9,0,1.8,0,2.7l0,0.9c0,0.8-0.2,1-1,1l-5.8,0L33.2,60z M47.5,31.7c-0.3,0-0.6,0.1-0.8,0.3c-0.1,0.1-0.3,0.2-0.4,0.4l-3.6,3.8
		c-2.7,2.9-5.4,5.8-8.1,8.7c-0.7,0.8-1,1.6-1,2.6c0,2.4,0,4.7,0,7.1l0,3.2c0,0.1,0,0.3,0,0.4l0,0.5H44c0,0,0-0.9,0-1.1
		c0-0.6,0-1.2,0-1.8c-0.1-1.6,0.5-3,1.7-4.2c1.8-1.7,3.5-3.5,5.2-5.2l1.6-1.6c0.3-0.3,0.5-0.5,0.6-0.8c1.8-3.2,3.5-6.5,5.3-9.7
		c0.1-0.2,0.2-0.5,0.2-0.8c0-5.3,0-10.7,0-16c0-0.4-0.2-1-0.5-1.4c-0.4-0.6-1-0.9-1.7-0.9c-0.2,0-0.5,0-0.7,0.1
		c-1,0.3-1.6,1.2-1.6,2.2l0,3.7c0,2.8,0,5.7,0,8.5c0,0.4-0.2,0.8-0.4,1.1c-1.7,2.2-3.4,4.4-5.1,6.6l-5.2,6.6l-1-0.8
		c0.1-0.1,0.2-0.3,0.3-0.4c0.5-0.6,1-1.3,1.5-1.9c1.2-1.6,2.5-3.3,3.8-4.8c0.7-0.8,1-1.8,0.9-3C48.8,32.2,48.2,31.7,47.5,31.7z
		 M41.2,27.8c-1,0-1.8,0.8-1.8,2c0,1.1,0,2.1,0,3.2l0,4.7l1.2-1.3c0.7-0.8,1.4-1.5,2.1-2.3c0.2-0.2,0.2-0.5,0.2-0.7
		c0-1.2,0-2.4,0-3.6C43,28.6,42.3,27.8,41.2,27.8L41.2,27.8z M51,13.1c-1,0-1.7,0.8-1.7,1.9c0,5.1,0,10.2,0,15.3
		c0,0.3,0.1,0.5,0.2,0.7c0.2,0.3,0.4,0.6,0.6,0.9l0.5,0.7l0.7-0.9c0.5-0.6,0.9-1.2,1.4-1.8c0.2-0.2,0.2-0.5,0.2-0.7
		c0-4.7,0-9.5,0-14.2C52.8,13.9,52.1,13.1,51,13.1L51,13.1L51,13.1z M46.1,19c-1,0-1.7,0.8-1.7,1.9c0,2.7,0,5.3,0,8l0,2.3
		c0,0.1,0,0.2,0,0.3l0.1,1l0.5-0.6c0.6-0.8,1.4-1.5,2.6-1.5h0.3l0.1-0.3l0-2.5c0-2.3,0-4.6,0-6.9c0-0.8-0.6-1.5-1.5-1.6
		C46.3,19,46.2,19,46.1,19z"/>
	
		<linearGradient id="SVGID_00000094613780802012631580000003641907498493292455_" gradientUnits="userSpaceOnUse" x1="48.9201" y1="-10.6579" x2="-8.9561" y2="47.3138">
		<stop  offset="0" style="stop-color:#00BEFE"/>
		<stop  offset="1" style="stop-color:#02519B"/>
	</linearGradient>
	<path style="fill:url(#SVGID_00000094613780802012631580000003641907498493292455_);" d="M30,24.8c-0.2,0-0.3-0.1-0.5-0.3
		c-1-0.9-2.1-1.9-3.1-2.8c-2.7-2.4-5.5-5-8.2-7.5C15.9,12.1,15.1,9.2,16,6c0.9-3.1,3-5.1,6.2-5.8C22.8,0.1,23.4,0,24,0
		c1.8,0,3.6,0.7,5.2,2l0.8,0.6l0.2-0.1c0.3-0.2,0.7-0.4,1-0.6c0.7-0.4,1.3-0.9,2-1.2C34.2,0.2,35.3,0,36.3,0c1.7,0,3.3,0.6,4.8,1.8
		c2.4,1.9,3.5,4.5,3.1,7.6c-0.2,2-1.1,3.7-2.6,5.1c-3.7,3.3-7.3,6.7-11,10C30.4,24.7,30.2,24.8,30,24.8z M23.9,1.4
		c-0.5,0-1.1,0.1-1.7,0.2c-2.6,0.7-4.3,2.4-5,4.9c-0.7,2.6,0,5,2,6.9c1.2,1.2,2.5,2.3,3.7,3.4c0.5,0.5,1.1,0.9,1.6,1.4l5.5,5
		l0.2-0.2c1.1-1,2.2-2,3.3-3c2.5-2.2,5-4.5,7.5-6.9c2.7-2.5,2.8-6.9,0.3-9.6c-1.3-1.4-3.1-2.2-4.9-2.2c-1.6,0-3.2,0.6-4.5,1.7
		c-0.2,0.2-0.4,0.4-0.7,0.6l-0.4,0.3c-0.3,0.3-0.5,0.4-0.7,0.4c-0.2,0-0.4-0.1-0.7-0.4l-0.4-0.3c-0.3-0.3-0.7-0.6-1-0.8
		C26.7,1.8,25.3,1.4,23.9,1.4z"/>
</g>
</svg>
