<?xml version="1.0" encoding="utf-8"?>
<!-- Generator: Adobe Illustrator 26.2.1, SVG Export Plug-In . SVG Version: 6.00 Build 0)  -->
<svg version="1.1" id="Layer_1" xmlns="http://www.w3.org/2000/svg" xmlns:xlink="http://www.w3.org/1999/xlink" x="0px" y="0px"
	 viewBox="0 0 60 60" style="enable-background:new 0 0 60 60;" xml:space="preserve">
<style type="text/css">
	.st0{fill:url(#SVGID_1_);}
	.st1{fill:url(#SVGID_00000181782668898537654720000013545504932875246779_);}
	.st2{fill:url(#SVGID_00000016034774486763532180000009540680714713041554_);}
	.st3{fill:url(#SVGID_00000038399997477389024000000004143576015462965649_);}
	.st4{fill:url(#SVGID_00000158738850678506949740000009979590782735215018_);}
	.st5{fill:url(#SVGID_00000091705054645011407770000016649912502711518854_);}
	.st6{fill:url(#SVGID_00000049929470320270659680000006283320573852452234_);}
	.st7{fill:url(#SVGID_00000099634635209454240670000014149751497291197117_);}
	.st8{fill:url(#SVGID_00000094617971970521200790000003483700493497789608_);}
</style>
<g>
	<linearGradient id="SVGID_1_" gradientUnits="userSpaceOnUse" x1="63.9065" y1="9.6529" x2="9.772" y2="63.964">
		<stop  offset="0" style="stop-color:#00BEFE"/>
		<stop  offset="1" style="stop-color:#02519B"/>
	</linearGradient>
	<path class="st0" d="M33.7,40.4c-0.3,0-0.5-0.1-0.6-0.4c-0.2-0.3-0.1-0.7,0.2-0.9c0.7-0.5,1.3-0.9,2-1.5c0.1-0.1,0.3-0.2,0.5-0.2
		c0.2,0,0.4,0.1,0.5,0.2c0.1,0.1,0.2,0.3,0.2,0.5c0,0.2-0.1,0.4-0.2,0.5c-0.7,0.6-1.4,1.1-2.1,1.6C33.9,40.4,33.8,40.4,33.7,40.4
		L33.7,40.4z"/>
	
		<linearGradient id="SVGID_00000091706257054875455620000012774768492230512786_" gradientUnits="userSpaceOnUse" x1="64.3059" y1="9.2518" x2="10.1777" y2="63.5566">
		<stop  offset="0" style="stop-color:#00BEFE"/>
		<stop  offset="1" style="stop-color:#02519B"/>
	</linearGradient>
	<path style="fill:url(#SVGID_00000091706257054875455620000012774768492230512786_);" d="M38.2,36.4c-0.2,0-0.4-0.1-0.5-0.2
		c-0.3-0.3-0.3-0.7,0-0.9c0.5-0.6,1-1.3,1.5-2c0.1-0.2,0.3-0.3,0.6-0.3c0.1,0,0.2,0,0.4,0.1c0.2,0.1,0.3,0.3,0.3,0.4
		c0,0.2,0,0.4-0.1,0.5c-0.5,0.7-1,1.4-1.6,2.1C38.6,36.3,38.4,36.4,38.2,36.4L38.2,36.4z"/>
	
		<linearGradient id="SVGID_00000128452205867429696070000006901235889640239538_" gradientUnits="userSpaceOnUse" x1="62.1326" y1="8.9826" x2="8.2648" y2="63.0262">
		<stop  offset="0" style="stop-color:#00BEFE"/>
		<stop  offset="1" style="stop-color:#02519B"/>
	</linearGradient>
	<path style="fill:url(#SVGID_00000128452205867429696070000006901235889640239538_);" d="M28.1,43c-0.4,0-0.7-0.3-0.7-0.6
		c0-0.3,0.2-0.6,0.5-0.7c0.8-0.2,1.6-0.5,2.3-0.9c0.1,0,0.2-0.1,0.3-0.1c0.3,0,0.5,0.1,0.6,0.4c0.1,0.2,0.1,0.4,0,0.5
		c-0.1,0.2-0.2,0.3-0.4,0.4c-0.8,0.4-1.6,0.7-2.5,0.9C28.3,43,28.2,43,28.1,43z"/>
	
		<linearGradient id="SVGID_00000057147170648161908210000011314321230125918392_" gradientUnits="userSpaceOnUse" x1="63.3295" y1="7.8049" x2="9.5706" y2="61.7392">
		<stop  offset="0" style="stop-color:#00BEFE"/>
		<stop  offset="1" style="stop-color:#02519B"/>
	</linearGradient>
	<path style="fill:url(#SVGID_00000057147170648161908210000011314321230125918392_);" d="M41.4,31.2c-0.1,0-0.2,0-0.4-0.1
		c-0.3-0.2-0.4-0.6-0.3-0.9c0.3-0.7,0.6-1.5,0.8-2.2c0.1-0.3,0.4-0.5,0.7-0.5c0,0,0.1,0,0.1,0c0.2,0,0.4,0.1,0.5,0.3
		C43,28,43,28.2,43,28.4c-0.2,0.8-0.5,1.6-0.9,2.4C42,31,41.7,31.2,41.4,31.2L41.4,31.2z"/>
	
		<linearGradient id="SVGID_00000030486787001257342430000002214956196318560138_" gradientUnits="userSpaceOnUse" x1="48.6795" y1="-11.0158" x2="-10.5378" y2="48.3947">
		<stop  offset="0" style="stop-color:#00BEFE"/>
		<stop  offset="1" style="stop-color:#02519B"/>
	</linearGradient>
	<path style="fill:url(#SVGID_00000030486787001257342430000002214956196318560138_);" d="M18.6,43.7c0,0-0.1,0-0.1,0
		C7.8,42,0,32.8,0,22C0,10.1,10.1,0,22,0c3.5,0,6.8,0.8,9.9,2.3c0.2,0.1,0.3,0.3,0.4,0.5c0.1,0.2,0,0.4-0.1,0.6
		c-0.1,0.2-0.3,0.3-0.6,0.3c-0.1,0-0.2,0-0.3-0.1c-2.9-1.5-6-2.2-9.3-2.2c-11.1,0-20.5,9.4-20.6,20.5c0,10.2,7.2,18.8,17.3,20.4
		c0.3,0.1,0.6,0.4,0.6,0.7C19.2,43.4,18.9,43.7,18.6,43.7L18.6,43.7z"/>
	
		<linearGradient id="SVGID_00000158743802458962484660000015026524651603066496_" gradientUnits="userSpaceOnUse" x1="54.2203" y1="-3.79" x2="-1.4347" y2="52.0466">
		<stop  offset="0" style="stop-color:#00BEFE"/>
		<stop  offset="1" style="stop-color:#02519B"/>
	</linearGradient>
	<path style="fill:url(#SVGID_00000158743802458962484660000015026524651603066496_);" d="M42.9,19.3c-0.3,0-0.6-0.2-0.7-0.6
		c-0.9-5.3-3.7-10.1-8.1-13.3c-0.3-0.2-0.4-0.6-0.2-1c0.1-0.2,0.3-0.3,0.6-0.3c0.1,0,0.3,0,0.4,0.1c4.7,3.4,7.7,8.5,8.6,14.2
		c0,0.2,0,0.4-0.2,0.6C43.3,19.2,43.2,19.3,42.9,19.3z"/>
	
		<linearGradient id="SVGID_00000080187450546985793440000007136710186167618747_" gradientUnits="userSpaceOnUse" x1="67.8878" y1="8.1355" x2="8.7086" y2="67.5078">
		<stop  offset="0" style="stop-color:#00BEFE"/>
		<stop  offset="1" style="stop-color:#02519B"/>
	</linearGradient>
	<path style="fill:url(#SVGID_00000080187450546985793440000007136710186167618747_);" d="M38,60c-5.8,0-11.2-2.2-15.3-6.3
		c-0.1-0.1-0.2-0.3-0.2-0.5c0-0.2,0.1-0.4,0.2-0.5c0.1-0.1,0.3-0.2,0.5-0.2c0.2,0,0.4,0.1,0.5,0.2c3.9,3.8,9,5.9,14.4,5.9h0.2
		c11.1-0.1,20.3-9.2,20.4-20.4c0.1-11.3-9-20.6-20.3-20.8l-0.3,0c-11.3,0-20.6,9.2-20.6,20.6c0,4.4,1.4,8.6,3.9,12.1
		c0.2,0.3,0.2,0.7-0.1,0.9c-0.1,0.1-0.3,0.2-0.5,0.2c-0.2,0-0.4-0.1-0.6-0.3c-2.7-3.8-4.2-8.2-4.2-12.9c0-5.8,2.3-11.3,6.5-15.5
		c4.2-4.2,9.7-6.5,15.5-6.5c5.9,0,11.4,2.3,15.5,6.4C57.7,26.6,60,32.2,60,38c0,12-9.8,21.9-21.8,22L38,60z"/>
	
		<linearGradient id="SVGID_00000083076170855161063730000009194870168320173713_" gradientUnits="userSpaceOnUse" x1="61.1533" y1="5.3329" x2="8.0081" y2="58.6516">
		<stop  offset="0" style="stop-color:#00BEFE"/>
		<stop  offset="1" style="stop-color:#02519B"/>
	</linearGradient>
	<path style="fill:url(#SVGID_00000083076170855161063730000009194870168320173713_);" d="M43.1,25.3c-0.1,0-0.1,0-0.2,0
		c-0.3-0.1-0.6-0.4-0.5-0.8c0.1-0.8,0.2-1.6,0.2-2.4c0-0.4,0.3-0.6,0.6-0.7c0,0,0,0,0,0c0.3,0,0.4,0.1,0.5,0.2
		c0.1,0.1,0.2,0.3,0.2,0.5c0,0.8-0.1,1.7-0.2,2.5C43.7,25.1,43.4,25.3,43.1,25.3z"/>
	
		<linearGradient id="SVGID_00000173856555340421659830000001001545204610966182_" gradientUnits="userSpaceOnUse" x1="58.9312" y1="7.4949" x2="5.8073" y2="60.7922">
		<stop  offset="0" style="stop-color:#00BEFE"/>
		<stop  offset="1" style="stop-color:#02519B"/>
	</linearGradient>
	<path style="fill:url(#SVGID_00000173856555340421659830000001001545204610966182_);" d="M22.1,43.9c-0.2,0-0.4-0.1-0.5-0.3
		c-0.1-0.2-0.2-0.4-0.1-0.6c0.1-0.3,0.3-0.6,0.7-0.6c0.8,0,1.6-0.1,2.5-0.2c0,0,0,0,0,0c0.4,0,0.7,0.2,0.8,0.6c0,0.2,0,0.4-0.1,0.5
		c-0.1,0.2-0.3,0.3-0.5,0.3C23.9,43.9,23,43.9,22.1,43.9z"/>
</g>
</svg>
