<?xml version="1.0" encoding="utf-8"?>
<!-- Generator: Adobe Illustrator 26.3.1, SVG Export Plug-In . SVG Version: 6.00 Build 0)  -->
<svg version="1.1" id="Layer_1" xmlns="http://www.w3.org/2000/svg" xmlns:xlink="http://www.w3.org/1999/xlink" x="0px" y="0px"
	 viewBox="0 0 451 78.3" style="enable-background:new 0 0 451 78.3;" xml:space="preserve">
<style type="text/css">
	.st0{fill:url(#SVGID_1_);}
	.st1{fill:url(#SVGID_00000001637422265667826790000016471873983258088087_);}
	.st2{fill:url(#SVGID_00000145749704673898016520000008244916236789744043_);}
	.st3{fill:url(#SVGID_00000139261571749016915990000004677178901887145897_);}
</style>
<g>
	
		<linearGradient id="SVGID_1_" gradientUnits="userSpaceOnUse" x1="17.8" y1="-0.1145" x2="17.8" y2="92.1173" gradientTransform="matrix(1 0 0 -1 0 78.4898)">
		<stop  offset="0" style="stop-color:#00BEFE"/>
		<stop  offset="1" style="stop-color:#02519B"/>
	</linearGradient>
	<path class="st0" d="M17.8,7.3h17.8V0H17.8l0,0h-3.6c-2.6,0-5,0.7-7.1,1.9c-2.2,1.2-4,3-5.2,5.2C0.7,9.2,0,11.6,0,14.2v21.3
		l7.1,3.6L0,42.7V64c0,2.6,0.7,5,1.9,7.1c1.2,2.2,3,4,5.2,5.2c2.1,1.2,4.5,1.9,7.1,1.9h21.4V32H21.3v3.6h-7.1V12
		C14.2,9.8,15.7,7.9,17.8,7.3z M21.3,42.7v27.9c-0.7,0.4-1.5,0.6-2.3,0.6c-0.4,0-0.9-0.1-1.3-0.2c-2-0.6-3.6-2.4-3.6-4.7V42.7
		L21.3,42.7L21.3,42.7z"/>
	
		<linearGradient id="SVGID_00000011008889405261503230000014751289835517202573_" gradientUnits="userSpaceOnUse" x1="28.4" y1="-0.1145" x2="28.4" y2="92.1173" gradientTransform="matrix(1 0 0 -1 0 78.4898)">
		<stop  offset="0" style="stop-color:#00BEFE"/>
		<stop  offset="1" style="stop-color:#02519B"/>
	</linearGradient>
	
		<rect x="21.3" y="10.7" style="fill:url(#SVGID_00000011008889405261503230000014751289835517202573_);" width="14.2" height="17.8"/>
	
		<linearGradient id="SVGID_00000179647511566262043090000003963597491758323609_" gradientUnits="userSpaceOnUse" x1="60.5" y1="78.8668" x2="60.5" y2="-6.7634" gradientTransform="matrix(1 0 0 -1 0 78.4898)">
		<stop  offset="0" style="stop-color:#00BEFE"/>
		<stop  offset="1" style="stop-color:#02519B"/>
	</linearGradient>
	<path style="fill:url(#SVGID_00000179647511566262043090000003963597491758323609_);" d="M78.2,14.3c0-2.6-0.7-5-1.9-7.1
		C75,5,73.2,3.2,71.1,2S66.6,0.1,64,0.1H42.7v46.2h14.2v-3.6H64v24.9h13.8c0.3-1.1,0.5-2.3,0.5-3.6V42.7l-7.1-3.6l7.1-3.6L78.2,14.3
		L78.2,14.3z M64,35.6h-7.1V7.2h2.3c0.4,0,0.9,0.1,1.3,0.2c2.1,0.6,3.6,2.4,3.6,4.7v23.5H64z"/>
	
		<linearGradient id="SVGID_00000080900255273889991730000005195058553328785828_" gradientUnits="userSpaceOnUse" x1="59.5" y1="78.8668" x2="59.5" y2="-6.7634" gradientTransform="matrix(1 0 0 -1 0 78.4898)">
		<stop  offset="0" style="stop-color:#00BEFE"/>
		<stop  offset="1" style="stop-color:#02519B"/>
	</linearGradient>
	<path style="fill:url(#SVGID_00000080900255273889991730000005195058553328785828_);" d="M76.3,71.2c-1.2,2.2-3,4-5.2,5.2
		c-2.1,1.2-4.5,1.9-7.1,1.9H42.7V49.9h14.2v21.3H76.3z"/>
</g>
<g>
	<path d="M99,14.5h25.4c8.9,0,13.7,4.5,13.7,12.3v2.7c-0.1,4.2-2.5,6.8-6.2,8.2c4.2,1.4,7.2,4.2,7.3,8.7v5c0,7.8-4.8,12.4-13.7,12.4
		H99V14.5z M129.4,28.3c0-4.6-2-6.1-6.9-6.1H108v12.3h14.4c4.7-0.1,7-1.1,7-4.6V28.3z M108,56h15.6c4.9,0,6.9-2.1,6.9-6.8V47
		c0-3.6-2.4-5-7.3-5H108V56z"/>
	<path d="M152.1,7.8c2.7,0,4.8,2,4.8,4.6c0,2.6-2.1,4.6-4.8,4.6c-2.6,0-4.7-2-4.7-4.6C147.4,9.8,149.5,7.8,152.1,7.8z M156.5,63.8
		h-8.7V23.6h8.7V63.8z"/>
	<path d="M165.3,12h8.7v14.8c3.1-1.5,7.5-3.5,11.2-3.5h2.3c8.7,0.1,13,2,13,11.7v17.5c0,9.6-4.4,11.6-13,11.7h-2.3
		c-3.7,0-8.1-2-11.2-3.6v3.2h-8.7V12z M174,53.9c3.2,0.9,6.8,2.5,9.8,2.5h2.1c4.2,0,5.9-1.1,5.9-5.4V36.4c0-4.4-1.7-5.4-5.9-5.4
		h-2.1c-3,0-6.6,1.5-9.8,2.5V53.9z"/>
	<path d="M217.4,63.8h-8.7V12h8.7V63.8z"/>
	<path d="M258.3,63.2c0,0-8.7,0.9-19.5,0.9c-8.8,0.1-13.2-2.3-13.2-12V36.3c0-7.8,5.1-12.7,13.9-12.7h8.5c8.9,0,13.3,4.9,13.3,12.7
		v11.4c0,0.6-0.1,0.8-0.7,0.8h-26.3V51c0,5.6,0.8,5.8,5.8,5.8h18.3L258.3,63.2z M252.6,37.9c0-6.8-1.9-7.3-6.4-7.3h-4.8
		c-4.6,0-7.1,0.3-7.1,7.3v3.7l18.3-0.1V37.9z"/>
	<path d="M305.3,22.2h-19.6c-4.9,0-7.3,1.8-7.3,6.4v20.3c0,4.6,2.4,7.1,7.3,7.1h19.6l0.1,7.4c0,0-11.6,0.7-23.3,0.7
		c-8.8,0.1-13.2-6.3-13.2-14.2V27.6c0-7.8,4.4-13.5,13.2-13.5c13.1,0,23.3,0.6,23.3,0.6L305.3,22.2z"/>
	<path d="M312.5,12h8.7v14.8c3.1-1.5,7.5-3.5,11.2-3.5h2.2c8.6,0.1,13,2,13,11.7v28.8h-8.7V36.4c0-4.4-1.7-5.4-5.8-5.4h-2
		c-3,0-6.6,1.5-9.8,2.5v30.4h-8.7V12z"/>
	<path d="M375.9,23.3c8.9-0.1,14,2,14,11.7v28.8h-8.7v-3.2c-3.1,1.5-7.5,3.6-11.2,3.6h-2.7c-8.7-0.1-13-0.1-13-11.7v-3.9
		c0-9.8,4.4-10.6,13-10.6h4.8c4.4,0,5.8,0.6,9.1,1.4v-3c-0.1-4.9-1.1-6.2-5.9-6.2l-16.9,0.1v-6.2C358.4,24.1,365,23.3,375.9,23.3z
		 M372.8,44.3h-4.2c-4.6,0-5.9,0.2-5.9,5.4v2c0,4.3,1.7,5.4,5.9,5.4h2.8c3,0,6.6-1.5,9.8-2.5v-9.8C378,44.5,375.9,44.3,372.8,44.3z"
		/>
	<path d="M402.8,7.8c2.7,0,4.8,2,4.8,4.6c0,2.6-2.1,4.6-4.8,4.6c-2.6,0-4.7-2-4.7-4.6C398,9.8,400.2,7.8,402.8,7.8z M407.1,63.8
		h-8.7V23.6h8.7V63.8z"/>
	<path d="M415.9,23.6h8.7v3.1c3.1-1.5,7.5-3.5,11.2-3.5h2.2c8.6,0,13,2,13,11.6v29h-8.7V36.3c0-4.3-1.7-5.4-5.8-5.4h-2
		c-3,0-6.6,1.5-9.8,2.5v30.4h-8.7V23.6z"/>
</g>
</svg>
